<svg xmlns="http://www.w3.org/2000/svg" xmlns:xlink="http://www.w3.org/1999/xlink" viewBox="0 0 16 16"><title>CIO/CISO Interchange</title><path d="M2.8 7.013c-.79-.17-1.428.325-1.428 1.108 0 .784.64 1.557 1.428 1.73.79.17 1.428-.326 1.428-1.11 0-.782-.64-1.555-1.428-1.727m9.876 0c-.79.172-1.43.945-1.43 1.728 0 .784.64 1.28 1.43 1.11.788-.173 1.428-.946 1.428-1.73 0-.782-.64-1.278-1.428-1.107m-4.934.416c-.788 0-1.428.633-1.428 1.417 0 .783.64 1.418 1.428 1.418.79 0 1.43-.635 1.43-1.418 0-.784-.64-1.418-1.43-1.418m6.638 4.427l-.002-.867c0-.787-.642-1.188-1.434-.897l-.26.096-.254.093c-.793.29-1.435 1.165-1.435 1.952l.003 1.073c-.496.11-1.018.197-1.56.253l.003-1.498c0-.787-.64-1.424-1.434-1.424h-.513c-.793 0-1.435.637-1.435 1.424l-.003 1.465c-.55-.07-1.078-.167-1.576-.293v-1c0-.786-.642-1.66-1.434-1.95l-.254-.095-.26-.097c-.792-.29-1.434.11-1.434.897v.615C.4 10.988 0 10.268 0 9.5c0-.788.418-1.523 1.143-2.15V6.33c0-.787.64-1.66 1.433-1.952l.254-.094.26-.096c.792-.29 1.434.11 1.434.897v.668c.487-.12 1-.215 1.533-.282v-.816c0-.787.643-1.424 1.436-1.424h.513c.793 0 1.435.637 1.435 1.424v.783c.513.054 1.01.134 1.483.237v-.59c0-.786.643-1.187 1.435-.896l.26.096.254.094c.792.29 1.434 1.165 1.434 1.95v.758c.93.68 1.48 1.512 1.48 2.413 0 .875-.52 1.688-1.406 2.357M2.822 1.107c.788-.17 1.428.326 1.428 1.11 0 .782-.64 1.556-1.428 1.727-.79.172-1.428-.325-1.428-1.108 0-.783.64-1.556 1.428-1.728M7.742.02c.79 0 1.43.635 1.43 1.42 0 .782-.64 1.417-1.43 1.417-.788 0-1.428-.635-1.428-1.418 0-.785.64-1.42 1.428-1.42m4.885 1.088c.788.172 1.427.945 1.427 1.728s-.64 1.28-1.427 1.108c-.79-.17-1.43-.945-1.43-1.728s.64-1.28 1.43-1.108" /></svg>