<svg xmlns="http://www.w3.org/2000/svg" width="1440" height="325" viewBox="0 0 1440 325"><g fill="#1D2737" fill-opacity=".5" fill-rule="evenodd"><path d="M164.458 71.696c-8.61-4.1-28.847-13.944-57.694-13.944-68.02 0-80.067 54.55-80.928 94.735-.86 40.194 9.042 93.497 77.06 93.497 28.84 0 49.507-9.425 58.118-13.117L179.52 262.8c-8.603 4.922-33.145 18.867-77.484 18.867-103.325 0-125.275-71.768-123.983-129.582 1.283-58.643 25.825-130.418 129.15-130.418 44.34 0 68.442 15.175 76.63 20.507l-19.375 29.522zM216.333 281.667h43.334v-260h-43.334M421.953 57.398c-67.18 0-70.603 53.403-71.467 94.474-.848 40.668 6 94.474 71.467 94.474 65.04 0 72.314-53.806 71.46-94.063-.857-41.482-4.71-94.885-71.46-94.885m.848 224.27c-101.406 0-119.8-77.633-119.8-129.796 0-53.395 16.682-130.205 118.953-130.205 101.835 0 119.38 76.81 119.38 130.205 0 52.163-17.545 129.795-118.532 129.795M587.505 325L563 317.916 657.662 0l24.505 6.66M890.292 71.696c-8.61-4.1-28.847-13.944-57.695-13.944-68.02 0-80.066 54.55-80.92 94.735-.87 40.194 9.034 93.497 77.054 93.497 28.848 0 49.514-9.425 58.117-13.117L905.36 262.8c-8.61 4.922-33.152 18.867-77.49 18.867-103.317 0-125.276-71.768-123.984-129.582 1.292-58.643 25.825-130.418 129.15-130.418 44.34 0 68.45 15.175 76.63 20.507l-19.374 29.522zM942.167 281.667H985.5v-260h-43.333M1174.384 71.696c-9.704-4.1-35.012-14.765-59.063-14.765-43.88.42-51.044 42.246-18.564 57.01l49.78 22.97c92.396 43.057 61.18 144.757-31.215 144.757-50.622 0-82.267-20.097-86.487-22.55l16.456-28.71c4.64 2.46 36.707 18.456 67.078 16.815 40.076-2.46 64.126-49.62 13.924-72.587l-54.43-25.02c-69.18-31.983-53.155-127.948 43.88-127.948 37.967 0 65.807 17.628 73.824 22.558l-15.182 27.47zm168.394-14.298c-67.17 0-70.595 53.403-71.46 94.474-.847 40.668 6 94.474 71.46 94.474 65.048 0 72.315-53.806 71.467-94.063-.864-41.482-4.708-94.885-71.467-94.885m.856 224.27c-101.407 0-119.8-77.633-119.8-129.796 0-53.395 16.68-130.205 118.944-130.205 101.843 0 119.39 76.81 119.39 130.205 0 52.163-17.547 129.795-118.534 129.795" style="mix-blend-mode:multiply"/></g></svg>