<svg xmlns="http://www.w3.org/2000/svg" xmlns:xlink="http://www.w3.org/1999/xlink" width="165" height="47"><defs><path id="a" d="M0 0h53v46H0z"/><path id="c" d="M0 47h166V0H0z"/></defs><g fill="none" fill-rule="evenodd"><mask id="b" fill="#fff"><use xlink:href="#a"/></mask><path fill="#ED2E26" d="M10 24.117c-2.761-.59-5 1.118-5 3.816 0 2.697 2.239 5.36 5 5.95 2.761.591 5-1.117 5-3.815s-2.239-5.362-5-5.951m33 0c-2.761.59-5 3.253-5 5.95 0 2.699 2.239 4.407 5 3.816 2.76-.59 5-3.253 5-5.95 0-2.698-2.24-4.407-5-3.816M26 25A5 5 0 1 0 26 35 5 5 0 0 0 26 25m22.28 15.227l-.006-2.939c0-2.664-2.156-4.023-4.815-3.036l-.874.325-.852.316c-2.66.987-4.816 3.948-4.816 6.613l.008 3.635a45.125 45.125 0 0 1-5.238.859l.01-5.08a4.82 4.82 0 0 0-4.816-4.823h-1.725a4.82 4.82 0 0 0-4.816 4.823l-.01 4.963a43.604 43.604 0 0 1-5.294-.99l.006-3.387c0-2.665-2.155-5.626-4.816-6.613l-.852-.316-.872-.325c-2.66-.987-4.816.372-4.816 3.036l-.005 2.083C1.345 37.283 0 34.845 0 32.237c0-2.664 1.403-5.154 3.839-7.279l-.006-3.457c0-2.663 2.156-5.625 4.816-6.612l.853-.317.872-.326c2.66-.986 4.816.374 4.816 3.038l.005 2.263a43.8 43.8 0 0 1 5.14-.954l.006-2.77A4.82 4.82 0 0 1 25.157 11h1.725c2.66 0 4.815 2.16 4.815 4.823l-.004 2.655c1.725.182 3.392.452 4.98.801l.004-1.995c0-2.664 2.157-4.024 4.816-3.038l.874.326.853.317c2.659.987 4.815 3.949 4.815 6.612l-.005 2.562c3.124 2.302 4.97 5.123 4.97 8.174 0 2.97-1.747 5.723-4.719 7.99M10 4.116c2.761-.588 5 1.118 5 3.815s-2.239 5.363-5 5.952c-2.762.591-5-1.117-5-3.814s2.238-5.363 5-5.953M26 0A5 5 0 1 1 26 10a5 5 0 0 1 .002-10m17 4.116C45.762 4.706 48 7.372 48 10.069c0 2.697-2.238 4.405-5 3.814-2.761-.59-5-3.255-5-5.952s2.239-4.403 5-3.815" mask="url(#b)"/><path fill="#ED2E26" d="M75.682 10.464c-.586-.284-1.962-.966-3.924-.966-4.626 0-5.446 3.777-5.504 6.559-.059 2.782.615 6.473 5.241 6.473 1.962 0 3.367-.653 3.953-.908l1.259 2.072c-.586.34-2.255 1.306-5.27 1.306-7.028 0-8.521-4.969-8.433-8.971C63.09 11.969 64.76 7 71.788 7 74.804 7 76.443 8.05 77 8.42l-1.318 2.044z"/><mask id="d" fill="#fff"><use xlink:href="#c"/></mask><path fill="#ED2E26" mask="url(#d)" d="M80 25h3V7h-3zM94 9c-4.696 0-4.935 3.674-4.996 6.5-.059 2.798.42 6.5 4.996 6.5 4.547 0 5.056-3.702 4.996-6.472C98.936 12.674 98.666 9 94 9m.043 16C87.235 25 86 19.625 86 16.014 86 12.318 87.12 7 93.986 7c6.836 0 8.014 5.318 8.014 9.014 0 3.611-1.178 8.986-7.957 8.986M105.645 27L104 26.52 110.355 5l1.645.451zM125.682 10.464c-.586-.284-1.962-.966-3.924-.966-4.626 0-5.446 3.777-5.504 6.559-.059 2.782.615 6.473 5.241 6.473 1.962 0 3.368-.653 3.953-.908l1.26 2.072c-.587.34-2.256 1.306-5.272 1.306-7.027 0-8.52-4.969-8.432-8.971.087-4.06 1.756-9.029 8.784-9.029 3.016 0 4.656 1.05 5.212 1.42l-1.318 2.044zM130 25h3V7h-3zM146.077 10.464c-.672-.284-2.424-1.023-4.09-1.023-3.037.03-3.533 2.925-1.285 3.947l3.447 1.59C150.545 17.96 148.384 25 141.988 25c-3.505 0-5.696-1.391-5.988-1.561l1.14-1.988c.32.17 2.54 1.278 4.643 1.164 2.775-.17 4.44-3.435.964-5.025l-3.768-1.732c-4.79-2.214-3.68-8.858 3.038-8.858 2.628 0 4.556 1.22 5.11 1.562l-1.05 1.902zM157 9c-4.696 0-4.935 3.674-4.996 6.5-.059 2.798.42 6.5 4.996 6.5 4.547 0 5.055-3.702 4.996-6.472C161.936 12.674 161.666 9 157 9m.043 16c-6.808 0-8.043-5.375-8.043-8.986C149 12.318 150.12 7 156.985 7c6.837 0 8.015 5.318 8.015 9.014 0 3.611-1.178 8.986-7.957 8.986M63.112 40.74h1.17l.949-11.48h-1.488l.112-1.26H68l-.112 1.26h-1.17l-.949 11.48h1.487L67.145 42H63zM69.12 31.19h3.153c-.067.38-.127.748-.18 1.103-.054.355-.108.716-.161 1.083a94.72 94.72 0 0 1-.181 1.188c-.067.425-.147.897-.24 1.417l.039.019c.174-.634.418-1.25.733-1.853a7.745 7.745 0 0 1 1.094-1.597c.415-.463.86-.837 1.336-1.122.475-.285.96-.428 1.455-.428.683 0 1.185.2 1.507.599.32.399.482 1.03.482 1.891 0 .394-.024.84-.07 1.341-.048.501-.104 1.026-.171 1.577-.067.552-.141 1.12-.221 1.702-.08.583-.154 1.148-.221 1.692H79L78.88 41h-3.093c.093-.786.19-1.546.29-2.281.101-.735.192-1.42.272-2.053.08-.634.147-1.202.201-1.702.053-.5.08-.903.08-1.207 0-.533-.07-.89-.21-1.074-.14-.184-.366-.276-.673-.276-.375 0-.733.117-1.074.352-.342.234-.66.542-.954.921a8.388 8.388 0 0 0-.803 1.265c-.241.463-.456.922-.643 1.378-.187.456-.338.884-.452 1.284-.113.399-.19.718-.23.96L71.168 41h-1.526c.213-1.534.394-3.016.542-4.449.147-1.432.288-2.82.421-4.163H69l.12-1.198zm13.476 1.662H81l.097-1.244h1.615l.23-2.549L84.404 29l-.23 2.608H87l-.096 1.244h-2.846l-.538 6.224c-.052.5.006.889.173 1.166.166.276.448.415.846.415.41 0 .782-.06 1.115-.178.333-.12.647-.263.942-.435l-.115 1.403a5.325 5.325 0 0 1-.933.375c-.378.118-.81.178-1.298.178-.782 0-1.368-.234-1.76-.702-.39-.467-.535-1.267-.432-2.4l.538-6.046zM92 33.14c0-.27-.102-.528-.307-.773-.203-.244-.533-.367-.987-.367-.408 0-.769.106-1.08.32a2.82 2.82 0 0 0-.809.869 4.979 4.979 0 0 0-.545 1.275A8.141 8.141 0 0 0 88 36c.613-.09 1.163-.209 1.651-.357a5.048 5.048 0 0 0 1.26-.561c.351-.225.62-.499.808-.82A2.19 2.19 0 0 0 92 33.14zm1.15 8.08c-.225.15-.579.318-1.064.503-.484.184-1.05.277-1.7.277-1.123 0-1.968-.366-2.535-1.098-.567-.732-.851-1.952-.851-3.663 0-.93.116-1.775.346-2.535.23-.759.547-1.419.948-1.98.402-.547.854-.971 1.356-1.272.502-.301 1.114-.452 1.834-.452.437 0 .815.07 1.134.205.32.137.579.318.78.544.2.226.351.482.452.77.1.287.15.582.15.882 0 .63-.147 1.187-.443 1.672a4.25 4.25 0 0 1-1.196 1.263 6.698 6.698 0 0 1-1.772.872 11.31 11.31 0 0 1-2.17.483c0 1.08.212 1.837.637 2.267.426.431.986.647 1.684.647.39 0 .812-.079 1.267-.237a4.674 4.674 0 0 0 1.303-.708l-.16 1.56zm2.965-10.03H99c-.039.419-.09.989-.154 1.711a46.6 46.6 0 0 1-.307 2.529l.038.038c.14-.672.304-1.284.49-1.835.186-.551.417-1.02.693-1.406.275-.387.598-.688.97-.904.372-.215.815-.323 1.327-.323.372 0 .686.032.943.095l-.231 1.388a2.864 2.864 0 0 0-.653-.076c-.488 0-.93.146-1.328.437-.397.292-.76.773-1.086 1.445-.327.672-.613 1.557-.856 2.652-.243 1.096-.455 2.45-.634 4.059H96.75c.205-1.495.362-2.972.47-4.43.11-1.457.215-2.852.319-4.182H96l.115-1.198zm13.535 1.226a3.223 3.223 0 0 0-.42-.092 3.268 3.268 0 0 0-.474-.031c-.559 0-1.04.123-1.446.37a3 3 0 0 0-1.008 1.025 4.92 4.92 0 0 0-.59 1.55 9.183 9.183 0 0 0-.19 1.92c0 .614.063 1.142.19 1.58.126.437.302.797.523 1.076.221.28.485.483.79.606.304.123.627.185.97.185.43 0 .875-.083 1.331-.247a7.999 7.999 0 0 0 1.199-.533l-.134 1.456c-.33.193-.712.36-1.15.504-.438.143-.96.215-1.57.215-.684 0-1.262-.14-1.73-.42a3.348 3.348 0 0 1-1.132-1.099 4.791 4.791 0 0 1-.618-1.518A7.567 7.567 0 0 1 104 37.28c0-.861.102-1.676.304-2.442.203-.766.505-1.433.904-2.001.4-.568.9-1.015 1.503-1.344.602-.329 1.302-.493 2.102-.493.342 0 .71.031 1.103.093.393.06.755.153 1.084.277l-.19 2.668h-1.236l.076-1.622zM112.123 27h3.47a71.78 71.78 0 0 0-.215 2.268c-.075.916-.156 1.866-.245 2.85a76.854 76.854 0 0 1-.317 2.913 23.047 23.047 0 0 1-.428 2.455l.04.042c.178-.694.426-1.37.746-2.028.32-.66.69-1.242 1.113-1.748a6.032 6.032 0 0 1 1.356-1.228c.483-.312.976-.469 1.48-.469.693 0 1.204.22 1.531.656.326.437.49 1.128.49 2.07 0 .43-.024.92-.071 1.467a67.377 67.377 0 0 1-.175 1.727c-.068.603-.143 1.225-.224 1.862-.082.638-.156 1.256-.224 1.852H122L121.878 43h-3.143c.096-.86.194-1.693.296-2.496.102-.805.194-1.554.275-2.248.082-.694.15-1.314.204-1.862.055-.549.083-.988.083-1.321 0-.583-.072-.974-.215-1.176-.143-.2-.371-.301-.683-.301-.382 0-.745.128-1.092.385a4.51 4.51 0 0 0-.97 1.008c-.3.417-.572.877-.817 1.384a18.922 18.922 0 0 0-.653 1.509c-.19.499-.343.967-.459 1.404-.115.437-.193.787-.234 1.05L114.04 43h-1.55c.122-.888.237-1.824.346-2.81.109-.984.207-1.965.296-2.943.088-.978.17-1.935.245-2.87l.204-2.581c.06-.783.119-1.48.173-2.091.055-.61.096-1.074.123-1.394H112l.123-1.311zM125 37.715c0 1.524.46 2.285 1.379 2.285.612 0 1.18-.257 1.702-.772.521-.514.98-1.16 1.379-1.934.398-.775.731-1.614 1-2.517a15.24 15.24 0 0 0 .54-2.516 4.83 4.83 0 0 0-.735-.19 5.267 5.267 0 0 0-.92-.071c-.859 0-1.564.17-2.116.51-.55.342-.996.787-1.332 1.335a5.428 5.428 0 0 0-.702 1.835 10.74 10.74 0 0 0-.195 2.035zm8 2.787l-.13 1.293h-3.261c.043-.438.09-.897.14-1.375.052-.479.114-.955.186-1.426.072-.472.148-.92.228-1.345.08-.424.17-.806.272-1.149l-.044-.042a28.46 28.46 0 0 1-.565 1.695 9.18 9.18 0 0 1-.891 1.805 5.737 5.737 0 0 1-1.305 1.447c-.507.396-1.102.595-1.782.595-.464 0-.874-.093-1.228-.277a2.46 2.46 0 0 1-.892-.79 3.75 3.75 0 0 1-.543-1.221 6.117 6.117 0 0 1-.185-1.55c0-.697.061-1.344.185-1.938a10.09 10.09 0 0 1 .467-1.622c.189-.486.402-.91.641-1.272.24-.363.475-.653.707-.872.637-.602 1.304-.995 2-1.18a8.175 8.175 0 0 1 2.108-.278c.45 0 .867.042 1.25.123.384.083.765.205 1.141.37h.74c-.087.369-.17.906-.25 1.611-.08.705-.16 1.48-.24 2.33-.079.847-.156 1.72-.228 2.616-.072.895-.13 1.713-.174 2.452H133zm1.12-9.312h3.153c-.067.38-.127.748-.18 1.103-.054.355-.108.716-.161 1.083a65.427 65.427 0 0 1-.422 2.605l.04.019c.174-.634.419-1.25.734-1.853a7.704 7.704 0 0 1 1.094-1.597c.414-.463.86-.837 1.335-1.122.475-.285.96-.428 1.456-.428.682 0 1.185.2 1.507.599.32.399.48 1.03.48 1.891 0 .394-.023.84-.07 1.341-.047.501-.103 1.026-.17 1.577-.067.552-.14 1.12-.221 1.702-.08.583-.154 1.148-.221 1.692H144L143.88 41h-3.092c.094-.786.19-1.546.29-2.281.1-.735.19-1.42.272-2.053.08-.634.147-1.202.2-1.702.054-.5.081-.903.081-1.207 0-.533-.07-.89-.21-1.074-.142-.184-.366-.276-.674-.276a1.87 1.87 0 0 0-1.074.352 4.287 4.287 0 0 0-.954.921 8.434 8.434 0 0 0-.803 1.265c-.241.463-.456.922-.643 1.378-.187.456-.338.884-.452 1.284-.113.399-.19.718-.23.96L136.169 41h-1.526c.214-1.534.394-3.016.542-4.449.148-1.432.288-2.82.422-4.163H134l.12-1.198zm16.349.81c-.677 0-1.24.173-1.688.517-.45.346-.807.79-1.07 1.331a6.346 6.346 0 0 0-.554 1.827 13.122 13.122 0 0 0-.157 2.01c0 1.543.363 2.315 1.089 2.315.381 0 .774-.206 1.18-.62.406-.412.785-.97 1.135-1.674s.667-1.52.95-2.447c.283-.927.499-1.912.646-2.955a4.089 4.089 0 0 0-.59-.202 3.627 3.627 0 0 0-.941-.102zm-5.409 12.735a5.77 5.77 0 0 0 1.165.659c.469.206 1.045.309 1.728.309.522 0 .995-.065 1.417-.196.42-.13.78-.353 1.075-.668.374-.4.645-.876.813-1.432.167-.556.291-1.184.371-1.884.08-.7.158-1.465.231-2.296.073-.83.218-1.733.432-2.708l-.04-.042c-.16.426-.365.937-.613 1.535-.248.597-.553 1.17-.914 1.72a5.879 5.879 0 0 1-1.276 1.4 2.64 2.64 0 0 1-1.677.576c-.482 0-.88-.103-1.195-.309a2.353 2.353 0 0 1-.763-.824 3.731 3.731 0 0 1-.412-1.174c-.081-.439-.12-.885-.12-1.337 0-1.003.123-1.936.37-2.801.249-.865.61-1.613 1.086-2.245a5.145 5.145 0 0 1 1.727-1.483c.676-.356 1.443-.535 2.3-.535.47 0 .911.049 1.327.144.414.096.81.192 1.184.288H154c-.08.66-.15 1.346-.21 2.06-.061.714-.121 1.475-.182 2.286-.06.81-.127 1.674-.201 2.594-.073.92-.163 1.902-.27 2.945-.108 1.016-.276 1.884-.503 2.605-.228.72-.536 1.308-.924 1.76a3.44 3.44 0 0 1-1.457 1c-.582.212-1.275.318-2.08.318a6.42 6.42 0 0 1-.782-.051 8.019 8.019 0 0 1-1.698-.401 5.262 5.262 0 0 1-.693-.31l.06-1.503zM161 33.14c0-.27-.102-.528-.306-.773-.204-.244-.534-.367-.988-.367-.408 0-.769.106-1.08.32a2.82 2.82 0 0 0-.809.869 5.012 5.012 0 0 0-.545 1.275A8.216 8.216 0 0 0 157 36c.613-.09 1.163-.209 1.651-.357a5.048 5.048 0 0 0 1.26-.561c.351-.225.62-.499.808-.82A2.19 2.19 0 0 0 161 33.14zm1.15 8.08c-.225.15-.58.318-1.064.503-.484.184-1.051.277-1.7.277-1.123 0-1.968-.366-2.535-1.098-.568-.732-.851-1.952-.851-3.663 0-.93.115-1.775.346-2.535.23-.759.546-1.419.948-1.98.401-.547.853-.971 1.355-1.272.502-.301 1.114-.452 1.835-.452.436 0 .815.07 1.134.205.319.137.578.318.78.544.2.226.35.482.451.77.1.287.151.582.151.882 0 .63-.148 1.187-.443 1.672a4.247 4.247 0 0 1-1.197 1.263 6.699 6.699 0 0 1-1.771.872c-.68.226-1.403.387-2.171.483 0 1.08.212 1.837.638 2.267.426.431.986.647 1.683.647.39 0 .812-.079 1.268-.237a4.658 4.658 0 0 0 1.302-.708l-.16 1.56z"/></g></svg>