<svg xmlns="http://www.w3.org/2000/svg" width="1059" height="232" viewBox="0 0 1059 232">
  <g fill="#1D2737" fill-opacity=".5" fill-rule="evenodd">
    <path d="M133.162989,50.7905232 C127.013207,47.85642 112.561218,40.8145723 91.9594462,40.8145723 C43.3819658,40.8145723 34.7780719,79.8381451 34.1630937,108.586821 C33.5481154,137.341032 40.6203653,175.473302 89.1978458,175.473302 C109.793816,175.473302 124.553294,168.730401 130.703076,166.089708 L143.919307,187.503125 C137.775326,191.024049 120.248446,201 88.5828675,201 C14.7912787,201 -0.884865143,149.65873 0.0376022391,108.298946 C0.954267939,66.3468064 18.4811482,15 92.272737,15 C123.938315,15 141.151905,25.8561819 147,29.6705161 L133.162989,50.7905232 Z" style="mix-blend-mode:multiply"/>
    <polygon points="170 201 201 201 201 15 170 15" style="mix-blend-mode:multiply"/>
    <path d="M316.847376,40.5614846 C268.929227,40.5614846 266.487245,78.7650917 265.87099,108.146937 C265.266253,137.240453 270.150219,175.732389 316.847376,175.732389 C363.239286,175.732389 368.428499,137.240453 367.818003,108.440811 C367.207508,78.7650917 364.460277,40.5614846 316.847376,40.5614846 M317.452112,201 C245.119897,201 232,145.463378 232,108.146937 C232,69.9488746 243.898906,15 316.847376,15 C389.484839,15 402,69.9488746 402,108.146937 C402,145.463378 389.484839,201 317.452112,201" style="mix-blend-mode:multiply"/>
    <polygon points="435.479 232 418 226.943 485.521 0 503 4.754" style="mix-blend-mode:multiply"/>
    <path d="M651.162988,50.7905232 C645.013205,47.85642 630.561215,40.8145723 609.959442,40.8145723 C561.381957,40.8145723 552.778063,79.8381451 552.168886,108.586821 C551.548106,137.341032 558.620356,175.473302 607.197841,175.473302 C627.799614,175.473302 642.559094,168.730401 648.703075,166.089708 L661.925108,187.503125 C655.775325,191.024049 638.248444,201 606.582863,201 C532.797069,201 517.115123,149.65873 518.03759,108.298946 C518.960057,66.3468064 536.481137,15 610.272732,15 C641.938314,15 659.157706,25.8561819 665,29.6705161 L651.162988,50.7905232 Z" style="mix-blend-mode:multiply"/>
    <polygon points="688 201 719 201 719 15 688 15" style="mix-blend-mode:multiply"/>
    <path d="M854.124752 50.7905232C847.182343 47.85642 829.077404 40.2277517 811.872303 40.2277517 780.480538 40.526698 775.354887 70.4490148 798.591171 81.0117864L834.203055 97.4427645C900.301173 128.245312 877.97042 201 811.872303 201 775.656731 201 753.018439 186.622894 750 184.867968L761.771912 164.329246C765.092195 166.089708 788.03233 177.53271 809.759395 176.359069 838.42887 174.598607 855.633972 140.861956 819.720244 124.430978L780.782382 106.532948C731.291374 83.6524793 742.755747 15 812.174147 15 839.334402 15 859.250403 27.6111078 864.985437 31.1375677L854.124752 50.7905232zM973.841617 40.5614846C925.929227 40.5614846 923.487245 78.7650917 922.87099 108.146937 922.266253 137.240453 927.150219 175.732389 973.841617 175.732389 1020.23929 175.732389 1025.42274 137.240453 1024.818 108.440811 1024.20175 78.7650917 1021.46028 40.5614846 973.841617 40.5614846M974.452112 201C902.119897 201 889 145.463378 889 108.146937 889 69.9488746 900.898906 15 973.841617 15 1046.48484 15 1059 69.9488746 1059 108.146937 1059 145.463378 1046.48484 201 974.452112 201" style="mix-blend-mode:multiply"/>
  </g>
</svg>
