<svg xmlns="http://www.w3.org/2000/svg" width="1415" height="310"><g fill="#1D2737" fill-opacity=".5" fill-rule="evenodd" opacity=".177" style="mix-blend-mode:multiply"><path d="M178.457 68.72c-8.242-3.911-27.61-13.3-55.219-13.3-65.1 0-76.63 52.03-77.455 90.362-.824 38.34 8.654 89.182 73.754 89.182 27.602 0 47.381-8.99 55.623-12.511l17.711 28.551C184.638 255.7 161.15 269 118.713 269 19.823 269-1.186 200.545.05 145.399 1.28 89.462 24.767 21 123.658 21c42.436 0 65.505 14.475 73.342 19.56l-18.543 28.16zM227 269h41V21h-41zM423.296 55.082c-63.985 0-67.245 50.938-68.068 90.114-.808 38.791 5.714 90.114 68.068 90.114 61.947 0 68.876-51.323 68.061-89.722-.815-39.568-4.484-90.506-68.06-90.506M424.103 269C327.519 269 310 194.951 310 145.196 310 94.266 325.889 21 423.296 21 520.29 21 537 94.265 537 145.196 537 194.95 520.289 269 424.104 269M580.237 310L557 303.243 646.763 0 670 6.352zM870.457 68.72c-8.242-3.911-27.61-13.3-55.219-13.3-65.1 0-76.63 52.03-77.447 90.362-.832 38.34 8.646 89.182 73.746 89.182 27.61 0 47.39-8.99 55.623-12.511l17.72 28.551C876.637 255.7 853.15 269 810.712 269c-98.883 0-119.899-68.455-118.663-123.601C693.287 89.462 716.767 21 815.658 21c42.436 0 65.513 14.475 73.342 19.56l-18.543 28.16zM919 269h41V21h-41zM1140.553 68.72c-9.238-3.911-33.329-14.083-56.223-14.083-41.771.399-48.592 40.295-17.672 54.379l47.386 21.908c87.954 41.07 58.24 138.076-29.714 138.076-48.19 0-78.314-19.17-82.33-21.51l15.664-27.384c4.418 2.347 34.944 17.604 63.855 16.04 38.148-2.348 61.042-47.33 13.254-69.238l-51.813-23.864C977.105 112.537 992.36 21 1084.732 21c36.14 0 62.642 16.815 70.273 21.517l-14.452 26.204zm160.736-13.638c-63.978 0-67.238 50.938-68.061 90.114-.808 38.791 5.714 90.114 68.06 90.114 61.955 0 68.876-51.323 68.069-89.722-.823-39.568-4.484-90.506-68.068-90.506m.815 213.918C1205.519 269 1188 194.951 1188 145.196 1188 94.266 1203.889 21 1301.289 21c97 0 113.711 73.265 113.711 124.196C1415 194.95 1398.289 269 1302.104 269" style="mix-blend-mode:multiply"/></g></svg>