<svg xmlns="http://www.w3.org/2000/svg" width="1440" height="325"><g fill="#1D2737" fill-opacity=".5" fill-rule="evenodd" opacity=".177" style="mix-blend-mode:multiply"><path d="M164.458 71.696c-8.61-4.101-28.847-13.944-57.694-13.944-68.02 0-80.067 54.549-80.928 94.735-.861 40.194 9.042 93.497 77.061 93.497 28.84 0 49.506-9.425 58.117-13.117L179.52 262.8c-8.603 4.922-33.145 18.867-77.484 18.867-103.325 0-125.275-71.768-123.983-129.582 1.283-58.643 25.825-130.418 129.15-130.418 44.339 0 68.442 15.175 76.63 20.507l-19.375 29.522zM216.333 281.667h43.334v-260h-43.334zM421.953 57.398c-67.18 0-70.603 53.403-71.467 94.474-.848 40.668 6 94.474 71.467 94.474 65.04 0 72.314-53.806 71.459-94.063-.856-41.482-4.708-94.885-71.46-94.885m.849 224.269C321.394 281.667 303 204.035 303 151.872c0-53.395 16.682-130.205 118.953-130.205 101.835 0 119.38 76.81 119.38 130.205 0 52.163-17.545 129.795-118.532 129.795M587.505 325L563 317.916 657.662 0l24.505 6.66zM890.292 71.696c-8.611-4.101-28.847-13.944-57.695-13.944-68.02 0-80.066 54.549-80.92 94.735-.869 40.194 9.034 93.497 77.054 93.497 28.847 0 49.513-9.425 58.116-13.117l18.514 29.933c-8.611 4.922-33.153 18.867-77.492 18.867-103.316 0-125.275-71.768-123.983-129.582 1.292-58.643 25.825-130.418 129.15-130.418 44.34 0 68.45 15.175 76.63 20.507l-19.374 29.522zM942.167 281.667H985.5v-260h-43.333zM1174.384 71.696c-9.704-4.101-35.012-14.765-59.063-14.765-43.88.418-51.045 42.245-18.565 57.01l49.78 22.968c92.396 43.058 61.18 144.758-31.215 144.758-50.623 0-82.268-20.097-86.488-22.55l16.456-28.71c4.64 2.46 36.708 18.456 67.079 16.815 40.076-2.46 64.126-49.62 13.924-72.587l-54.43-25.02c-69.18-31.983-53.155-127.948 43.881-127.948 37.966 0 65.806 17.628 73.823 22.558l-15.182 27.471zm168.394-14.298c-67.171 0-70.595 53.403-71.459 94.474-.848 40.668 6 94.474 71.459 94.474 65.048 0 72.315-53.806 71.467-94.063-.864-41.482-4.708-94.885-71.467-94.885m.856 224.269c-101.407 0-119.8-77.632-119.8-129.795 0-53.395 16.681-130.205 118.944-130.205 101.843 0 119.389 76.81 119.389 130.205 0 52.163-17.546 129.795-118.533 129.795" style="mix-blend-mode:multiply"/></g></svg>