<svg version="1.1" id="Layer_1" xmlns="http://www.w3.org/2000/svg" xmlns:xlink="http://www.w3.org/1999/xlink" x="0" y="0" viewBox="0 0 301.6 85.9" xml:space="preserve" enable-background="new 0 0 301.6 85.9"><style type="text/css">.st0{fill:#fff}</style><g><path class="st0" d="M77.7,6.7c4.9,1.1,8.8,5.9,8.8,10.7s-3.9,7.9-8.8,6.9c-4.9-1.1-8.8-5.9-8.8-10.7C69,8.8,72.9,5.7,77.7,6.7z M47.7,0c4.9,0,8.8,3.9,8.8,8.8c0,4.9-3.9,8.8-8.8,8.8c-4.9,0-8.8-3.9-8.8-8.8C38.9,3.9,42.8,0,47.7,0z M17.4,6.7 c4.9-1.1,8.8,2,8.8,6.9c0,4.9-3.9,9.7-8.8,10.7c-4.9,1.1-8.8-2-8.8-6.9S12.5,7.8,17.4,6.7z M88.5,73.4l0-5.4c0-4.9-4-7.4-8.8-5.6 l-1.6,0.6l-1.6,0.6c-4.9,1.8-8.8,7.2-8.8,12.1l0,6.7c-3.1,0.7-6.3,1.2-9.6,1.6l0-9.3c0-4.9-4-8.8-8.8-8.8h-3.2 c-4.9,0-8.8,4-8.8,8.8l0,9.1c-3.4-0.4-6.6-1-9.7-1.8l0-6.2c0-4.9-4-10.3-8.8-12.1l-1.6-0.6l-1.6-0.6c-4.9-1.8-8.8,0.7-8.8,5.6 l0,3.8C2.5,68,0,63.6,0,58.8c0-4.9,2.6-9.4,7-13.3l0-6.3c0-4.9,4-10.3,8.8-12.1l1.6-0.6l1.6-0.6c4.9-1.8,8.8,0.7,8.8,5.6l0,4.1 c3-0.7,6.1-1.3,9.4-1.7l0-5.1c0-4.9,4-8.8,8.8-8.8h3.2c4.9,0,8.8,4,8.8,8.8l0,4.9c3.2,0.3,6.2,0.8,9.1,1.5l0-3.7 c0-4.9,4-7.4,8.8-5.6l1.6,0.6l1.6,0.6c4.9,1.8,8.8,7.2,8.8,12.1l0,4.7c5.7,4.2,9.1,9.4,9.1,15C97.2,64.2,94,69.3,88.5,73.4z M47.7,45.9c-4.9,0-8.8,3.9-8.8,8.8c0,4.9,3.9,8.8,8.8,8.8c4.9,0,8.8-3.9,8.8-8.8C56.5,49.9,52.5,45.9,47.7,45.9z M78,43.4 c-4.9,1.1-8.8,5.9-8.8,10.7c0,4.9,3.9,7.9,8.8,6.9c4.9-1.1,8.8-5.9,8.8-10.7C86.8,45.4,82.9,42.3,78,43.4z M17.2,43.4 c-4.9-1.1-8.8,2-8.8,6.9c0,4.9,3.9,9.7,8.8,10.7c4.9,1.1,8.8-2,8.8-6.9C26,49.2,22.1,44.4,17.2,43.4z"/><path class="st0" d="M138.6,18.2c-1.1-0.5-3.6-1.8-7.1-1.8c-8.4,0-9.9,7-10,12.2c-0.1,5.2,1.1,12.1,9.5,12.1c3.6,0,6.1-1.2,7.2-1.7 l2.3,3.9c-1.1,0.6-4.1,2.4-9.5,2.4c-12.7,0-15.4-9.3-15.3-16.7c0.2-7.6,3.2-16.9,15.9-16.9c5.5,0,8.4,2,9.4,2.6L138.6,18.2z"/><path class="st0" d="M145.2,44.7V12.2h5.6v32.5H145.2z"/><path class="st0" d="M171.5,45.3c-12.6,0-14.8-10-14.8-16.7c0-6.9,2.1-16.8,14.7-16.8c12.6,0,14.8,9.9,14.8,16.8 C186.2,35.3,184,45.3,171.5,45.3z M171.4,16.4c-8.3,0-8.7,6.9-8.9,12.2c-0.1,5.2,0.7,12.2,8.9,12.2c8.1,0,9-6.9,8.8-12.1 C180.1,23.3,179.7,16.4,171.4,16.4z"/><path class="st0" d="M192,50.4l-3.1-0.9l11.9-40.4l3.1,0.8L192,50.4z"/><path class="st0" d="M230.1,18.2c-1.1-0.5-3.6-1.8-7.1-1.8c-8.4,0-9.9,7-10,12.2c-0.1,5.2,1.1,12.1,9.5,12.1c3.6,0,6.1-1.2,7.2-1.7 l2.3,3.9c-1.1,0.6-4.1,2.4-9.5,2.4c-12.7,0-15.4-9.3-15.3-16.7c0.2-7.6,3.2-16.9,15.9-16.9c5.5,0,8.4,2,9.4,2.6L230.1,18.2z"/><path class="st0" d="M236.8,44.7V12.2h5.6v32.5H236.8z"/><path class="st0" d="M266,18.2c-1.2-0.5-4.4-1.9-7.4-1.9c-5.5,0.1-6.4,5.5-2.3,7.4l6.3,3c11.6,5.6,7.7,18.7-3.9,18.7 c-6.4,0-10.3-2.6-10.9-2.9l2.1-3.7c0.6,0.3,4.6,2.4,8.4,2.2c5-0.3,8.1-6.4,1.7-9.4l-6.8-3.2c-8.7-4.1-6.7-16.5,5.5-16.5 c4.8,0,8.3,2.3,9.3,2.9L266,18.2z"/><path class="st0" d="M286.9,45.3c-12.6,0-14.8-10-14.8-16.7c0-6.9,2.1-16.8,14.7-16.8c12.6,0,14.8,9.9,14.8,16.8 C301.6,35.3,299.4,45.3,286.9,45.3z M286.8,16.4c-8.3,0-8.7,6.9-8.8,12.2c-0.1,5.2,0.7,12.2,8.8,12.2c8.1,0,9-6.9,8.9-12.1 C295.6,23.3,295.1,16.4,286.8,16.4z"/><path class="st0" d="M115.5,74.3h2.3l1.9-21.1h-2.9l0.2-2.3h8.2l-0.2,2.3h-2.3l-1.9,21.1h2.9l-0.2,2.3h-8.2L115.5,74.3z"/><path class="st0" d="M126.9,57.6h5.8c-0.1,0.7-0.2,1.4-0.3,2.1c-0.1,0.7-0.2,1.4-0.3,2.1c-0.1,0.7-0.2,1.5-0.3,2.3 c-0.1,0.8-0.3,1.7-0.4,2.7l0.1,0c0.3-1.2,0.8-2.4,1.3-3.6c0.6-1.2,1.2-2.2,2-3.1c0.8-0.9,1.6-1.6,2.4-2.2c0.9-0.6,1.8-0.8,2.7-0.8 c1.3,0,2.2,0.4,2.8,1.2c0.6,0.8,0.9,2,0.9,3.7c0,0.8,0,1.6-0.1,2.6c-0.1,1-0.2,2-0.3,3.1c-0.1,1.1-0.3,2.2-0.4,3.3 c-0.1,1.1-0.3,2.2-0.4,3.3h2.8l-0.2,2.3h-5.7c0.2-1.5,0.3-3,0.5-4.4c0.2-1.4,0.3-2.7,0.5-4c0.1-1.2,0.3-2.3,0.4-3.3 c0.1-1,0.1-1.7,0.1-2.3c0-1-0.1-1.7-0.4-2.1c-0.3-0.4-0.7-0.5-1.2-0.5c-0.7,0-1.3,0.2-2,0.7c-0.6,0.5-1.2,1-1.7,1.8 c-0.5,0.7-1,1.6-1.5,2.4c-0.4,0.9-0.8,1.8-1.2,2.7c-0.3,0.9-0.6,1.7-0.8,2.5c-0.2,0.8-0.3,1.4-0.4,1.9l-0.8,4.7h-2.8 c0.4-3,0.7-5.8,1-8.6c0.3-2.8,0.5-5.5,0.8-8.1h-2.9L126.9,57.6z"/><path class="st0" d="M150.1,60H147l0.2-2.3h3.1l0.4-4.7l2.8-0.1l-0.4,4.9h5.4l-0.2,2.3h-5.4l-1,11.6c-0.1,0.9,0,1.7,0.3,2.2 c0.3,0.5,0.9,0.8,1.6,0.8c0.8,0,1.5-0.1,2.1-0.3c0.6-0.2,1.2-0.5,1.8-0.8l-0.2,2.6c-0.5,0.2-1.1,0.5-1.8,0.7 c-0.7,0.2-1.6,0.3-2.5,0.3c-1.5,0-2.6-0.4-3.4-1.3c-0.7-0.9-1-2.4-0.8-4.5L150.1,60z"/><path class="st0" d="M172,75.6c-0.5,0.3-1.2,0.6-2.2,0.9c-1,0.3-2.2,0.5-3.5,0.5c-2.3,0-4.1-0.7-5.3-2c-1.2-1.3-1.8-3.5-1.8-6.6 c0-1.7,0.2-3.2,0.7-4.5c0.5-1.4,1.1-2.5,2-3.6c0.8-1,1.8-1.7,2.8-2.3c1-0.5,2.3-0.8,3.8-0.8c0.9,0,1.7,0.1,2.4,0.4 c0.7,0.2,1.2,0.6,1.6,1c0.4,0.4,0.7,0.9,0.9,1.4c0.2,0.5,0.3,1,0.3,1.6c0,1.1-0.3,2.1-0.9,3c-0.6,0.9-1.4,1.6-2.5,2.3 c-1,0.6-2.3,1.2-3.7,1.6c-1.4,0.4-2.9,0.7-4.5,0.9c0,1.9,0.4,3.3,1.3,4.1c0.9,0.8,2,1.2,3.5,1.2c0.8,0,1.7-0.1,2.6-0.4 c0.9-0.3,1.8-0.7,2.7-1.3L172,75.6z M170.8,61.8c0-0.5-0.2-1-0.7-1.5c-0.4-0.5-1.2-0.7-2.1-0.7c-0.9,0-1.7,0.2-2.3,0.6 c-0.7,0.4-1.3,1-1.7,1.7c-0.5,0.7-0.9,1.5-1.2,2.4c-0.3,0.9-0.5,1.9-0.6,2.9c1.3-0.2,2.5-0.4,3.6-0.7c1.1-0.3,2-0.6,2.7-1.1 c0.8-0.4,1.3-1,1.7-1.6C170.6,63.3,170.8,62.6,170.8,61.8z"/><path class="st0" d="M175.9,57.6h5.5c-0.1,0.8-0.2,1.9-0.3,3.3c-0.1,1.4-0.3,3-0.6,4.9l0.1,0.1c0.3-1.3,0.6-2.5,0.9-3.6 c0.4-1.1,0.8-2,1.3-2.7c0.5-0.7,1.1-1.3,1.9-1.7c0.7-0.4,1.6-0.6,2.5-0.6c0.7,0,1.3,0.1,1.8,0.2l-0.4,2.7c-0.2,0-0.4-0.1-0.6-0.1 c-0.2,0-0.4,0-0.6,0c-0.9,0-1.8,0.3-2.5,0.8c-0.8,0.6-1.5,1.5-2.1,2.8c-0.6,1.3-1.2,3-1.6,5.1c-0.5,2.1-0.9,4.7-1.2,7.9h-2.8 c0.4-2.9,0.7-5.8,0.9-8.6c0.2-2.8,0.4-5.5,0.6-8.1h-2.9L175.9,57.6z"/><path class="st0" d="M199.9,59.8c-0.3-0.1-0.5-0.1-0.8-0.2s-0.6-0.1-0.9-0.1c-1.1,0-2,0.2-2.8,0.7c-0.8,0.4-1.4,1.1-2,1.8 c-0.5,0.8-0.9,1.7-1.1,2.8c-0.2,1.1-0.4,2.2-0.4,3.4c0,1.1,0.1,2,0.4,2.8c0.2,0.8,0.6,1.4,1,1.9c0.4,0.5,0.9,0.9,1.5,1.1 c0.6,0.2,1.2,0.3,1.9,0.3c0.8,0,1.7-0.1,2.6-0.4c0.9-0.3,1.7-0.6,2.3-1l-0.3,2.6c-0.6,0.3-1.4,0.6-2.2,0.9c-0.8,0.3-1.9,0.4-3,0.4 c-1.3,0-2.4-0.3-3.3-0.8c-0.9-0.5-1.6-1.2-2.2-2c-0.6-0.8-1-1.7-1.2-2.7c-0.2-1-0.4-2-0.4-3c0-1.5,0.2-3,0.6-4.4 c0.4-1.4,1-2.6,1.7-3.6c0.8-1,1.7-1.8,2.9-2.4c1.2-0.6,2.5-0.9,4.1-0.9c0.7,0,1.4,0.1,2.1,0.2c0.8,0.1,1.5,0.3,2.1,0.5l-0.4,4.8 h-2.4L199.9,59.8z"/><path class="st0" d="M203.8,48.3h6.3c-0.1,1.1-0.3,2.4-0.4,4c-0.1,1.6-0.3,3.3-0.4,5c-0.2,1.7-0.3,3.5-0.6,5.2 c-0.2,1.7-0.5,3.1-0.8,4.3l0.1,0.1c0.3-1.2,0.8-2.4,1.3-3.6c0.6-1.2,1.2-2.2,2-3.1c0.8-0.9,1.6-1.6,2.4-2.2 c0.9-0.6,1.8-0.8,2.7-0.8c1.3,0,2.2,0.4,2.8,1.2c0.6,0.8,0.9,2,0.9,3.7c0,0.8,0,1.6-0.1,2.6c-0.1,1-0.2,2-0.3,3.1 c-0.1,1.1-0.3,2.2-0.4,3.3c-0.1,1.1-0.3,2.2-0.4,3.3h2.8l-0.2,2.3h-5.7c0.2-1.5,0.3-3,0.5-4.4c0.2-1.4,0.3-2.7,0.5-4 c0.1-1.2,0.3-2.3,0.4-3.3c0.1-1,0.1-1.7,0.1-2.3c0-1-0.1-1.7-0.4-2.1c-0.3-0.4-0.7-0.5-1.2-0.5c-0.7,0-1.3,0.2-2,0.7 c-0.6,0.5-1.2,1-1.7,1.8c-0.5,0.7-1,1.6-1.5,2.4c-0.4,0.9-0.8,1.8-1.2,2.7c-0.3,0.9-0.6,1.7-0.8,2.5c-0.2,0.8-0.3,1.4-0.4,1.9 l-0.8,4.7h-2.8c0.2-1.6,0.4-3.2,0.6-5c0.2-1.7,0.4-3.5,0.5-5.2c0.2-1.7,0.3-3.4,0.4-5.1c0.1-1.7,0.3-3.2,0.4-4.6 c0.1-1.4,0.2-2.6,0.3-3.7c0.1-1.1,0.2-1.9,0.2-2.5h-3.4L203.8,48.3z"/><path class="st0" d="M241.2,74.3l-0.2,2.3h-5.5c0.1-0.8,0.2-1.6,0.2-2.5c0.1-0.9,0.2-1.7,0.3-2.6c0.1-0.8,0.3-1.7,0.4-2.4 c0.1-0.8,0.3-1.4,0.5-2.1l-0.1-0.1c-0.2,0.9-0.6,1.9-1,3c-0.4,1.1-0.9,2.2-1.5,3.2c-0.6,1-1.4,1.9-2.2,2.6c-0.9,0.7-1.9,1.1-3,1.1 c-0.8,0-1.5-0.2-2.1-0.5c-0.6-0.3-1.1-0.8-1.5-1.4c-0.4-0.6-0.7-1.3-0.9-2.2c-0.2-0.8-0.3-1.8-0.3-2.8c0-1.3,0.1-2.4,0.3-3.5 c0.2-1.1,0.5-2,0.8-2.9c0.3-0.9,0.7-1.6,1.1-2.3c0.4-0.7,0.8-1.2,1.2-1.6c1.1-1.1,2.2-1.8,3.4-2.1c1.2-0.3,2.4-0.5,3.6-0.5 c0.8,0,1.5,0.1,2.1,0.2c0.7,0.1,1.3,0.4,1.9,0.7h1.3c-0.1,0.7-0.3,1.6-0.4,2.9c-0.1,1.3-0.3,2.7-0.4,4.2c-0.1,1.5-0.3,3.1-0.4,4.7 c-0.1,1.6-0.2,3.1-0.3,4.4H241.2z M227.2,70.1c0,2.8,0.7,4.2,2.2,4.2c1,0,1.9-0.5,2.7-1.4c0.8-0.9,1.6-2.1,2.2-3.6 c0.6-1.4,1.2-3,1.6-4.6c0.4-1.7,0.7-3.2,0.9-4.6c-0.4-0.1-0.8-0.3-1.2-0.3c-0.4-0.1-0.9-0.1-1.5-0.1c-1.4,0-2.5,0.3-3.4,0.9 c-0.9,0.6-1.6,1.4-2.1,2.4c-0.5,1-0.9,2.1-1.1,3.4C227.3,67.6,227.2,68.8,227.2,70.1z"/><path class="st0" d="M243.6,57.6h5.8c-0.1,0.7-0.2,1.4-0.3,2.1c-0.1,0.7-0.2,1.4-0.3,2.1c-0.1,0.7-0.2,1.5-0.3,2.3 c-0.1,0.8-0.3,1.7-0.4,2.7l0.1,0c0.3-1.2,0.8-2.4,1.3-3.6c0.6-1.2,1.2-2.2,2-3.1c0.8-0.9,1.6-1.6,2.4-2.2c0.9-0.6,1.8-0.8,2.7-0.8 c1.3,0,2.2,0.4,2.8,1.2c0.6,0.8,0.9,2,0.9,3.7c0,0.8,0,1.6-0.1,2.6c-0.1,1-0.2,2-0.3,3.1c-0.1,1.1-0.3,2.2-0.4,3.3 c-0.1,1.1-0.3,2.2-0.4,3.3h2.8l-0.2,2.3h-5.7c0.2-1.5,0.3-3,0.5-4.4c0.2-1.4,0.3-2.7,0.5-4s0.3-2.3,0.4-3.3c0.1-1,0.1-1.7,0.1-2.3 c0-1-0.1-1.7-0.4-2.1c-0.3-0.4-0.7-0.5-1.2-0.5c-0.7,0-1.3,0.2-2,0.7s-1.2,1-1.7,1.8c-0.5,0.7-1,1.6-1.5,2.4 c-0.4,0.9-0.8,1.8-1.2,2.7c-0.3,0.9-0.6,1.7-0.8,2.5c-0.2,0.8-0.3,1.4-0.4,1.9l-0.8,4.7h-2.8c0.4-3,0.7-5.8,1-8.6 c0.3-2.8,0.5-5.5,0.8-8.1h-2.9L243.6,57.6z"/><path class="st0" d="M263.9,81.8c0.6,0.4,1.3,0.8,2.1,1.2c0.9,0.4,1.9,0.6,3.2,0.6c1,0,1.8-0.1,2.6-0.3c0.8-0.2,1.4-0.6,2-1.2 c0.7-0.7,1.2-1.6,1.5-2.6c0.3-1,0.5-2.1,0.7-3.4c0.1-1.3,0.3-2.6,0.4-4.1c0.1-1.5,0.4-3.1,0.8-4.8l-0.1-0.1 c-0.3,0.8-0.7,1.7-1.1,2.7c-0.5,1.1-1,2.1-1.7,3.1c-0.7,1-1.4,1.8-2.3,2.5c-0.9,0.7-1.9,1-3.1,1c-0.9,0-1.6-0.2-2.2-0.6 c-0.6-0.4-1-0.9-1.4-1.5c-0.4-0.6-0.6-1.3-0.8-2.1c-0.1-0.8-0.2-1.6-0.2-2.4c0-1.8,0.2-3.5,0.7-5c0.5-1.5,1.1-2.9,2-4 c0.9-1.1,1.9-2,3.2-2.7c1.2-0.6,2.6-1,4.2-1c0.9,0,1.7,0.1,2.4,0.3c0.8,0.2,1.5,0.3,2.2,0.5h1.3c-0.1,1.2-0.3,2.4-0.4,3.7 c-0.1,1.3-0.2,2.6-0.3,4.1c-0.1,1.4-0.2,3-0.4,4.6c-0.1,1.6-0.3,3.4-0.5,5.3c-0.2,1.8-0.5,3.4-0.9,4.7c-0.4,1.3-1,2.3-1.7,3.1 c-0.7,0.8-1.6,1.4-2.7,1.8c-1.1,0.4-2.3,0.6-3.8,0.6c-0.4,0-0.9,0-1.4-0.1c-0.5-0.1-1-0.2-1.6-0.3c-0.5-0.1-1-0.3-1.5-0.4 c-0.5-0.2-0.9-0.4-1.3-0.6L263.9,81.8z M274.1,59.6c-1.4,0-2.5,0.3-3.4,0.9s-1.6,1.4-2.1,2.4s-0.9,2.1-1.1,3.3 c-0.2,1.2-0.3,2.4-0.3,3.6c0,2.8,0.7,4.2,2.2,4.2c0.8,0,1.5-0.4,2.4-1.1c0.8-0.7,1.6-1.8,2.3-3c0.7-1.3,1.3-2.8,1.9-4.4 c0.6-1.7,1-3.5,1.3-5.4c-0.3-0.1-0.7-0.2-1.2-0.4C275.5,59.6,274.9,59.6,274.1,59.6z"/><path class="st0" d="M296.3,75.6c-0.5,0.3-1.2,0.6-2.2,0.9c-1,0.3-2.2,0.5-3.5,0.5c-2.3,0-4.1-0.7-5.3-2c-1.2-1.3-1.8-3.5-1.8-6.6 c0-1.7,0.2-3.2,0.7-4.5c0.5-1.4,1.1-2.5,2-3.6c0.8-1,1.8-1.7,2.8-2.3c1-0.5,2.3-0.8,3.8-0.8c0.9,0,1.7,0.1,2.4,0.4 c0.7,0.2,1.2,0.6,1.6,1c0.4,0.4,0.7,0.9,0.9,1.4c0.2,0.5,0.3,1,0.3,1.6c0,1.1-0.3,2.1-0.9,3c-0.6,0.9-1.4,1.6-2.5,2.3 c-1,0.6-2.3,1.2-3.7,1.6c-1.4,0.4-2.9,0.7-4.5,0.9c0,1.9,0.4,3.3,1.3,4.1c0.9,0.8,2,1.2,3.5,1.2c0.8,0,1.7-0.1,2.6-0.4 c0.9-0.3,1.8-0.7,2.7-1.3L296.3,75.6z M295.1,61.8c0-0.5-0.2-1-0.7-1.5c-0.4-0.5-1.2-0.7-2.1-0.7c-0.9,0-1.7,0.2-2.3,0.6 c-0.7,0.4-1.3,1-1.7,1.7c-0.5,0.7-0.9,1.5-1.2,2.4c-0.3,0.9-0.5,1.9-0.6,2.9c1.3-0.2,2.5-0.4,3.6-0.7c1.1-0.3,2-0.6,2.7-1.1 c0.8-0.4,1.3-1,1.7-1.6C294.9,63.3,295.1,62.6,295.1,61.8z"/></g></svg>