
<svg width="1440px" height="345px" viewBox="0 0 1440 345" version="1.1" xmlns="http://www.w3.org/2000/svg" xmlns:xlink="http://www.w3.org/1999/xlink">
    <!-- Generator: Sketch 48.2 (47327) - http://www.bohemiancoding.com/sketch -->
    <desc>Created with Sketch.</desc>
    <defs>
        <rect id="path-1" x="0" y="0" width="1440" height="345"></rect>
        <linearGradient x1="-0.788445724%" y1="97.0850202%" x2="89.0606018%" y2="18.4641466%" id="linearGradient-3">
            <stop stop-color="#455DAA" offset="0%"></stop>
            <stop stop-color="#2AABE0" offset="99.91%"></stop>
        </linearGradient>
    </defs>
    <g id="Page-1" stroke="none" stroke-width="1" fill="none" fill-rule="evenodd">
        <g id="Form">
            <g id="Hero_Conference-Copy">
                <mask id="mask-2" fill="white">
                    <use xlink:href="#path-1"></use>
                </mask>
                <use id="Mask" fill="#D8D8D8" xlink:href="#path-1"></use>
                <g id="Hero_Conference" mask="url(#mask-2)" fill="url(#linearGradient-3)">
                    <g transform="translate(0.000000, -12.000000)" id="Gradient-Copy">
                        <rect x="0" y="0" width="1440" height="364"></rect>
                    </g>
                </g>
                <g id="CIO-Text-Logo" opacity="0.147475091" mask="url(#mask-2)" fill="#1D2737" fill-opacity="0.5">
                    <g transform="translate(-29.000000, 20.000000)">
                        <path d="M186.458381,71.6964303 C177.847291,67.5949957 157.611229,57.7515527 128.764077,57.7515527 C60.7445893,57.7515527 48.6971869,112.300633 47.8360779,152.486954 C46.9749689,192.681013 56.8777225,245.984186 124.89721,245.984186 C153.736238,245.984186 174.402855,236.558625 183.013945,232.867333 L201.519665,262.800067 C192.916698,267.721789 168.375092,281.666667 124.036101,281.666667 C20.7111442,281.666667 -1.23901185,209.8993 0.0526516613,152.084549 C1.3361915,93.4417723 25.8777982,21.6666667 129.202755,21.6666667 C173.541746,21.6666667 197.644674,36.8419747 205.833333,42.1738397 L186.458381,71.6964303 Z" id="Fill-4" style="mix-blend-mode: multiply;"></path>
                        <polygon id="Fill-6" style="mix-blend-mode: multiply;" points="238.333333 281.666667 281.666667 281.666667 281.666667 21.6666667 238.333333 21.6666667"></polygon>
                        <path d="M443.952694,57.3977741 C376.773328,57.3977741 373.349765,110.800666 372.485799,151.872062 C371.637983,192.540418 378.48511,246.346351 443.952694,246.346351 C508.992332,246.346351 516.267405,192.540418 515.411514,152.282854 C514.555623,110.800666 510.704114,57.3977741 443.952694,57.3977741 M444.80051,281.666667 C343.393581,281.666667 325,204.034829 325,151.872062 C325,98.4769215 341.681799,21.6666667 443.952694,21.6666667 C545.787569,21.6666667 563.333333,98.4769215 563.333333,151.872062 C563.333333,204.034829 545.787569,281.666667 444.80051,281.666667" id="Fill-8" style="mix-blend-mode: multiply;"></path>
                        <polygon id="Fill-9" style="mix-blend-mode: multiply;" points="609.504762 325 585 317.91581 679.661904 0 704.166667 6.6596105"></polygon>
                        <path d="M912.291712,71.6964303 C903.680622,67.5949957 883.444558,57.7515527 854.597404,57.7515527 C786.577911,57.7515527 774.530507,112.300633 773.677522,152.486954 C772.808289,192.681013 782.711043,245.984186 850.730537,245.984186 C879.577691,245.984186 900.244309,236.558625 908.847276,232.867333 L927.361121,262.800067 C918.75003,267.721789 894.208422,281.666667 849.869428,281.666667 C746.552586,281.666667 724.594304,209.8993 725.885968,152.084549 C727.177631,93.4417723 751.711117,21.6666667 855.036082,21.6666667 C899.375076,21.6666667 923.48613,36.8419747 931.666667,42.1738397 L912.291712,71.6964303 Z" id="Fill-10" style="mix-blend-mode: multiply;"></path>
                        <polygon id="Fill-11" style="mix-blend-mode: multiply;" points="964.166667 281.666667 1007.5 281.666667 1007.5 21.6666667 964.166667 21.6666667"></polygon>
                        <path d="M1196.38406,71.6964303 C1186.67962,67.5949957 1161.37164,56.9312657 1137.3215,56.9312657 C1093.44054,57.3491478 1086.27565,99.1760422 1118.75648,113.941207 L1168.53653,136.909241 C1260.93175,179.966565 1229.71672,281.666667 1137.3215,281.666667 C1086.69758,281.666667 1055.05266,261.569637 1050.83333,259.116515 L1067.28869,230.406473 C1071.92995,232.867333 1103.99681,248.862928 1134.36797,247.222355 C1174.44358,244.761494 1198.49372,197.602734 1148.29174,174.6347 L1093.86247,149.615949 C1024.68149,117.632498 1040.70696,21.6666667 1137.74343,21.6666667 C1175.70938,21.6666667 1203.54895,39.2950969 1211.56566,44.224557 L1196.38406,71.6964303 Z" id="Fill-12" style="mix-blend-mode: multiply;"></path>
                        <path d="M1364.77795,57.3977741 C1297.60666,57.3977741 1294.1831,110.800666 1293.31913,151.872062 C1292.47132,192.540418 1299.31844,246.346351 1364.77795,246.346351 C1429.82567,246.346351 1437.09266,192.540418 1436.24485,152.282854 C1435.38088,110.800666 1431.53745,57.3977741 1364.77795,57.3977741 M1365.63384,281.666667 C1264.22691,281.666667 1245.83333,204.034829 1245.83333,151.872062 C1245.83333,98.4769215 1262.51513,21.6666667 1364.77795,21.6666667 C1466.6209,21.6666667 1484.16667,98.4769215 1484.16667,151.872062 C1484.16667,204.034829 1466.6209,281.666667 1365.63384,281.666667" id="Fill-13" style="mix-blend-mode: multiply;"></path>
                    </g>
                </g>
            </g>
        </g>
    </g>
</svg>