<svg xmlns="http://www.w3.org/2000/svg" width="189" height="68" viewBox="0 0 189 68">
  <g fill="#1D2737" fill-rule="evenodd">
    <path d="M79.7620632,7.58859975 C78.9775295,6.84262701 78.2146421,6.42565056 76.9679297,6.42565056 C75.039065,6.42565056 73.3208134,8.04894672 72.9019274,10.9231722 C72.4894768,13.7527881 73.5173856,15.5743494 75.7048363,15.5743494 C76.9047458,15.5743494 77.7717696,15.1133829 78.7306441,14.3451053 L79.6351103,15.3983891 C78.4568471,16.3853779 77.1668421,17 75.4263591,17 C72.7217362,17 70.5091288,15.0693928 71.0947502,11.0545229 C71.7148887,6.79863693 74.7055943,5 77.2932099,5 C78.9629036,5 80.1505273,5.57001239 81,6.3605948 L79.7620632,7.58859975 Z"/>
    <polygon points="83 15 84.609 .864 86 0 84.293 15"/>
    <path d="M95.1662162 6.42565056C93.0129744 6.42565056 91.3471258 7.93928129 90.9032919 10.9665428 90.4594581 13.9944238 91.671466 15.5743494 93.8247077 15.5743494 95.9779495 15.5743494 97.6773505 13.9944238 98.1211844 10.9665428 98.5656069 7.93928129 97.3194579 6.42565056 95.1662162 6.42565056M93.5680611 17C90.5389244 17 88.5246014 14.9157373 89.0973472 11.0105328 89.6695044 7.10594796 92.3931375 5 95.4228628 5 98.4519995 5 100.475741 7.01858736 99.9029949 10.9231722 99.330249 14.8289963 96.5977864 17 93.5680611 17M109.432429 16.7534247L109.644604 15.3201264C108.766806 16.3051633 107.470719 17 105.86122 17 103.155686 17 101.591653 15.5445732 102.092992 12.1633298L103.152655 5 104.980391 5 103.96377 11.8731296C103.589129 14.4021075 104.395394 15.5445732 106.44258 15.5445732 108.222425 15.5445732 109.773121 14.4476291 110.15443 11.8731296L111.171658 5 113 5 111.260771 16.7534247 109.432429 16.7534247zM123.291626 8.2858833C122.775267 7.33454185 121.738646 6.57798725 120.34905 6.57798725 118.398485 6.57798725 117.204614 8.19978628 116.775245 11.2485975 116.372641 14.1020112 117.284354 15.5943594 119.144584 15.5943594 120.399793 15.5943594 121.522846 14.9452734 122.491994 13.9505782L123.291626 8.2858833zM122.09664 16.7618593L122.291808 15.3775904C121.339946 16.2428348 120.112618 17 118.520047 17 116.166878 17 114.549214 15.2701217 115.112413 11.2699691 115.680073 7.24844483 117.946253 5.17295729 120.412061 5.17295729 121.891992 5.17295729 122.815416 5.77868946 123.516905 6.6866771L124.189956 1.90859825 126 1 123.77843 16.7618593 122.09664 16.7618593zM91.6170347 62.6025714C90.8317372 62.186193 89.9451712 61.9451645 88.3466188 61.9451645 86.4231371 61.9451645 85.1482713 62.7562348 84.9246106 64.2048846 84.6593243 65.9162493 85.6179587 66.6628802 87.2165112 66.6628802 88.9157109 66.6628802 90.3079985 65.8939433 91.2566925 64.9285899L91.6170347 62.6025714zM90.8186904 67.7589714L91.035517 66.3555533C89.9762352 67.232922 88.5590964 68 86.6853171 68 84.6369582 68 82.6277399 67.1009449 83.058908 64.3151753 83.4596333 61.7252027 86.0522332 60.6284918 88.6504245 60.6284918 89.9737501 60.6284918 91.1038577 60.9141323 91.8208144 61.2871379L92.0308069 59.9270925C92.2967146 58.2157278 91.5014767 57.3817318 89.5773737 57.3817318 88.2037245 57.3817318 87.0288847 57.7107451 85.8701982 58.2591005L85.3775235 56.9207415C86.6113848 56.372386 88.2180139 56 89.9159711 56 92.7396869 56 94.3494224 57.0527185 93.9356502 59.7281974L92.6918484 67.7589714 90.8186904 67.7589714z"/>
    <polygon points="98 68 99.609 53.864 101 53 99.293 68"/>
    <polygon points="104 68 105.609 53.864 107 53 105.293 68"/>
    <path d="M113.368168 55.2108764C112.520856 55.2108764 111.952354 54.7149026 112.059798 54.1156494 112.171322 53.4959739 112.917991 53 113.765303 53 114.531692 53 115.097473 53.4959739 114.985949 54.1156494 114.878505 54.7149026 114.133197 55.2108764 113.368168 55.2108764zM110 68L111.952354 57.1527599 114.003312 57.1527599 112.050958 68 110 68zM122.833665 62.6025714C122.119757 62.186193 121.313787 61.9451645 119.860556 61.9451645 118.112498 61.9451645 116.952963 62.7562348 116.7502 64.2048846 116.508465 65.9162493 117.379952 66.6628802 118.833748 66.6628802 120.377913 66.6628802 121.64363 65.8939433 122.506081 64.9285899L122.833665 62.6025714zM122.107896 67.7589714L122.305012 66.3555533C121.342027 67.232922 120.053717 68 118.350844 68 116.488697 68 114.661568 67.1009449 115.053539 64.3151753 115.417271 61.7252027 117.774748 60.6284918 120.136743 60.6284918 121.339768 60.6284918 122.36714 60.9141323 123.018919 61.2871379L123.209822 59.9270925C123.451557 58.2157278 122.728612 57.3817318 120.979425 57.3817318 119.730651 57.3817318 118.662614 57.7107451 117.609261 58.2591005L117.161374 56.9207415C118.283068 56.372386 119.743642 56 121.287241 56 123.854259 56 125.317657 57.0527185 124.9415 59.7281974L123.81077 67.7589714 122.107896 67.7589714zM135.289745 68L136.214395 61.1265082C136.555491 58.5973971 135.822604 57.4548712 133.96063 57.4548712 132.34387 57.4548712 130.933201 58.5518731 130.586595 61.1265082L129.661945 68 128 68 129.582595 56.2459561 131.243989 56.2459561 131.050573 57.6786975C131.847932 56.694241 133.027715 56 134.48908 56 136.948384 56 138.370074 57.4548712 137.916015 60.8362927L136.95169 68 135.289745 68zM151.762629 58.5887334C150.977499 57.8421025 150.2146 57.4257242 148.967868 57.4257242 147.038974 57.4257242 145.320111 59.0497238 144.901804 61.9228585 144.489347 64.75324 145.516686 66.5748954 147.704756 66.5748954 148.904683 66.5748954 149.772305 66.1139051 150.73061 65.3449682L151.634504 66.398926C150.456808 67.3865854 149.167369 68 147.426274 68 144.72161 68 142.509554 66.0699127 143.094599 62.0548355 143.714747 57.7987298 146.704913 56 149.293153 56 150.962873 56 152.151099 56.5700418 153 57.360665L151.762629 58.5887334zM159.238603 57.4257242C157.280107 57.4257242 155.734288 58.6537925 155.108718 61.2208396L162.212868 61.2208396C162.410154 58.9834254 161.547966 57.4257242 159.238603 57.4257242M163.68689 62.5591986L154.901444 62.5591986C154.695418 65.0171942 155.782985 66.5748954 157.941263 66.5748954 159.472723 66.5748954 160.437299 66.1789642 161.751495 65.4769453L162.44574 66.6628802C160.728857 67.5402489 159.502066 68 157.519222 68 155.109967 68 152.410402 66.4646047 153.113388 61.9457841 153.683393 58.2814065 156.347371 56 159.485834 56 162.924594 56 164.4136 58.3693912 163.901657 61.6601435 163.840473 62.0548355 163.778041 62.2964837 163.68689 62.5591986M105.293346 42C103.535818 42 102.088514 41.4070938 101 40.5298157L102.256678 39.3235583C103.158815 40.1351644 104.28679 40.5954876 105.55561 40.5954876 107.31253 40.5954876 108.241986 39.937529 108.411972 38.8186277 108.554031 37.8750581 107.877125 37.3490629 105.738951 36.4711653 103.326372 35.4836078 102.358669 34.782281 102.637324 32.9397491 102.902623 31.1845733 104.765784 30 107.084871 30 108.842399 30 110.132467 30.504311 111 31.2279416L109.791889 32.4354381C108.897644 31.7334917 108.117533 31.4038928 106.750364 31.4038928 105.408086 31.4038928 104.536911 31.996799 104.411243 32.8300893 104.265542 33.7947235 104.864133 34.1906139 106.903351 35.067892 109.170835 36.0542103 110.490651 36.6904848 110.178606 38.7535753 109.836814 41.0124426 107.515299 42 105.293346 42M119.239104 31.4261965C117.280792 31.4261965 115.735117 32.6547576 115.109606 35.2215396L122.213091 35.2215396C122.410358 32.9843564 121.547002 31.4261965 119.239104 31.4261965M123.685726 36.5597604L114.901103 36.5597604C114.695096 39.0162631 115.782561 40.5738035 117.940637 40.5738035 119.471954 40.5738035 120.437688 40.1791523 121.750512 39.4765863L122.445941 40.6617791C120.72797 41.5390573 119.501294 42 117.518636 42 115.109606 42 112.410919 40.4641437 113.113214 35.9451701 113.684415 32.2817905 116.348143 30 119.485687 30 122.923502 30 124.413616 32.3691466 123.901721 35.6601786 123.839295 36.0548299 123.777493 36.2958335 123.685726 36.5597604M136.638892 32.5890857C135.775248 31.8431514 134.93606 31.4261965 133.564655 31.4261965 131.442872 31.4261965 129.552122 33.0494088 129.091984 35.923486 128.638282 38.7535753 129.768355 40.5738035 132.175231 40.5738035 133.495152 40.5738035 134.449536 40.1128608 135.50367 39.3452424L136.497955 40.3978522C135.202489 41.3854097 133.783462 42 131.868901 42 128.893771 42 126.460509 40.0688729 127.104059 36.0548299 127.786222 31.7997832 131.075405 30 133.922469 30 135.760447 30 137.066209 30.569983 138 31.3605245L136.638892 32.5890857zM145.756754 41.7527924L145.94964 40.3201264C145.151641 41.3051633 143.973381 42 142.5102 42 140.050624 42 138.628776 40.543941 139.084539 37.1639621L140.04897 30 141.710549 30 140.785245 36.8724974C140.444663 39.4027397 141.177631 40.543941 143.038709 40.543941 144.65675 40.543941 146.066474 39.4476291 146.413118 36.8724974L147.337871 30 149 30 147.418883 41.7527924 145.756754 41.7527924zM159.262449 31.9930446C158.77679 31.7236801 158.226127 31.544736 157.346066 31.544736 155.510938 31.544736 154.278978 32.8662662 153.937079 35.1046475L152.885131 42 151 42 152.7945 30.245969 154.679631 30.245969 154.45774 31.7015492C155.203417 30.7613026 156.576637 30 157.984235 30 158.963053 30 159.57497 30.1119191 160 30.2908631L159.262449 31.9930446zM164.368168 26.2098813C163.519496 26.2098813 162.952354 25.7138689 163.059798 25.1151527 163.171322 24.4954289 163.917991 24 164.765303 24 165.531692 24 166.097473 24.4954289 165.985949 25.1151527 165.878505 25.7138689 165.133197 26.2098813 164.368168 26.2098813zM161 39L162.952354 28.1524995 165.003312 28.1524995 163.050958 39 161 39zM172.517811 29.4119757L171.34979 36.344388C171.189804 37.2969507 171.46103 37.6215319 172.466565 37.6215319 173.219623 37.6215319 173.739577 37.5196352 174.37702 37.3175591L174.028926 38.6342022C173.25962 38.8780674 172.534684 39 171.530399 39 169.89742 39 169.126864 38.3514101 169.424962 36.5876808L170.632979 29.4119757 169 29.4119757 169.216231 28.1354043 170.84921 28.1354043 171.402286 24.8518109 173.429604 24 172.734042 28.1354043 176 28.1354043 175.784394 29.4119757 172.517811 29.4119757z"/>
    <polygon points="180.281 45 178.451 45 180.84 40.965 178 30 179.927 30 181.785 38.05 182.046 39.19 182.66 38.071 187.073 30 189 30"/>
    <path d="M1.5108692 32.5515298C4.26198107 25.2557945 10.4162129 21 17.7627743 21 25.8881231 21 28.6084457 24.383219 30 30.4153718L21.2286802 33.5697385C20.4794746 30.5983312 19.6179788 28.7240682 16.5958006 28.7240682 14.1845781 28.7240682 12.4229489 30.1944743 11.2650308 32.5515298L1.5108692 32.5515298zM10.0829643 36.1305581C9.98938908 36.5748007 9.90909549 37.0318932 9.84087613 37.5012238 9.13030806 42.3903393 10.1729173 46.274708 14.1405072 46.274708 17.0202095 46.274708 18.4673052 44.7675876 20.7034515 41.7496755L27.8707107 45.7270536C25.0387015 49.9314482 20.76503 54 12.9240291 54 3.10044075 54-1.1231227 46.9606527.253942516 37.5012238.32216188 37.0312813.386758976 36.5858149.477919365 36.1336177L10.0829643 36.1305581zM33.7444414 32.5484702C33.7625728 32.0919896 33.8100895 31.609809 33.8869915 31.1007046 34.7948107 25.0685518 40.6424915 21 48.9078973 21 54.7299441 21 58.7357274 22.3253848 62 24.7038569L56.3548904 31.6495828C53.6108007 29.7306508 50.7441679 28.6322826 47.2710719 28.6322826 44.4331992 28.6322826 43.6241647 29.4565177 43.4528545 30.5977193 43.3240592 31.4537734 43.8798796 31.9787873 45.792427 32.5637678L33.7444414 32.5484702zM56.46743 36.1262748C59.0827244 37.820026 60.0693212 40.1299648 59.536634 43.6704432 58.4368723 50.9845355 52.0646321 54 43.8479934 54 38.3185495 54 33.2405142 52.3074726 30 50.1156314L35.6451096 43.1674578C37.899027 44.7675876 42.0110977 46.3664936 45.1909656 46.3664936 48.5665273 46.3664936 49.7250596 45.8188392 49.9520144 44.3104951 50.1289516 43.121565 49.0154351 42.3903393 44.5707475 41.3855924 39.1751006 40.1832004 35.7901606 38.8584276 34.4340588 36.1434081L56.46743 36.1262748z"/>
    <polyline points="66 32 71.139 21 79.054 21 81 31.996"/>
    <polyline points="68.964 40.863 73.417 40.863 72.936 36 80.094 36 83 54 74.95 54 74.263 48.175 66.208 48.175 63.977 54 56 54 63.674 36.001 70.807 36.001"/>
  </g>
</svg>
