<svg xmlns="http://www.w3.org/2000/svg" xmlns:xlink="http://www.w3.org/1999/xlink" width="222" height="63" viewBox="0 0 222 63"><defs><path id="a" d="M0 .096h71.41v61.252H0z"/><path id="c" d="M0 63h222V0H0z"/></defs><g fill="none" fill-rule="evenodd"><mask id="b" fill="#fff"><use xlink:href="#a"/></mask><path fill="#FFF" d="M12.667 31.727c-3.568-.776-6.46 1.468-6.46 5.012 0 3.54 2.892 7.04 6.46 7.813 3.568.776 6.462-1.467 6.462-5.01 0-3.543-2.895-7.042-6.463-7.816m44.675 0c-3.568.774-6.46 4.273-6.46 7.815 0 3.544 2.892 5.787 6.46 5.01 3.567-.773 6.46-4.272 6.46-7.813 0-3.545-2.893-5.79-6.46-5.013m-22.317 1.88c-3.568 0-6.462 2.87-6.462 6.414 0 3.544 2.894 6.416 6.462 6.416 3.57 0 6.46-2.872 6.46-6.415s-2.89-6.413-6.46-6.413M65.05 53.64l-.007-3.925c0-3.558-2.905-5.373-6.488-4.055l-1.177.434-1.15.422c-3.583 1.32-6.487 5.272-6.487 8.83l.01 4.855c-2.243.505-4.604.892-7.056 1.148l.013-6.783c0-3.557-2.904-6.44-6.488-6.44h-2.325c-3.584 0-6.49 2.883-6.49 6.44l-.013 6.627c-2.487-.312-4.877-.754-7.132-1.323l.008-4.524c0-3.558-2.904-7.51-6.49-8.83l-1.147-.422-1.174-.434c-3.584-1.318-6.49.497-6.49 4.055l-.004 2.782C1.812 49.707 0 46.452 0 42.97c0-3.558 1.89-6.883 5.172-9.72l-.007-4.617c0-3.556 2.904-7.51 6.488-8.83l1.15-.422 1.174-.434c3.585-1.317 6.49.5 6.49 4.057l.005 3.02c2.195-.544 4.516-.97 6.927-1.272l.006-3.698c0-3.558 2.905-6.44 6.49-6.44h2.323c3.583 0 6.487 2.882 6.487 6.44l-.006 3.545c2.326.243 4.572.604 6.712 1.07l.004-2.664c0-3.558 2.906-5.374 6.49-4.057l1.176.435 1.15.424c3.582 1.318 6.487 5.273 6.487 8.83l-.007 3.42c4.21 3.075 6.696 6.842 6.696 10.916 0 3.965-2.355 7.642-6.36 10.67M12.766 5.013c3.568-.772 6.46 1.47 6.46 5.01 0 3.543-2.892 7.044-6.46 7.818-3.57.778-6.46-1.467-6.46-5.01 0-3.54 2.89-7.04 6.46-7.817M35.025.095c3.57 0 6.46 2.87 6.46 6.414 0 3.54-2.89 6.413-6.46 6.413-3.568 0-6.462-2.872-6.462-6.414 0-3.546 2.894-6.415 6.462-6.415M57.12 5.013c3.567.776 6.46 4.276 6.46 7.818 0 3.543-2.893 5.788-6.46 5.01-3.57-.773-6.462-4.274-6.462-7.816s2.893-5.783 6.462-5.01" mask="url(#b)"/><path fill="#FFF" d="M102.212 13.618c-.795-.378-2.663-1.287-5.326-1.287-6.28 0-7.39 5.036-7.47 8.746-.08 3.71.834 8.63 7.113 8.63 2.66 0 4.57-.87 5.364-1.21l1.708 2.762c-.794.455-3.06 1.742-7.153 1.742-9.538 0-11.564-6.625-11.445-11.96C85.123 15.624 87.39 9 96.925 9c4.094 0 6.32 1.4 7.075 1.893l-1.788 2.725z"/><mask id="d" fill="#fff"><use xlink:href="#c"/></mask><path fill="#FFF" mask="url(#d)" d="M107 33h4V9h-4M125.98 12.298c-6.2 0-6.517 4.93-6.597 8.72-.078 3.755.554 8.722 6.597 8.722 6.004 0 6.675-4.967 6.596-8.683-.08-3.83-.434-8.76-6.596-8.76M126.06 33C116.697 33 115 25.834 115 21.02 115 16.09 116.54 9 125.98 9c9.4 0 11.02 7.09 11.02 12.02 0 4.814-1.62 11.98-10.94 11.98M141.262 37L139 36.346 147.738 7l2.262.615M169.212 13.618c-.795-.378-2.663-1.287-5.326-1.287-6.28 0-7.39 5.036-7.47 8.746-.08 3.71.834 8.63 7.113 8.63 2.662 0 4.57-.87 5.364-1.21l1.71 2.762c-.796.455-3.062 1.742-7.155 1.742-9.537 0-11.564-6.625-11.445-11.96.12-5.415 2.384-12.04 11.92-12.04 4.094 0 6.32 1.4 7.075 1.893l-1.788 2.725zM174 33h4V9h-4M195.435 13.618c-.895-.378-3.23-1.363-5.45-1.363-4.052.04-4.713 3.9-1.715 5.263l4.595 2.12c8.53 3.974 5.647 13.362-2.88 13.362-4.674 0-7.596-1.855-7.985-2.082l1.52-2.65c.427.227 3.387 1.704 6.19 1.553 3.7-.227 5.92-4.58 1.286-6.7l-5.024-2.31C179.586 17.86 181.065 9 190.022 9c3.505 0 6.075 1.627 6.815 2.082l-1.402 2.536zm15.545-1.32c-6.2 0-6.517 4.93-6.597 8.72-.078 3.755.554 8.722 6.597 8.722 6.004 0 6.675-4.967 6.596-8.683-.08-3.83-.434-8.76-6.596-8.76M211.06 33C201.697 33 200 25.834 200 21.02 200 16.09 201.54 9 210.98 9c9.4 0 11.02 7.09 11.02 12.02 0 4.814-1.62 11.98-10.94 11.98M85.156 54.29h1.64l1.327-15.58H86.04l.157-1.71H92l-.156 1.71h-1.64l-1.327 15.58h2.082L90.802 56H85M93.157 42.266h4.098c-.088.533-.166 1.048-.235 1.544-.07.497-.14 1.002-.21 1.516-.068.516-.147 1.07-.234 1.664-.087.595-.19 1.256-.313 1.983l.052.027c.226-.887.544-1.75.953-2.594.41-.843.883-1.59 1.423-2.236.54-.65 1.12-1.172 1.736-1.57.618-.4 1.25-.6 1.893-.6.887 0 1.54.28 1.957.84.418.557.627 1.44.627 2.646 0 .55-.03 1.177-.092 1.878-.06.7-.134 1.436-.222 2.208-.087.772-.183 1.567-.287 2.382-.104.816-.2 1.607-.287 2.37H106L105.843 56h-4.02c.122-1.1.248-2.165.378-3.193.132-1.03.25-1.988.354-2.875.105-.887.19-1.682.26-2.382.07-.702.106-1.264.106-1.69 0-.746-.092-1.246-.275-1.504-.182-.258-.474-.387-.874-.387-.486 0-.95.164-1.395.493-.444.327-.858.758-1.24 1.29-.383.533-.732 1.122-1.044 1.77-.313.648-.59 1.29-.835 1.93-.244.638-.44 1.237-.588 1.796-.147.558-.247 1.006-.3 1.343L95.82 56h-1.985c.278-2.147.514-4.223.705-6.23.192-2.003.375-3.945.548-5.827H93l.157-1.677zm16.972 2.068H108l.13-1.723h2.152l.308-3.528 1.95-.082-.31 3.61H116l-.128 1.724h-3.795l-.717 8.618c-.07.692.008 1.23.23 1.614.222.382.598.574 1.128.574.547 0 1.043-.082 1.487-.247.444-.164.863-.364 1.257-.602l-.154 1.944c-.325.183-.74.355-1.244.52-.504.164-1.08.246-1.73.246-1.044 0-1.825-.324-2.346-.972-.522-.646-.715-1.754-.578-3.322l.72-8.372zm14.845 1.08c0-.39-.152-.765-.456-1.12-.304-.353-.794-.53-1.47-.53-.607 0-1.142.152-1.606.46-.465.31-.866.73-1.203 1.26-.336.532-.607 1.15-.81 1.847-.2.7-.337 1.443-.404 2.226.91-.13 1.73-.302 2.456-.517.725-.216 1.35-.487 1.873-.813.523-.326.924-.722 1.203-1.19.278-.466.417-1.006.417-1.623zm.81 10.522c-.32.206-.826.435-1.52.686-.69.252-1.5.378-2.428.378-1.604 0-2.81-.5-3.62-1.498-.81-.997-1.217-2.662-1.217-4.995 0-1.268.166-2.42.494-3.456.33-1.034.78-1.934 1.355-2.7.573-.745 1.218-1.324 1.936-1.734.716-.41 1.59-.616 2.62-.616.624 0 1.164.094 1.62.28.456.187.826.434 1.114.742.286.308.502.657.645 1.05.143.39.215.792.215 1.202 0 .858-.21 1.62-.633 2.28-.422.664-.99 1.238-1.708 1.723-.718.485-1.562.88-2.533 1.188-.97.308-2.004.528-3.1.66 0 1.472.303 2.504.91 3.09.608.59 1.41.882 2.406.882.556 0 1.16-.107 1.81-.322.65-.214 1.27-.536 1.86-.966l-.227 2.126zm3.38-13.67h4.12c-.055.586-.128 1.385-.22 2.395-.09 1.014-.238 2.193-.438 3.542l.054.053c.202-.94.436-1.797.702-2.568.265-.773.594-1.428.99-1.97.392-.54.854-.962 1.386-1.264.53-.302 1.163-.453 1.895-.453.53 0 .98.045 1.347.133l-.33 1.943c-.147-.035-.298-.062-.454-.08-.155-.017-.316-.027-.48-.027-.696 0-1.328.205-1.895.612-.567.41-1.085 1.082-1.552 2.023-.467.94-.875 2.18-1.222 3.712-.348 1.535-.65 3.43-.907 5.683h-2.088c.292-2.093.516-4.16.672-6.202.156-2.04.307-3.992.454-5.855H129l.165-1.677zm17.906 1.665c-.2-.054-.397-.096-.597-.125-.2-.028-.426-.042-.68-.042-.797 0-1.485.168-2.064.504-.58.337-1.06.802-1.44 1.4-.382.596-.664 1.3-.844 2.112-.18.81-.27 1.683-.27 2.616 0 .84.09 1.558.27 2.155.18.598.43 1.088.747 1.47.316.382.693.658 1.128.825.435.168.897.252 1.387.252.615 0 1.25-.112 1.902-.336.652-.223 1.222-.465 1.71-.726l-.19 1.986c-.47.262-1.018.49-1.643.687-.626.195-1.372.293-2.242.293-.978 0-1.803-.192-2.473-.574-.67-.382-1.21-.88-1.617-1.497-.407-.616-.702-1.306-.883-2.07-.182-.767-.272-1.532-.272-2.296 0-1.175.145-2.286.435-3.33.29-1.045.72-1.955 1.29-2.73.57-.773 1.287-1.383 2.148-1.832.86-.448 1.86-.672 3.002-.672.49 0 1.015.043 1.576.127.562.083 1.08.21 1.55.377l-.272 3.638h-1.765l.108-2.21zm3.09-7.93h4.51c-.09.784-.182 1.776-.28 2.977-.096 1.2-.202 2.448-.317 3.74-.115 1.294-.253 2.568-.412 3.824-.157 1.257-.343 2.332-.556 3.223l.053.055c.23-.91.553-1.797.97-2.662.414-.865.897-1.63 1.445-2.295.548-.663 1.136-1.2 1.764-1.61.628-.41 1.27-.615 1.924-.615.9 0 1.566.287 1.99.86.425.574.637 1.48.637 2.718 0 .564-.03 1.207-.093 1.926-.062.718-.137 1.473-.227 2.265-.088.79-.185 1.607-.29 2.444-.108.836-.204 1.647-.292 2.43H163l-.16 1.72h-4.084c.124-1.13.25-2.222.385-3.276.133-1.057.253-2.04.358-2.95.106-.91.195-1.725.265-2.445.072-.72.108-1.297.108-1.734 0-.765-.093-1.278-.278-1.544-.186-.263-.483-.395-.89-.395-.495 0-.967.168-1.42.506-.45.336-.87.777-1.26 1.323-.388.547-.742 1.15-1.06 1.817-.32.663-.602 1.323-.85 1.98-.247.654-.447 1.27-.596 1.842-.15.574-.252 1.033-.305 1.38L152.655 57h-2.017c.16-1.165.31-2.394.45-3.687.143-1.293.27-2.58.385-3.864.115-1.285.222-2.54.32-3.77l.265-3.385c.078-1.028.154-1.944.225-2.745l.16-1.83H150l.16-1.72zm17.1 15.74c0 2.126.566 3.19 1.696 3.19.753 0 1.45-.36 2.092-1.08.64-.716 1.205-1.617 1.696-2.698.49-1.082.9-2.253 1.23-3.512.328-1.26.55-2.43.663-3.512-.283-.112-.584-.2-.904-.266-.32-.065-.698-.098-1.13-.098-1.056 0-1.923.237-2.602.713-.676.475-1.223 1.096-1.637 1.862-.414.763-.702 1.617-.863 2.56-.16.94-.24 1.887-.24 2.84zM178 54.956l-.17 1.763h-4.24c.057-.596.12-1.222.185-1.875.066-.652.146-1.3.24-1.944.094-.643.193-1.254.297-1.833.103-.578.22-1.1.354-1.567l-.058-.057c-.188.673-.433 1.443-.734 2.31-.3.868-.687 1.688-1.16 2.463-.47.773-1.035 1.432-1.695 1.972-.66.54-1.433.812-2.318.812-.603 0-1.136-.126-1.596-.378-.463-.25-.85-.61-1.16-1.077-.31-.466-.547-1.022-.706-1.665-.16-.644-.24-1.348-.24-2.114 0-.95.08-1.832.24-2.643.16-.812.363-1.55.608-2.21.245-.664.522-1.24.833-1.736.312-.494.618-.89.92-1.19.828-.82 1.695-1.356 2.6-1.608.905-.253 1.818-.38 2.74-.38.584 0 1.127.057 1.626.168.5.112.994.28 1.483.504h.96c-.112.503-.22 1.236-.324 2.198-.103.96-.208 2.02-.31 3.175-.105 1.157-.205 2.347-.298 3.57-.094 1.22-.17 2.335-.227 3.342H178zm1.157-12.69h4.098c-.087.532-.166 1.047-.234 1.543-.07.497-.14 1.002-.21 1.516-.068.516-.147 1.07-.233 1.664-.088.595-.192 1.256-.314 1.983l.053.027c.225-.887.544-1.75.953-2.594.407-.843.882-1.59 1.422-2.236.538-.65 1.117-1.172 1.735-1.57.617-.4 1.25-.6 1.893-.6.887 0 1.54.28 1.958.84.417.557.626 1.44.626 2.646 0 .55-.03 1.177-.092 1.878-.06.7-.134 1.436-.222 2.208-.086.772-.182 1.567-.287 2.382-.104.816-.2 1.607-.287 2.37H192L191.844 56h-4.02c.122-1.1.248-2.165.378-3.193.13-1.03.248-1.988.352-2.875.105-.887.192-1.682.26-2.382.07-.702.106-1.264.106-1.69 0-.746-.09-1.246-.273-1.504-.184-.258-.475-.387-.876-.387-.486 0-.95.164-1.395.493-.444.327-.857.758-1.24 1.29-.383.533-.73 1.122-1.044 1.77-.313.648-.59 1.29-.835 1.93-.243.638-.44 1.237-.588 1.796-.147.558-.247 1.006-.3 1.343L181.82 56h-1.985c.28-2.147.514-4.223.705-6.23.192-2.003.375-3.945.55-5.827H179l.157-1.677zm22.396 1.436c-.983 0-1.8.23-2.45.688-.652.46-1.17 1.052-1.554 1.773-.385.72-.653 1.53-.804 2.432-.152.9-.228 1.792-.228 2.676 0 2.054.526 3.082 1.58 3.082.554 0 1.125-.275 1.714-.825.59-.55 1.14-1.292 1.648-2.23.508-.936.968-2.02 1.38-3.256.41-1.233.722-2.544.936-3.932-.214-.09-.5-.18-.856-.27-.358-.09-.814-.135-1.367-.135zm-7.473 16.324c.41.306.928.595 1.554.865.625.27 1.393.405 2.303.405.697 0 1.327-.085 1.89-.257.56-.17 1.04-.463 1.433-.877.5-.523.86-1.15 1.084-1.88.223-.728.388-1.553.495-2.472.106-.918.21-1.922.307-3.012s.29-2.275.576-3.554l-.054-.055c-.215.558-.487 1.23-.818 2.013-.33.784-.737 1.537-1.218 2.257-.483.72-1.05 1.333-1.702 1.838-.65.503-1.396.757-2.236.757-.643 0-1.174-.136-1.594-.406-.42-.272-.758-.63-1.017-1.082-.26-.45-.442-.964-.55-1.54-.107-.578-.16-1.163-.16-1.757 0-1.314.165-2.54.495-3.675.33-1.135.813-2.117 1.447-2.946.634-.83 1.4-1.48 2.303-1.947.902-.468 1.924-.703 3.067-.703.625 0 1.215.064 1.768.19.553.125 1.08.25 1.58.378H206c-.108.864-.2 1.766-.28 2.703-.082.938-.162 1.937-.242 3-.08 1.064-.17 2.2-.27 3.406-.096 1.208-.216 2.496-.36 3.865-.143 1.334-.367 2.474-.67 3.42-.303.945-.714 1.716-1.232 2.31-.518.595-1.165 1.032-1.942 1.312-.776.28-1.7.418-2.772.418-.32 0-.67-.022-1.044-.068-.376-.044-.76-.112-1.152-.202-.393-.09-.764-.198-1.112-.323-.348-.127-.656-.263-.924-.407l.08-1.973zm22.895-14.613c0-.39-.152-.765-.456-1.12-.305-.353-.794-.53-1.47-.53-.607 0-1.143.152-1.607.46-.465.31-.866.73-1.203 1.26-.337.532-.607 1.15-.81 1.847-.202.7-.337 1.443-.405 2.226.912-.13 1.73-.302 2.456-.517.727-.216 1.35-.487 1.874-.813.523-.326.924-.722 1.203-1.19.28-.466.418-1.006.418-1.623zm.81 10.522c-.32.206-.828.435-1.52.686-.69.252-1.5.378-2.43.378-1.603 0-2.81-.5-3.62-1.498-.81-.997-1.215-2.662-1.215-4.995 0-1.268.164-2.42.494-3.456.33-1.034.78-1.934 1.355-2.7.57-.745 1.217-1.324 1.934-1.734.718-.41 1.592-.616 2.62-.616.625 0 1.166.094 1.622.28.455.187.826.434 1.113.742.286.308.5.657.645 1.05.143.39.215.792.215 1.202 0 .858-.21 1.62-.633 2.28-.422.664-.99 1.238-1.71 1.723-.717.485-1.56.88-2.53 1.188-.97.308-2.005.528-3.102.66 0 1.472.304 2.504.912 3.09.608.59 1.41.882 2.405.882.556 0 1.16-.107 1.81-.322.65-.214 1.27-.536 1.86-.966l-.227 2.126z"/></g></svg>