
<svg width="216px" height="186px" viewBox="0 0 216 186" version="1.1" xmlns="http://www.w3.org/2000/svg" xmlns:xlink="http://www.w3.org/1999/xlink">
    <!-- Generator: Sketch 48.2 (47327) - http://www.bohemiancoding.com/sketch -->
    <desc>Created with Sketch.</desc>
    <defs></defs>
    <g id="CIO/CISO-Interchange" stroke="none" stroke-width="1" fill="none" fill-rule="evenodd">
        <g id="Webpage" transform="translate(-908.000000, -4947.000000)" fill="#1D2737">
            <g id="Quote" transform="translate(416.000000, 4909.000000)">
                <path d="M530.315304,133.680963 C519.523638,131.335603 510.772077,138.122363 510.772077,148.843061 C510.772077,159.554934 519.523638,170.136632 530.315304,172.479785 C541.109193,174.827351 549.860754,168.040591 549.860754,157.322099 C549.860754,146.605813 541.109193,136.024116 530.315304,133.680963 M665.448922,133.680963 C654.657256,136.024116 645.905695,146.605813 645.905695,157.322099 C645.905695,168.040591 654.657256,174.827351 665.448922,172.479785 C676.240589,170.136632 684.994372,159.554934 684.994372,148.843061 C684.994372,138.122363 676.240589,131.335603 665.448922,133.680963 M597.94545,139.368956 C587.151561,139.368956 578.397778,148.050978 578.397778,158.76947 C578.397778,169.485756 587.151561,178.174397 597.94545,178.174397 C608.739338,178.174397 617.488677,169.485756 617.488677,158.76947 C617.488677,148.050978 608.739338,139.368956 597.94545,139.368956 M688.7679,200.055649 L688.743454,188.183231 C688.743454,177.422819 679.956335,171.931191 669.118,175.918082 L665.557817,177.230865 L662.084305,178.508347 C651.243747,182.497444 642.458851,194.45591 642.458851,205.218529 L642.489963,219.901848 C635.700725,221.426442 628.560358,222.598018 621.142199,223.37245 L621.182201,202.853312 C621.182201,192.095106 612.397304,183.371162 601.556747,183.371162 L594.525274,183.371162 C583.686939,183.371162 574.89982,192.095106 574.89982,202.853312 L574.857596,222.900289 C567.332764,221.958174 560.103503,220.621121 553.283152,218.897954 L553.307598,205.218529 C553.307598,194.45591 544.522702,182.497444 533.679922,178.508347 L530.20641,177.230865 L526.652894,175.918082 C515.810114,171.931191 507.025217,177.422819 507.025217,188.183231 L507.007439,196.598284 C497.482504,188.161168 492,178.314188 492,167.78103 C492,157.020617 497.71585,146.961827 507.645249,138.381297 L507.623026,124.415045 C507.623026,113.659045 516.407922,101.696166 527.24848,97.7092758 L530.724214,96.4273812 L534.27773,95.1123913 C545.122733,91.1299134 553.905407,96.6215408 553.905407,107.38416 L553.925408,116.522899 C560.563527,114.874748 567.583888,113.584028 574.877597,112.670596 L574.89982,101.48215 C574.89982,90.721737 583.686939,82 594.525274,82 L601.556747,82 C612.397304,82 621.182201,90.721737 621.182201,101.48215 L621.1622,112.205054 C628.195895,112.939772 634.989578,114.031919 641.463244,115.441783 L641.474356,107.38416 C641.474356,96.6215408 650.265919,91.1299134 661.104254,95.1123913 L664.664437,96.4273812 L668.140172,97.7092758 C678.978507,101.696166 687.765626,113.659045 687.765626,124.415045 L687.745625,134.765074 C700.477391,144.062671 708,155.458515 708,167.78103 C708,179.774797 700.879634,190.897053 688.7679,200.055649 M530.613097,52.8774784 C541.404764,50.5409443 550.156325,57.318879 550.156325,68.0351645 C550.156325,78.7492436 541.404764,89.3375602 530.613097,91.6785071 C519.816986,94.0282794 511.06987,87.2393128 511.06987,76.5252337 C511.06987,65.8111547 519.816986,55.222838 530.613097,52.8774784 M597.94545,38 C608.739338,38 617.488677,46.6798161 617.488677,57.4005143 C617.488677,68.1145934 608.739338,76.803235 597.94545,76.803235 C587.151561,76.803235 578.397778,68.1145934 578.397778,57.4005143 C578.397778,46.6798161 587.151561,38 597.94545,38 M664.777777,52.8774784 C675.569443,55.222838 684.316559,65.8111547 684.316559,76.5252337 C684.316559,87.2393128 675.569443,94.0282794 664.777777,91.6785071 C653.981666,89.3375602 645.232327,78.7492436 645.232327,68.0351645 C645.232327,57.318879 653.981666,50.5409443 664.777777,52.8774784" id="Fill-1" fill-opacity="0.1"></path>
                <path d="M508,137.454102 L508,122.60023 C508,111.84423 516.784896,99.8813515 527.625454,95.8944608 L531.101188,94.6125663 L534.654704,93.2975763 C545.499707,89.3150984 554.282381,94.8067259 554.282381,105.569345 L554.282381,115.77002 C537.31543,119.460938 528.347894,122.6801 508,137.454102 Z" id="Path-Copy" fill-opacity="0.8"></path>
                <path d="M530.543228,52.4607783 C541.334894,50.1242442 550.086455,56.9021789 550.086455,67.6184643 C550.086455,78.3325434 541.334894,88.9208601 530.543228,91.2618069 C519.747117,93.6115792 511,86.8226127 511,76.1085336 C511,65.3944545 519.747117,54.8061379 530.543228,52.4607783" id="Path" fill-opacity="0.8"></path>
            </g>
        </g>
    </g>
</svg>