<svg xmlns="http://www.w3.org/2000/svg" width="216" height="186" viewBox="0 0 216 186">
  <g fill="#1D2737" fill-rule="evenodd">
    <path fill-opacity=".1" d="M38.3153043,95.6809625 C27.523638,93.335603 18.7720768,100.122363 18.7720768,110.843061 C18.7720768,121.554934 27.523638,132.136632 38.3153043,134.479785 C49.1091929,136.827351 57.8607542,130.040591 57.8607542,119.322099 C57.8607542,108.605813 49.1091929,98.0241157 38.3153043,95.6809625 M173.448922,95.6809625 C162.657256,98.0241157 153.905695,108.605813 153.905695,119.322099 C153.905695,130.040591 162.657256,136.827351 173.448922,134.479785 C184.240589,132.136632 192.994372,121.554934 192.994372,110.843061 C192.994372,100.122363 184.240589,93.335603 173.448922,95.6809625 M105.94545,101.368956 C95.1515613,101.368956 86.3977777,110.050978 86.3977777,120.76947 C86.3977777,131.485756 95.1515613,140.174397 105.94545,140.174397 C116.739338,140.174397 125.488677,131.485756 125.488677,120.76947 C125.488677,110.050978 116.739338,101.368956 105.94545,101.368956 M196.7679,162.055649 L196.743454,150.183231 C196.743454,139.422819 187.956335,133.931191 177.118,137.918082 L173.557817,139.230865 L170.084305,140.508347 C159.243747,144.497444 150.458851,156.45591 150.458851,167.218529 L150.489963,181.901848 C143.700725,183.426442 136.560358,184.598018 129.142199,185.37245 L129.182201,164.853312 C129.182201,154.095106 120.397304,145.371162 109.556747,145.371162 L102.525274,145.371162 C91.6869386,145.371162 82.8998199,154.095106 82.8998199,164.853312 L82.8575956,184.900289 C75.332764,183.958174 68.1035033,182.621121 61.2831524,180.897954 L61.3075981,167.218529 C61.3075981,156.45591 52.5227018,144.497444 41.6799218,140.508347 L38.2064098,139.230865 L34.6528937,137.918082 C23.8101137,133.931191 15.0252173,139.422819 15.0252173,150.183231 L15.0074387,158.598284 C5.48250424,150.161168 0,140.314188 0,129.78103 C0,119.020617 5.71584958,108.961827 15.6452492,100.381297 L15.6230259,86.4150446 C15.6230259,75.6590447 24.4079222,63.6961664 35.2484799,59.7092758 L38.7242142,58.4273812 L42.2777303,57.1123913 C53.1227327,53.1299134 61.9054067,58.6215408 61.9054067,69.3841598 L61.9254077,78.5228986 C68.5635269,76.8747485 75.5838881,75.5840285 82.8775966,74.6705959 L82.8998199,63.4821496 C82.8998199,52.721737 91.6869386,44 102.525274,44 L109.556747,44 C120.397304,44 129.182201,52.721737 129.182201,63.4821496 L129.1622,74.2050541 C136.195895,74.9397717 142.989578,76.0319193 149.463244,77.4417827 L149.474356,69.3841598 C149.474356,58.6215408 158.265919,53.1299134 169.104254,57.1123913 L172.664437,58.4273812 L176.140172,59.7092758 C186.978507,63.6961664 195.765626,75.6590447 195.765626,86.4150446 L195.745625,96.7650745 C208.477391,106.062671 216,117.458515 216,129.78103 C216,141.774797 208.879634,152.897053 196.7679,162.055649 M38.6130974,14.8774784 C49.4047636,12.5409443 58.1563249,19.318879 58.1563249,30.0351645 C58.1563249,40.7492436 49.4047636,51.3375602 38.6130974,53.6785071 C27.8169865,56.0282794 19.0698698,49.2393128 19.0698698,38.5252337 C19.0698698,27.8111547 27.8169865,17.222838 38.6130974,14.8774784 M105.94545,0 C116.739338,0 125.488677,8.67981614 125.488677,19.4005143 C125.488677,30.1145934 116.739338,38.803235 105.94545,38.803235 C95.1515613,38.803235 86.3977777,30.1145934 86.3977777,19.4005143 C86.3977777,8.67981614 95.1515613,0 105.94545,0 M172.777777,14.8774784 C183.569443,17.222838 192.316559,27.8111547 192.316559,38.5252337 C192.316559,49.2393128 183.569443,56.0282794 172.777777,53.6785071 C161.981666,51.3375602 153.232327,40.7492436 153.232327,30.0351645 C153.232327,19.318879 161.981666,12.5409443 172.777777,14.8774784"/>
    <path fill-opacity=".8" d="M16 99.4541016L16 84.6002297C16 73.8442297 24.7848963 61.8813515 35.625454 57.8944608L39.1011883 56.6125663 42.6547045 55.2975763C53.4997068 51.3150984 62.2823808 56.8067259 62.2823808 67.5693449L62.2823808 77.7700195C45.3154297 81.4609375 36.3478938 84.6801002 16 99.4541016zM38.5432275 14.4607783C49.3348938 12.1242442 58.0864551 18.9021789 58.0864551 29.6184643 58.0864551 40.3325434 49.3348938 50.9208601 38.5432275 53.2618069 27.7471166 55.6115792 19 48.8226127 19 38.1085336 19 27.3944545 27.7471166 16.8061379 38.5432275 14.4607783"/>
  </g>
</svg>
