<svg xmlns="http://www.w3.org/2000/svg" width="190" height="33" viewBox="0 0 190 33">
  <g fill="#1D2737" fill-rule="evenodd">
    <path d="M15.2263435 16.5C15.2263435 10.5275495 10.4961935 5.8156221 4.61635424 5.8156221L0 5.8156221 0 27.1584364 4.61635424 27.1584364C10.4961935 27.1584364 15.2263435 22.4488673 15.2263435 16.5zM23.5205302 19.964375L16.0064898 33 30.9935102 33 23.5205302 19.964375zM23.5205302 13.035625L30.9935102 0 16.0064898 0 23.5205302 13.035625zM31.7736565 16.5C31.7736565 22.4488673 36.5038065 27.1584364 42.3836458 27.1584364L47 27.1584364 47 5.8156221 42.3836458 5.8156221C36.5038065 5.8156221 31.7736565 10.5275495 31.7736565 16.5zM186.04699 24.0835777L190 13.9894568 187.186408 13.9894568 185.194175 19.4116045 183.03301 13.971652 180.05165 13.971652 183.770485 22.8229996 183.551456 23.3666387C183.200777 24.2378858 182.766214 24.5097053 182.078835 24.5097053 181.860971 24.5097053 181.459029 24.458665 181.173592 24.4076246L181.173592 26.7436112C181.492816 26.7946516 181.878447 26.8290742 182.363107 26.8290742 184.422913 26.8290742 185.32699 25.9423963 186.04699 24.0835777zM174.326602 20.6223293C173.120777 20.6223293 172.284272 19.6003351 172.284272 18.3884234 172.284272 17.1776986 173.120777 16.1378997 174.326602 16.1378997 175.583689 16.1378997 176.419029 17.1776986 176.419029 18.3884234 176.419029 19.6003351 175.583689 20.6223293 174.326602 20.6223293zM179.166214 22.9595029L179.166214 13.971652 176.470291 13.971652 176.470291 15.2678397C175.968155 14.3301215 174.846214 13.7508728 173.740583 13.7508728 171.212427 13.7508728 169.538252 15.7461947 169.538252 18.3884234 169.538252 21.0140344 171.278835 22.872853 173.774369 22.872853 174.896311 22.872853 175.968155 22.310222 176.436505 21.5090071L176.436505 23.025974C176.436505 24.2889261 175.782913 24.9880603 174.476893 24.9880603 173.32233 24.9880603 172.686214 24.4420472 172.569709 23.6408323L169.856311 23.6408323C170.005437 25.6005446 171.530485 27 174.410485 27 177.609709 27 179.166214 25.5340735 179.166214 22.9595029zM163.860971 20.6223293C162.622524 20.6223293 161.818641 19.615766 161.818641 18.3884234 161.818641 17.1610809 162.622524 16.1378997 163.860971 16.1378997 165.100583 16.1378997 165.921942 17.1610809 165.921942 18.3884234 165.921942 19.615766 165.100583 20.6223293 163.860971 20.6223293zM163.860971 23.025974C166.876117 23.025974 168.666796 20.8941489 168.666796 18.3884234 168.666796 15.8648932 166.876117 13.734255 163.860971 13.734255 160.880777 13.734255 159.072621 15.8648932 159.072621 18.3884234 159.072621 20.8941489 160.880777 23.025974 163.860971 23.025974zM155.019417 22.78739L157.749126 22.78739 157.749126 10 156.384854 10 155.019417 10 155.019417 22.78739zM148.890097 20.6223293C147.65165 20.6223293 146.847767 19.615766 146.847767 18.3884234 146.847767 17.1610809 147.65165 16.1378997 148.890097 16.1378997 150.130874 16.1378997 150.951068 17.1610809 150.951068 18.3884234 150.951068 19.615766 150.130874 20.6223293 148.890097 20.6223293zM148.890097 23.025974C151.905243 23.025974 153.697087 20.8941489 153.697087 18.3884234 153.697087 15.8648932 151.905243 13.734255 148.890097 13.734255 145.911068 13.734255 144.101748 15.8648932 144.101748 18.3884234 144.101748 20.8941489 145.911068 23.025974 148.890097 23.025974zM134.155728 22.78739L136.885437 22.78739 136.885437 18.184262C136.885437 16.9391146 137.453981 16.1378997 138.559612 16.1378997 139.73165 16.1378997 140.099806 16.8714565 140.099806 17.9278732L140.099806 22.78739 142.829515 22.78739 142.829515 17.7237118C142.829515 15.2334171 141.75767 13.7508728 139.565049 13.7508728 138.274175 13.7508728 137.336311 14.3301215 136.850485 15.2512219L136.850485 13.971652 134.155728 13.971652 134.155728 22.78739zM123.756505 22.78739L126.486214 22.78739 126.486214 18.184262C126.486214 16.9391146 127.054757 16.1378997 128.160388 16.1378997 129.332427 16.1378997 129.701748 16.8714565 129.701748 17.9278732L129.701748 22.78739 132.430291 22.78739 132.430291 17.7237118C132.430291 15.2334171 131.359612 13.7508728 129.165825 13.7508728 127.892427 13.7508728 126.972039 14.3301215 126.486214 15.2512219L126.486214 10 123.756505 10 123.756505 22.78739zM122.534369 17.3664293C122.198835 15.31888 120.708738 13.734255 118.096699 13.734255 115.166602 13.734255 113.392233 15.8648932 113.392233 18.3884234 113.392233 20.8941489 115.166602 23.025974 118.096699 23.025974 120.708738 23.025974 122.198835 21.440162 122.534369 19.3949867L119.78835 19.3949867C119.554175 20.1617791 118.968155 20.6733696 118.11301 20.6733696 116.907184 20.6733696 116.137087 19.6335707 116.137087 18.3884234 116.137087 17.1444631 116.907184 16.0868594 118.11301 16.0868594 118.968155 16.0868594 119.536699 16.5984499 119.770874 17.3664293L122.534369 17.3664293zM108.03301 15.7117721C109.072233 15.7117721 109.740971 16.3764837 109.841165 17.4174696L106.173592 17.4174696C106.274951 16.3432481 107.011262 15.7117721 108.03301 15.7117721zM112.302913 20.1107387L109.70835 20.1107387C109.421748 20.6401341 108.920777 21.0140344 108.065631 21.0140344 106.827184 21.0140344 106.208544 20.2128194 106.157282 19.1053624L112.453204 19.1053624C112.503301 18.6958525 112.520777 18.3884234 112.520777 18.0643765 112.520777 15.7283899 110.92932 13.734255 108.065631 13.734255 105.119223 13.734255 103.511456 15.8304706 103.511456 18.3884234 103.511456 20.9297584 105.136699 23.025974 108.100583 23.025974 110.460971 23.025974 111.867184 21.7475911 112.302913 20.1107387zM96.4454369 13.971652L96.4454369 16.1545175 97.8015534 16.1545175 97.8015534 19.7356514C97.8015534 22.157101 98.9398058 22.9238933 100.999612 22.9238933 101.753398 22.9238933 102.323107 22.8562352 102.707573 22.78739L102.707573 20.5534842C102.373204 20.6045245 101.871068 20.6567519 101.619417 20.6567519 100.916893 20.6567519 100.531262 20.4181679 100.531262 19.53149L100.531262 16.1545175 102.507184 16.1545175 102.507184 13.971652 100.531262 13.971652 100.531262 11.3638458 97.8015534 11.3638458 97.8015534 13.971652 96.4454369 13.971652zM92.7464078 21.1683424C92.7464078 22.1392962 93.5165049 22.9416981 94.4858252 22.9416981 95.4737864 22.9416981 96.2275728 22.1392962 96.2275728 21.1683424 96.2275728 20.1962016 95.4737864 19.3949867 94.4858252 19.3949867 93.5165049 19.3949867 92.7464078 20.1962016 92.7464078 21.1683424zM86.0648544 23.0105432C89.5308738 23.0105432 91.4229126 20.8941489 91.791068 18.2008798L88.9273786 18.2008798C88.6594175 19.4804497 87.6213592 20.4347856 86.1312621 20.4347856 83.9712621 20.4347856 82.8493204 18.6780478 82.8493204 16.6494903 82.8493204 14.6209328 83.9712621 12.8641949 86.1312621 12.8641949 87.6213592 12.8641949 88.6594175 13.8197179 88.9273786 15.0981008L91.791068 15.0981008C91.4229126 12.4036447 89.5308738 10.2896244 86.0648544 10.2896244 82.1957282 10.2896244 79.9530097 13.2903226 79.9530097 16.6494903 79.9530097 20.008658 82.1957282 23.0105432 86.0648544 23.0105432zM76.6699029 22.78739L79.9856311 22.78739 76.0838835 16.6150677 79.9530097 10.5104036 76.7036893 10.5104036 74.3095146 14.5520877 71.8815534 10.5104036 68.5821359 10.5104036 72.4675728 16.6150677 68.5483495 22.78739 71.7801942 22.78739 74.2419417 18.6958525 76.6699029 22.78739zM62.2862136 13.0006982C64.5137864 13.0006982 65.7860194 14.7740539 65.7860194 16.6494903 65.7860194 18.5083089 64.5137864 20.2994693 62.2862136 20.2994693L60.8287379 20.2994693 60.8287379 13.0006982 62.2862136 13.0006982zM58 22.78739L62.4201942 22.78739C66.4384466 22.78739 68.6834951 19.7866918 68.6834951 16.6494903 68.6834951 13.5122888 66.4221359 10.5104036 62.4201942 10.5104036L58 10.5104036 58 22.78739z"/>
  </g>
</svg>
