<svg xmlns="http://www.w3.org/2000/svg" xmlns:xlink="http://www.w3.org/1999/xlink" width="190" height="62" viewBox="0 0 190 62">
  <defs>
    <polygon id="forrester-logo-a" points="0 0 189.419 0 189.419 61.484 0 61.484"/>
  </defs>
  <g fill="none" fill-rule="evenodd">
    <mask id="forrester-logo-b" fill="#fff">
      <use xlink:href="#forrester-logo-a"/>
    </mask>
    <path fill="#1D2737" d="M94.7106154,61.4835765 C147.015423,61.4835765 189.419038,47.7217647 189.419038,30.7417882 C189.419038,13.764 147.016154,0 94.7106154,0 C42.4050769,0 0,13.7632706 0,30.7417882 C0,47.7217647 42.4050769,61.4835765 94.7106154,61.4835765" mask="url(#forrester-logo-b)"/>
    <path fill="#FFF" d="M156.734404 28.9055794C156.734404 29.8526466 156.734404 29.90701 158.110466 29.90701 159.103071 29.90701 161.833284 29.90701 161.833284 26.5321888 161.833284 25.5600858 161.444714 22.6723891 158.028662 22.6723891 156.762889 22.6723891 156.735134 23.3197425 156.735134 24.3741059L156.735134 28.9055794 156.734404 28.9055794zM153.781421 24.6416309C153.781421 23.5364807 153.781421 22.806867 152.434574 22.7253219 151.826887 22.6988555 151.440508 22.6716738 151.440508 22.295422 151.440508 21.916309 151.552989 21.916309 152.460138 21.916309 152.738418 21.916309 154.087456 22.0250358 154.414672 22.0250358 155.163326 22.0250358 158.826982 21.916309 159.655249 21.916309 164.532089 21.916309 164.944762 25.2088698 164.944762 26.1545064 164.944762 29.3104435 162.106451 29.9592275 161.167165 30.1480687 161.527249 30.3640916 161.858848 30.5250358 162.492099 31.6587983L165.162419 36.3004292C165.714597 37.2453505 166.098785 37.9206009 166.872272 38.0271817 167.781612 38.1380544 168 38.1630901 168 38.5114449 168 38.8111588 167.726102 38.8361946 167.535469 38.8361946 167.176116 38.8361946 165.38519 38.7296137 164.968865 38.7296137 164.749016 38.7296137 163.730847 38.8361946 163.481783 38.8361946 162.988037 38.8361946 162.874826 38.5951359 162.575364 38.0271817L159.239655 31.8762518C158.634158 30.7153076 158.496844 30.6065808 157.255905 30.6065808 156.786262 30.6065808 156.733673 30.7682403 156.733673 31.2267525L156.733673 36.0844063C156.733673 37.2181688 156.733673 37.9456366 158.109735 38.0271817 158.715232 38.0543634 159.102341 38.0815451 159.102341 38.4864092 159.102341 38.8633763 158.742987 38.8361946 158.521678 38.8361946 157.999446 38.8361946 155.324743 38.7296137 155.216645 38.7296137 154.747002 38.7296137 152.514187 38.8361946 152.019711 38.8361946 151.801323 38.8361946 151.439778 38.8633763 151.439778 38.4592275 151.439778 38.0822604 151.853911 38.0550787 152.433844 38.0271817 153.78069 37.9206009 153.78069 37.2181688 153.78069 36.0844063L153.78069 24.6416309 153.781421 24.6416309zM138.415393 24.6702432C138.415393 23.5629471 138.415393 22.8347639 137.036409 22.7539342 136.429451 22.7253219 136.046725 22.6995708 136.046725 22.2961373 136.046725 21.9170243 136.403888 21.9170243 136.596712 21.9170243 136.652222 21.9170243 136.679977 21.944206 137.285473 21.9706724 137.89097 21.9992847 139.073478 22.0264664 141.41439 22.0264664L142.737864 22.0264664C145.581288 22.0264664 146.984375 21.9992847 147.727916 21.9706724 148.445893 21.944206 148.473648 21.9170243 148.553991 21.9170243 148.887781 21.9170243 148.887781 22.1337625 148.887781 22.7539342L148.887781 25.2360515C148.887781 25.3712446 148.887781 25.695279 148.609501 25.695279 148.305657 25.695279 148.252339 25.5865522 147.753479 24.5886981 147.426263 23.8869814 146.766717 22.8626609 142.853266 22.8626609 141.468439 22.8626609 141.359611 23.0493562 141.359611 24.3998569L141.359611 28.3133047C141.359611 29.1759657 141.359611 29.3927039 142.962095 29.3927039 146.018063 29.3927039 146.267858 28.7982833 146.766717 27.3690987 146.90184 27.0171674 147.040615 26.9635193 147.175738 26.9635193 147.344459 26.9635193 147.479582 27.0450644 147.479582 27.3404864 147.479582 27.7188841 147.288218 30.4978541 147.288218 31.09299 147.288218 31.2818312 147.370023 32.2246066 147.370023 32.4427754 147.370023 32.6065808 147.370023 32.9792561 147.040615 32.9792561 146.820036 32.9792561 146.650585 32.8469242 146.516192 32.3340486 145.936259 30.2553648 145.165694 30.230329 142.905855 30.230329 141.583842 30.230329 141.359611 30.230329 141.359611 31.0393419L141.359611 35.6809728C141.359611 37.5987124 141.941735 37.8919886 144.257084 37.8919886 145.468077 37.8919886 147.175738 37.8919886 148.391113 35.5994278 148.887781 34.6566524 148.936718 34.5472103 149.187243 34.5472103 149.435577 34.5472103 149.51665 34.7904149 149.51665 34.9513591 149.51665 35.3011445 149.214998 37.0300429 149.131733 38.027897 149.106169 38.5414878 148.827889 38.8369099 148.03176 38.8369099 146.625751 38.8369099 144.698242 38.8118741 143.097218 38.7846924 141.52468 38.7596567 140.234074 38.730329 140.069005 38.730329L139.735215 38.730329C138.605295 38.730329 137.917994 38.7596567 137.477567 38.7846924 137.035678 38.8118741 136.81583 38.8369099 136.623736 38.8369099 136.403157 38.8369099 136.045995 38.8369099 136.045995 38.4327611 136.045995 38.055794 136.458667 38.0286123 137.035678 37.9756795 138.414662 37.8919886 138.414662 37.1666667 138.414662 36.0579399L138.414662 24.6702432 138.415393 24.6702432zM128.086161 36.0579399C128.086161 37.1666667 128.086161 37.8912732 129.462954 37.9756795 130.042887 38.0007153 130.429265 38.027897 130.429265 38.4327611 130.429265 38.8376252 130.070642 38.8369099 129.849332 38.8369099 128.939992 38.8369099 127.50842 38.730329 126.596888 38.730329 126.130897 38.730329 123.897352 38.8369099 123.372929 38.8369099 123.15162 38.8369099 122.797379 38.8369099 122.797379 38.4327611 122.797379 38.055794 123.180105 38.0286123 123.760038 37.9756795 125.140482 37.8919886 125.140482 37.1666667 125.140482 36.1108727L125.140482 23.5622318C125.140482 22.8619456 124.915521 22.8619456 124.365534 22.8619456 122.713383 22.8619456 120.892511 22.8619456 119.488694 25.4241774 119.238169 25.8562232 119.103776 25.9649499 118.855442 25.9649499 118.632672 25.9649499 118.495358 25.7761087 118.495358 25.6158798 118.495358 25.4785408 118.549407 25.3154506 118.579354 25.1824034L119.707082 21.3776824C119.790347 21.0536481 119.874342 20.8927039 120.121946 20.8927039 120.340333 20.8927039 120.425789 21.0257511 120.451353 21.2711016 120.592319 21.9985694 121.083874 22.0257511 121.693753 22.0257511L130.538094 22.0257511C133.375674 22.0257511 133.512258 21.6738197 133.705082 21.1895565 133.788347 20.9728183 133.869421 20.8090129 134.092191 20.8090129 134.476378 20.8090129 134.476378 21.2424893 134.476378 21.8905579L134.286476 25.1831187C134.256529 25.7238913 134.20248 26.0457797 133.843857 26.0457797 133.705082 26.0457797 133.512258 26.0207439 133.401238 25.453505 132.934516 22.8633763 131.584018 22.8633763 129.795283 22.8633763 128.220554 22.8633763 128.084701 22.8633763 128.084701 23.7539342L128.084701 36.0579399 128.086161 36.0579399zM112.187676 39C110.036666 39 108.30125 38.2703863 107.805312 37.9206009 107.501468 37.702432 107.475905 37.3254649 107.475905 36.6509299 107.475905 36.5422031 107.475905 35.1967096 107.556978 34.2238913 107.556978 34.1151645 107.584733 33.7374821 107.916332 33.7374821 108.164666 33.7374821 108.245009 33.9513591 108.300519 34.1945637 108.822751 36.5958512 110.697672 38.297568 112.655128 38.297568 113.812803 38.297568 115.936058 37.4864092 115.936058 35.3011445 115.936058 33.1974249 114.058945 32.1702432 112.077386 31.2818312 109.843842 30.3097282 107.665077 29.2575107 107.665077 26.3969957 107.665077 23.9148784 109.596238 21.7553648 113.097016 21.7553648 114.694388 21.7553648 116.319515 22.1874106 116.703702 22.3755365 117.037492 22.5643777 117.037492 22.8075823 117.037492 25.1824034 117.037492 25.776824 117.037492 25.9914163 116.651113 25.9914163 116.377216 25.9914163 116.264005 25.8311874 115.990107 24.9935622 115.660699 23.9413448 115.16184 22.4034335 112.874246 22.4034335 110.615868 22.4034335 109.870136 23.9413448 109.870136 24.9935622 109.870136 26.9098712 111.469699 27.583691 113.674758 28.4742489 115.219541 29.1216023 118.112632 30.4427754 118.112632 33.4942775 118.112632 36.4892704 115.852793 39 112.187676 39zM94.4186517 24.6702432C94.4186517 23.5629471 94.4186517 22.8347639 93.0403983 22.7539342 92.4349017 22.7253219 92.047793 22.6995708 92.047793 22.2961373 92.047793 21.9170243 92.4071468 21.9170243 92.5999708 21.9170243 92.6554807 21.9170243 92.6810445 21.944206 93.2887323 21.9706724 93.8942289 21.9992847 95.0796583 22.0264664 97.4227621 22.0264664L98.7447752 22.0264664C101.585277 22.0264664 102.989094 21.9992847 103.733366 21.9706724 104.448422 21.944206 104.476177 21.9170243 104.55652 21.9170243 104.89104 21.9170243 104.89104 22.1337625 104.89104 22.7539342L104.89104 25.2360515C104.89104 25.3712446 104.89104 25.695279 104.614951 25.695279 104.313299 25.695279 104.257058 25.5865522 103.75893 24.5886981 103.429522 23.8869814 102.767785 22.8626609 98.8543343 22.8626609 97.478272 22.8626609 97.3672522 23.0493562 97.3672522 24.3998569L97.3672522 28.3133047C97.3672522 29.1759657 97.3672522 29.3927039 98.9653541 29.3927039 102.023514 29.3927039 102.271117 28.7982833 102.767055 27.3690987 102.905099 27.0171674 103.043874 26.9635193 103.180458 26.9635193 103.344796 26.9635193 103.484302 27.0450644 103.484302 27.3404864 103.484302 27.7188841 103.289286 30.4978541 103.289286 31.09299 103.289286 31.2818312 103.371821 32.2246066 103.371821 32.4427754 103.371821 32.6065808 103.371821 32.9792561 103.043144 32.9792561 102.820373 32.9792561 102.656035 32.8469242 102.520182 32.3340486 101.94244 30.2553648 101.166762 30.230329 98.9069226 30.230329 97.5863703 30.230329 97.3665218 30.230329 97.3665218 31.0393419L97.3665218 35.6809728C97.3665218 37.5987124 97.9464546 37.8919886 100.259612 37.8919886 101.472797 37.8919886 103.180458 37.8919886 104.391451 35.5994278 104.89031 34.6566524 104.943629 34.5472103 105.191963 34.5472103 105.439566 34.5472103 105.523562 34.7904149 105.523562 34.9513591 105.523562 35.3011445 105.219718 37.0300429 105.135722 38.027897 105.107967 38.5414878 104.83407 38.8369099 104.032097 38.8369099 102.630471 38.8369099 100.70004 38.8118741 99.1019378 38.7846924 97.5308604 38.7596567 96.2366023 38.730329 96.0693421 38.730329L95.742856 38.730329C94.6107454 38.730329 93.9219839 38.7596567 93.4830171 38.7846924 93.0403983 38.8118741 92.8198194 38.8369099 92.6248042 38.8369099 92.4064164 38.8369099 92.0470626 38.8369099 92.0470626 38.4327611 92.0470626 38.055794 92.4619263 38.0286123 93.0396679 37.9756795 94.4179213 37.8919886 94.4179213 37.1666667 94.4179213 36.0579399L94.4179213 24.6702432 94.4186517 24.6702432zM79.9298268 28.9055794C79.9298268 29.8526466 79.9298268 29.90701 81.3080802 29.90701 82.3006856 29.90701 85.0294374 29.90701 85.0294374 26.5321888 85.0294374 25.5600858 84.6423286 22.6723891 81.2270064 22.6723891 79.9605033 22.6723891 79.9305572 23.3197425 79.9305572 24.3741059L79.9305572 28.9055794 79.9298268 28.9055794zM76.9812264 24.6416309C76.9812264 23.5364807 76.9812264 22.806867 75.6299975 22.7253219 75.0252313 22.6988555 74.6381225 22.6716738 74.6381225 22.295422 74.6381225 21.916309 74.7513336 21.916309 75.6584829 21.916309 75.936763 21.916309 77.2828791 22.0250358 77.6166691 22.0250358 78.3594798 22.0250358 82.0245966 21.916309 82.8506722 21.916309 87.7297039 21.916309 88.1401853 25.2088698 88.1401853 26.1545064 88.1401853 29.3104435 85.3026047 29.9592275 84.3677005 30.1480687 84.7248631 30.3640916 85.056462 30.5250358 85.6904439 31.6587983L88.3629554 36.3004292C88.9144029 37.2453505 89.2978597 37.9206009 90.0728077 38.0271817 90.9777658 38.1380544 91.200536 38.1630901 91.200536 38.5114449 91.200536 38.8111588 90.924447 38.8361946 90.7338142 38.8361946 90.3744604 38.8361946 88.5835344 38.7296137 88.1701314 38.7296137 87.9495524 38.7296137 86.9291921 38.8361946 86.6830493 38.8361946 86.1863814 38.8361946 86.0753615 38.5951359 85.7715177 38.0271817L82.4379996 31.8762518C81.8303119 30.7153076 81.695189 30.6065808 80.4535192 30.6065808 79.9853367 30.6065808 79.9298268 30.7682403 79.9298268 31.2267525L79.9298268 36.0844063C79.9298268 37.2181688 79.9298268 37.9456366 81.3080802 38.0271817 81.9135768 38.0543634 82.3006856 38.0815451 82.3006856 38.4864092 82.3006856 38.8633763 81.9391406 38.8361946 81.7207528 38.8361946 81.1963299 38.8361946 78.5238184 38.7296137 78.4149897 38.7296137 77.9460768 38.7296137 75.712532 38.8361946 75.2195161 38.8361946 74.9974764 38.8361946 74.6381225 38.8633763 74.6381225 38.4592275 74.6381225 38.0822604 75.0529863 38.0550787 75.6299975 38.0271817 76.9812264 37.9206009 76.9812264 37.2181688 76.9812264 36.0844063L76.9812264 24.6416309zM62.2185036 28.9055794C62.2185036 29.8526466 62.2185036 29.90701 63.5989482 29.90701 64.5893624 29.90701 67.3159231 29.90701 67.3159231 26.5321888 67.3159231 25.5600858 66.9310055 22.6723891 63.5156833 22.6723891 62.246989 22.6723891 62.219234 23.3197425 62.219234 24.3741059L62.219234 28.9055794 62.2185036 28.9055794zM59.2699032 24.6416309C59.2699032 23.5364807 59.2699032 22.806867 57.9194048 22.7253219 57.3139082 22.6988555 56.9289906 22.6716738 56.9289906 22.295422 56.9289906 21.916309 57.0400105 21.916309 57.9478902 21.916309 58.2239791 21.916309 59.5744775 22.0250358 59.9038852 22.0250358 60.648887 22.0250358 64.3118127 21.916309 65.1400795 21.916309 70.01692 21.916309 70.4295925 25.2088698 70.4295925 26.1545064 70.4295925 29.3104435 67.592012 29.9592275 66.6549166 30.1480687 67.0142704 30.3640916 67.3458692 30.5250358 67.981312 31.6587983L70.6516323 36.3004292C71.201619 37.2453505 71.5865366 37.9206009 72.3571022 38.0271817 73.2686339 38.1380544 73.4892128 38.1630901 73.4892128 38.5114449 73.4892128 38.8111588 73.2153151 38.8361946 73.0202999 38.8361946 72.6631373 38.8361946 70.8722113 38.7296137 70.4588083 38.7296137 70.2382293 38.7296137 69.217869 38.8361946 68.969535 38.8361946 68.4728671 38.8361946 68.3640384 38.5951359 68.0601945 38.0271817L64.7266765 31.8762518C64.1211799 30.7153076 63.9838658 30.6065808 62.7421961 30.6065808 62.2740136 30.6065808 62.2185036 30.7682403 62.2185036 31.2267525L62.2185036 36.0844063C62.2185036 37.2181688 62.2185036 37.9456366 63.5989482 38.0271817 64.2022536 38.0543634 64.5893624 38.0815451 64.5893624 38.4864092 64.5893624 38.8633763 64.2300086 38.8361946 64.0116208 38.8361946 63.487198 38.8361946 60.8124953 38.7296137 60.7029362 38.7296137 60.2347537 38.7296137 58.0012089 38.8361946 57.5067322 38.8361946 57.2861532 38.8361946 56.9289906 38.8633763 56.9289906 38.4592275 56.9289906 38.0822604 57.3416632 38.0550787 57.9194048 38.0271817 59.2699032 37.9206009 59.2699032 37.2181688 59.2699032 36.0844063L59.2699032 24.6416309zM47.4769624 22.4570815C43.6190215 22.4570815 41.6075165 25.9377682 41.6075165 29.7711016 41.6075165 34.1402003 44.2245181 38.2982833 47.9458753 38.2982833 51.8038162 38.2982833 53.8153211 34.1151645 53.8153211 30.2010014 53.8153211 26.990701 51.8593261 22.4570815 47.4769624 22.4570815zM47.7252963 39C42.9039658 39 38.3039446 35.4921316 38.3039446 30.3369099 38.3039446 25.4792561 42.461347 21.7553648 47.8071004 21.7553648 52.962221 21.7553648 57.1240058 25.4527897 57.1240058 30.0958512 57.1232754 35.3304721 52.4093128 39 47.7252963 39zM25.7835314 22.2296137C25.7835314 20.9313305 25.7835314 20.0751073 24.1657088 19.9806867 23.4871728 19.9177396 23.0014608 19.8855508 23.0014608 19.4420601 23.0014608 19 23.4221677 19 23.6478594 19 23.7143253 19 23.7464626 19.0314735 24.5550087 19.0615165 25.393501 19.0915594 26.9791863 19.1244635 30.1826942 19.1244635L30.569803 19.1244635C33.9332672 19.1244635 35.6131733 19.0922747 36.4545871 19.0615165 37.3274079 19.0314735 37.3595452 19 37.3938738 19 37.9095319 19 37.9438604 19.1559371 37.9438604 19.5679542L37.9438604 22.9241774C37.9438604 23.0214592 37.9438604 23.527897 37.5866978 23.527897 37.2317263 23.527897 37.0045738 23.0529328 36.9402991 22.8948498 36.1638903 21.1523605 35.646041 20.1080114 30.8933675 20.1080114 29.7933942 20.1080114 29.2412164 20.1716738 29.2412164 21.6609442L29.2412164 25.8712446C29.2412164 27.5822604 29.3398196 27.6137339 29.7590657 27.676681 30.2447777 27.7403433 31.248339 27.7403433 31.734051 27.7403433 34.3532437 27.7403433 34.7082152 27.0107296 35.2282557 25.397711 35.2925303 25.1444921 35.4188885 24.888412 35.7439138 24.888412 36.0667479 24.888412 36.1310226 25.111588 36.1310226 25.4291845 36.1310226 25.8712446 36.0346106 28.0264664 36.0346106 28.5 36.0346106 28.786123 36.0346106 29.3247496 36.0988853 30.0515021L36.2296258 31.5414878C36.2296258 31.7618026 36.2296258 32.1409156 35.8403258 32.1409156 35.5196829 32.1409156 35.3546138 31.8562232 35.3224765 31.6337625 35.2582018 31.4785408 35.0332405 30.5901288 34.967505 30.4306152 34.5161216 28.7203147 32.4425331 28.7203147 31.6354478 28.7203147 29.2412164 28.7203147 29.2412164 28.7203147 29.2412164 30.2081545L29.2412164 35.5937053C29.2412164 36.8283262 29.2412164 37.7775393 30.7326808 37.8741059 31.6697763 37.9077253 32.1233509 37.9370529 32.1233509 38.4148784 32.1233509 38.8547926 31.6997225 38.8547926 31.4404326 38.8547926 30.3404593 38.8547926 28.630607 38.7288984 27.5306337 38.7288984 26.4627978 38.7288984 24.746372 38.8547926 23.6807272 38.8547926 23.4221677 38.8547926 23 38.8547926 23 38.3812589 23 37.9370529 23.485712 37.9077253 24.164248 37.8741059 25.7820706 37.7460658 25.7820706 36.9248927 25.7820706 35.6237482L25.7820706 22.2296137 25.7835314 22.2296137zM167.983214 24.3220472L167.983214 23.4283465 168.573827 23.4283465C168.872241 23.4283465 169.193192 23.4952756 169.193192 23.8519685 169.193192 24.296063 168.865247 24.3228346 168.5 24.3228346L167.983214 24.3228346 167.983214 24.3220472zM167.983214 24.692126L168.482903 24.692126 169.233603 25.9425197 169.714641 25.9425197 168.904103 24.6716535C169.325303 24.619685 169.646254 24.3944882 169.646254 23.8779528 169.646254 23.307874 169.310538 23.0574803 168.639882 23.0574803L167.553466 23.0574803 167.553466 25.9425197 167.983991 25.9425197 167.983991 24.692126 167.983214 24.692126zM168.507771 27C169.852191 27 171 25.9425197 171 24.4937008 171 23.0574803 169.852191 22 168.507771 22 167.148586 22 166 23.0574803 166 24.4937008 166 25.9425197 167.147809 27 168.507771 27zM166.498912 24.4937008C166.498912 23.307874 167.380945 22.4173228 168.507771 22.4173228 169.622941 22.4173228 170.503419 23.307874 170.503419 24.4937008 170.503419 25.6952756 169.622164 26.5850394 168.507771 26.5850394 167.380168 26.5850394 166.498912 25.6952756 166.498912 24.4937008z"/>
  </g>
</svg>
