<svg xmlns="http://www.w3.org/2000/svg" width="157" height="105" viewBox="0 0 157 105"><g fill="#1D2737" fill-rule="evenodd"><path d="M25.297 88.524c-1.493 0-6.676 6.645-7.467 7.607 2.9-.612 7.906-5.245 7.906-7.343 0-.175-.175-.263-.44-.263zM12.12 99.628c.53-.96 1.143-1.837 1.758-2.71l-1.67.262C10.1 100.502 6.676 104 2.458 104 .967 104 0 103.3 0 102.338c0-.61.438-1.136.966-1.136.527 0 .966.263.966.874 0 .612-.44.875-.79.875-.176 0-.352 0-.352.176 0 .436.966.612 1.67.612 3.777 0 6.235-4.022 8.08-6.383-2.02.436-3.777 1.312-5.007 2.448l-.176-.087c.88-1.05 3.514-2.45 5.36-2.623 1.49-2.186 4.742-5.946 7.377-7.607V89.4c-1.14.697-2.02 1.135-3.074 1.135-1.757 0-2.37-1.748-4.568-1.748-2.196 0-4.656 2.01-4.656 4.196 0 1.312 1.055 1.924 1.933 1.924 1.844 0 4.39-2.1 4.83-3.76h.176c-.44 2.01-2.46 4.022-4.743 4.022-1.494 0-2.46-.788-2.46-2.362 0-2.36 3.602-4.808 5.798-4.808 1.933 0 3.075 1.923 4.83 1.923 1.144 0 2.285-.874 3.252-1.574l.088.262c-3.075 2.185-5.095 5.245-7.115 8.305l1.67-.262c.877-1.223 2.02-2.535 2.546-2.972l.09.088c-.79.7-1.582 1.837-2.197 2.885l1.668-.262c1.32-1.748 6.853-8.13 9.137-8.13.44 0 .703.26.703.61 0 2.712-5.622 7.084-8.345 7.52-.966 1.31-3.513 4.46-3.513 6.12 0 .875.79 1.225 1.493 1.225 3.25 0 6.5-3.935 6.5-5.51 0-.698-.352-1.135-.966-1.135-1.407 0-3.076 1.66-3.866 2.623h-.264c.967-1.137 2.547-2.885 4.13-2.885.877 0 1.228.612 1.228 1.487 0 2.623-4.13 5.683-6.5 5.683-1.67 0-2.284-.874-2.284-2.273 0-1.662 1.494-3.76 2.372-5.072l-1.58.262c-.528.7-1.143 1.662-1.582 2.71h-.703zm17.087-1.953c0-.17-.18-.422-.54-.422-.99 0-2.793 2.025-5.226 4.64-.54.59-.63.926-.63 1.263 0 .254.18.59.81.59 1.533 0 3.696-1.602 5.226-3.542-.18-.337-.27-.674-.27-1.095 0-.592.27-1.182.63-1.435zM32 100.12c-.36.253-1.08.675-1.712.675-.54 0-.9-.168-1.17-.422-2.163 2.53-3.965 3.627-5.766 3.627-.63 0-1.352-.507-1.352-1.265C22 100.71 26.144 97 28.577 97c.45 0 .81.17.9.506.09-.084.18-.084.27-.084.36 0 .452.253.452.59 0 .76-.542 1.77-.993 2.192.36.254.72.338 1.08.338.362 0 1.082-.252 1.623-.675l.09.253z"/><path d="M38.62 93H40l-2.76 2.877h1.38l-.172.254h-1.38l-5.344 5.67c-.948 1.016-1.38 1.438-1.38 1.692 0 .17.26.254.518.254.604 0 1.897-.592 5.43-3.64l.174.17C33.448 102.9 31.724 104 30.776 104c-.518 0-.776-.338-.776-.846 0-.592.345-1.354 1.55-2.708l4.053-4.315h-1.38l.174-.253h1.465L38.622 93z"/><path d="M40.333 97.26c-.833 0-1.917 1.037-4.083 3.543 2.25 0 4.5-1.988 4.5-3.11 0-.26-.167-.433-.417-.433zM42 100.37c-1.917 1.73-4.417 3.63-6.667 3.63-.666 0-1.333-.26-1.333-1.037C34 100.63 38.083 97 40.333 97c.5 0 .916.433.916.95 0 1.99-3.667 3.112-5.167 3.112-1.25 1.383-1.416 1.9-1.416 2.16 0 .433.417.52.833.52 1.834 0 4-1.557 6.5-3.63v.26zM55.304 89.27c-.87 0-3.913 2.95-8.52 8.94h.085c4.173-3.04 8.87-6.168 8.87-8.403 0-.358-.175-.537-.436-.537zm-6.173 12.246c-3.304 3.04-4.956 3.486-5.912 3.486-.87 0-1.218-.537-1.218-1.34C42 100.977 52.956 89 55.217 89c.435 0 .783.268.783.805 0 2.592-6.348 6.792-9.652 9.028 0 0-3.826 4.827-3.826 5.363 0 .357.26.537.52.537 1.22 0 2.87-.716 5.393-2.95l.696-.27zm16.42-4.254c-.924 0-1.68.432-5.206 4.234-.84.95-.84 1.382-.84 1.642 0 .345.252.605.84.605 1.93 0 5.962-4.58 5.962-5.702 0-.518-.42-.778-.756-.778zm3.527 0c-1.344 1.296-3.275 3.543-4.787 5.185-.336.43-.504.69-.504.864 0 .345.252.43.504.43 1.26 0 4.45-2.592 5.458-3.715l.252.173c-1.092 1.124-4.198 3.802-5.794 3.802-.587 0-.923-.432-.923-.864 0-.345.083-.605.252-.864h-.084c-1.175 1.123-2.266 1.728-3.106 1.728-.84 0-1.344-.52-1.344-1.382C59 99.938 63.62 97 65.298 97c.672 0 1.26.347 1.26.865 0 .173 0 .26-.085.52h.085l1.09-1.125h1.43zm3.795-.085h1.277l-1.873 2.013.084.087C73.384 98.313 75 97 75.937 97c.766 0 1.276.525 1.276 1.313 0 1.75-3.574 4.374-3.574 5.162 0 .175.085.263.34.263.68 0 2.043-1.05 5.022-3.764v.263c-2.298 2.188-4.17 3.763-5.02 3.763-.512 0-.852-.262-.852-.963 0-1.66 3.574-4.288 3.574-5.163 0-.35-.255-.61-.68-.61-1.277 0-4.682 2.973-7.575 6.386H67l5.872-6.475z"/><path d="M84.89 97.415c-1.074 0-4.385 2.65-5.638 4.276-.626.856-.716 1.112-.716 1.37 0 .426.36.683.895.683 1.79 0 6.265-4.62 6.265-5.644 0-.43-.358-.685-.806-.685zM93.39 91H95l-11.274 11.204c-.715.684-.894 1.026-.894 1.197 0 .257.18.343.626.343 1.252 0 2.862-1.026 5.905-3.678l.09.172C86.23 103.06 84.888 104 83.278 104c-.36 0-.986-.17-.986-.77 0-.342 0-.6.18-.856-.985.94-2.148 1.626-3.132 1.626-1.074 0-1.342-.685-1.342-1.37 0-2.31 4.116-5.472 6.532-5.472.805 0 1.43.257 1.43.855 0 .257-.088.428-.178.684L93.39 91zm16.443 4.432c-.178-.7-.98-.963-1.692-.963-.443 0-.712.087-.712.35 0 .262.447.7 1.247.7.446 0 .89 0 1.158-.088zm2.762-6.558c-1.425.875-2.94 2.1-5.344 5.42l.09.088c.178-.174.535-.174.89-.174.535 0 1.514.26 1.96 1.136 1.78-.437 3.74-2.36 3.74-4.11 0-1.224-.623-1.922-1.335-2.36zm-6.503 1.4c0 2.972-2.938 6.47-5.967 6.47-1.246 0-1.96-.874-1.96-2.01 0-3.324 5.7-6.734 10.956-6.734 1.426 0 2.762.262 3.475.612.534-.263 1.07-.437 1.514-.524l.088.174c-.445.175-.89.35-1.247.437 1.16.612 2.05 1.574 2.05 2.885 0 2.273-2.76 3.672-4.72 4.022.178.35.266.612.266.96 0 1.488-3.384 3.848-3.384 5.86 0 .962.89 1.31 1.69 1.31 1.962 0 5.524-3.234 5.524-5.158 0-.612-.534-1.05-1.158-1.05-.89 0-1.96 1.05-2.494 1.662l-.266-.087c.623-.7 1.69-1.837 2.76-1.837.713 0 1.426.436 1.426 1.4 0 2.272-3.118 5.332-5.79 5.332-1.426 0-2.494-.96-2.494-2.448 0-2.273 3.473-4.284 3.473-5.945-.267.087-.712.174-1.246.174-.802 0-1.425-.523-1.425-1.135h-.09c-2.67 3.672-6.056 9.355-11.4 9.355-1.603 0-2.672-.7-2.672-1.75 0-.698.623-1.136 1.07-1.136.622 0 1.067.438 1.067 1.05 0 .787-1.157.7-1.157.875 0 .35.8.698 1.78.698 5.79 0 10.154-12.765 16.48-14.95-.892-.44-2.317-.526-2.94-.526-6.057 0-10.868 3.847-10.868 6.295 0 1.05.535 1.924 1.693 1.924 2.05 0 5.7-3.496 5.7-6.206h.267zm14.817 6.986c-.91 0-2.09 1.037-4.455 3.543 2.455 0 4.91-1.988 4.91-3.11 0-.26-.182-.433-.456-.433zm2.09 3.11c-2.09 1.73-5.18 3.63-7.545 3.63-.728 0-1.455-.26-1.455-1.037 0-2.333 4.454-5.963 6.91-5.963.545 0 1 .433 1 .95 0 1.99-4 3.112-5.637 3.112-1.364 1.383-1.546 1.9-1.546 2.16 0 .433.456.52.91.52 2 0 4.727-1.557 7.363-3.63v.26zm12.232-2.695c-.09-.17-.268-.422-.535-.422-.982 0-2.768 2.025-5.18 4.64-.534.59-.713.926-.713 1.263 0 .254.268.59.892.59 1.52 0 3.66-1.602 5.18-3.542-.18-.337-.27-.674-.27-1.095 0-.592.27-1.182.626-1.435zM138 100.12c-.446.253-1.07.675-1.785.675-.535 0-.804-.168-1.16-.422-2.144 2.53-3.93 3.627-5.626 3.627-.715 0-1.43-.507-1.43-1.265 0-2.025 4.197-5.735 6.52-5.735.444 0 .802.17.98.506.09-.084.18-.084.268-.084.27 0 .447.253.447.59 0 .76-.626 1.77-.983 2.192.268.254.626.338.983.338.446 0 1.16-.252 1.607-.675l.178.253z"/><path d="M139.612 97.184h1.468l-2.764 3.223c.69-.552 1.555-.92 2.677-1.29.172-1.012 1.295-2.117 1.813-2.117.345 0 .518.092.518.46 0 .83-1.38 1.658-2.072 1.843 0 .644.26 1.197.777 1.197.43 0 3.71-1.66 3.884-1.843l.086.184c-.173.186-3.626 1.936-3.97 1.936-.605 0-1.037-.553-1.037-1.382-1.813.46-3.108 1.475-4.316 2.948L135.382 104H134l5.612-6.816z"/><path d="M150.546 93H152l-2.736 2.877h1.282l-.17.254h-1.368l-5.3 5.67c-.853 1.016-1.28 1.438-1.28 1.692 0 .17.256.254.427.254.684 0 2.905-.423 6.41-3.47l-.086.17c-2.736 2.708-5.386 3.554-6.41 3.554-.513 0-.77-.338-.77-.846 0-.592.427-1.354 1.624-2.708l4.017-4.315h-1.452l.256-.253h1.368L150.546 93zM2.672 62.695H0V62h14.828L15 67.478h-.69c-.43-1.74-.775-3.652-2.586-4.435-.603-.26-1.637-.348-2.758-.348H6.12v7.74c2.5 0 3.88-.435 4.053-3.305h.69v7.566h-.69c-.26-3.044-1.207-3.653-4.052-3.565v8.174h2.587V80H0v-.696h2.672v-16.61zm22.26 7.827c0-.783-.092-1.392-.363-2-.362-1.218-1.265-2.087-3.07-2.087-1.896 0-2.8.87-3.16 2.087-.18.608-.27 1.217-.27 2v4.348c0 .782 0 1.565.18 2.26.45 1.392 1.264 2.35 3.25 2.35 1.987 0 2.8-.958 3.16-2.35.18-.695.27-1.478.27-2.26v-4.348zM15 72.61c0-3.305 2.98-6.61 6.5-6.61 3.43 0 6.5 3.305 6.5 6.61 0 3.65-2.347 7.39-6.5 7.39-4.153 0-6.5-3.74-6.5-7.39zM44 66v.53h-2.012v8.597c0 2.038-.437 3.013-1.226 3.81-.875.71-2.1 1.063-3.937 1.063-1.4 0-2.712-.442-3.587-1.15-.875-.62-1.225-1.95-1.225-4.254V66.53H30V66h6.563v.53H34.55v7.445c0 2.835-.263 5.317 3.412 5.317 2.363 0 3.326-1.507 3.326-3.722v-9.04h-1.925V66H44zm5.507 6.152h1.646c1.82 0 2.514-.89 2.514-2.764 0-2.23-.606-2.853-2.427-2.853h-1.733v5.617zm0 7.047H51.5v.533H45V79.2h1.994V66.534H45V66h6.674c2.166 0 4.766.267 4.766 3.12 0 2.32-2.34 3.122-4.247 3.39 3.12.534 3.814 2.228 3.814 5.617 0 .714.086 1.517 1.993 1.16v.446c-.52.178-1.127.267-1.646.267-2.08 0-3.12-1.07-3.12-3.12 0-1.696-.26-3.032-.78-3.478-.607-.446-1.214-.714-1.82-.714h-1.127v6.51zm16.92.536H66v-5.454h.768c.512 2.64 2.046 5.014 4.86 5.014 2.047 0 3.923-1.584 3.923-3.783 0-2.55-2.216-3.078-4.178-3.782-.512-.175-1.023-.35-1.62-.526-2.387-.792-3.666-2.64-3.666-5.28 0-2.814 2.047-4.924 4.86-4.924 1.534 0 2.643.352 3.837 1.32l1.023-1.057h.427v5.102h-.853c-.256-2.55-1.876-4.75-4.52-4.75-1.705 0-3.325 1.32-3.325 3.167 0 2.11 1.45 2.287 3.07 2.727.682.175 1.194.44 1.62.527.512.176 1.194.352 1.79.615C76.234 69.796 77 71.555 77 74.02c0 3.43-2.132 5.98-5.542 5.98-1.28 0-2.9-.528-3.752-1.408l-1.28 1.144zm18.355-13.23v5.572c1.984 0 3.067-.254 3.158-2.364h.54v5.402h-.54c-.18-2.11-.903-2.616-3.158-2.532v5.91h2.887c2.706 0 3.337-1.436 3.788-3.63H92L91.82 79H80v-.506h2.075V66.506H80V66h11.55l.09 3.545h-.542c-.452-1.857-1.263-2.616-2.346-2.87-.542-.17-1.083-.17-1.805-.17h-2.165zm11.787 8.857h3.822l-1.784-5.796-2.04 5.796zM93 80v-.535h1.614L99.288 66h.68l4.417 13.465H106V80h-6.202v-.535h2.04l-1.19-3.568h-4.25l-1.188 3.568h1.954V80H93zm15.334-.174H108v-4h.5c.417 1.913 1.5 3.653 3.583 3.653 1.5 0 2.834-1.218 2.834-2.785 0-1.913-1.584-2.26-3-2.782-.416-.173-.834-.26-1.167-.435-1.833-.522-2.667-1.913-2.667-3.826 0-2.086 1.5-3.652 3.5-3.652 1.084 0 1.917.26 2.75.957l.75-.783h.334V70h-.583c-.25-1.912-1.418-3.565-3.333-3.565-1.25 0-2.416.957-2.416 2.348 0 1.478 1.082 1.652 2.25 2 .5.174.833.26 1.166.434.417.087.916.262 1.334.436 1.583.78 2.166 2.087 2.166 3.912 0 2.522-1.583 4.435-4.083 4.435-.917 0-2.084-.435-2.75-1.043l-.833.87zm19.814-9.304c0-.783-.085-1.392-.252-2-.42-1.218-1.176-2.087-2.853-2.087-1.763 0-2.603.87-2.938 2.087-.168.608-.252 1.217-.252 2v4.348c0 .782 0 1.565.17 2.26.334 1.392 1.173 2.35 3.02 2.35 1.845 0 2.6-.958 2.937-2.35.168-.695.168-1.478.168-2.26v-4.348zM119 72.61c0-3.305 2.77-6.61 6.043-6.61 3.19 0 5.957 3.305 5.957 6.61 0 3.65-2.182 7.39-5.957 7.39-3.86 0-6.043-3.74-6.043-7.39zM144.95 80h-.625l-8.65-13.02V79.2h1.962v.534H133v-.534h1.962V66.535H133V66h5.26l6.065 9.007v-8.472h-1.962V66H147v.535h-2.05M149.333 79.826H149v-4h.583c.417 1.913 1.5 3.653 3.5 3.653 1.5 0 2.918-1.218 2.918-2.785 0-1.913-1.666-2.26-3.083-2.782-.334-.173-.75-.26-1.166-.435-1.75-.522-2.667-1.913-2.667-3.826 0-2.086 1.5-3.652 3.5-3.652 1.167 0 1.917.26 2.834.957l.75-.783h.333V70h-.667c-.166-1.912-1.333-3.565-3.25-3.565-1.25 0-2.416.957-2.416 2.348 0 1.478 1 1.652 2.166 2 .5.174.917.26 1.25.434.333.087.834.262 1.25.436 1.585.78 2.167 2.087 2.167 3.912 0 2.522-1.583 4.435-4 4.435-.916 0-2.083-.435-2.75-1.043l-.917.87zM91.5 37c.286 0 .5-.266.5-.467 0-.266-.214-.533-.5-.533-.286 0-.5.267-.5.533 0 .2.214.467.5.467"/><path d="M91.32 35.32l.48.16.24-.48.16.48.56-.16-.24.48.48.24-.48.16.24.56-.56-.24-.16.48-.24-.48-.48.24.16-.56-.48-.16.48-.24M76 9c1.047.1 1.905.6 2 2-1.238-.1-1.81-.9-2-2"/><path d="M76 8c1 .106 1.818.632 2 2-1.272 0-1.818-.842-2-2m0-2c1.047.1 1.81.6 2 2-1.238-.1-1.81-.9-2-2m0-2c1.047.106 1.905.632 2 2-1.238 0-1.81-.84-2-2m0-2c1 .1 1.818.7 2 2-1.272-.1-1.818-.9-2-2m0-2c1.048.106 1.81.632 2 2-1.238 0-1.81-.84-2-2"/><path d="M76 52h5v-.174l-1.61-.785L78.543.088c0-.087 0-.087-.086-.087v.087L77.61 51.04l-1.61.786V52zm14-36c-.19 1.2-.76 2-2 2 .097-1.3.952-1.9 2-2m0 2c-.19 1.16-.76 2-2 2 .096-1.368.952-1.894 2-2m-6-1c-1.238 0-1.81-.842-2-2 1.048.105 1.904.63 2 2"/><path d="M81 22c-1.272 0-1.817-.842-2-2 1.09.105 1.818.63 2 2m13 5c-1 .106-1.818.632-2 2 1.273 0 1.818-.84 2-2m-2 7c1.09.106 1.91.632 2 2-1.272 0-1.818-.84-2-2m2-3c-1.142-.1-2-.6-2-2 1.333.1 1.904.9 2 2m-31.843 5.632c-.178-.176-.178-.35-.178-.35l-.357-10.018c0-.176-.09-.264-.09-.264-.09 0-.09.088-.09.264L61 36.896s0 .263.178.35L78 47v-2.372l-15.843-7.996z"/><path d="M93.822 36.632c.268-.176.268-.35.268-.35l.355-10.018c0-.176 0-.264.088-.264 0 0 .09.088.09.264l.355 10.632s.088.263-.088.35L78 47v-2.372l15.822-7.996zM65.924 29.63c-.18-.087-.18-.173-.18-.173l-.27-8.285c0-.085 0-.172-.09-.172 0 0-.09.087-.09.172l-.272 8.717s-.09.17.09.258L79 38v-1.898L65.924 29.63z"/><path d="M91.012 29.63c.18-.087.18-.173.18-.173l.358-8.285V21c.09 0 .09.087.09.172L92 29.89s0 .17-.09.258L78 38v-1.898l13.012-6.472zm-22.328-7.173c-.17-.086-.17-.172-.17-.172l-.172-6.2-.085-.085-.086.086L68 22.8s0 .174.086.26L78 29v-1.635l-9.316-4.908zm18.638 0c.085-.086.085-.172.085-.172l.254-6.2V16c.086 0 .086.086.086.086L88 22.8s0 .174-.084.26L78 29v-1.635l9.322-4.908zm-15.732-7c-.084 0-.084-.083-.084-.083l-.17-4.29c0-.084-.084-.084-.084-.084v.084L71 15.71s0 .17.085.17L78 20v-1.177l-6.41-3.365zm1.873-5.5v-.088l-.185-2.783c0-.087 0-.087-.093-.087v.087L73 10.217s0 .088.093.088L78 13v-.783l-4.537-2.26zm9.073 0c.093 0 .093-.088.093-.088l.185-2.783V7v.087l.185 3.13v.088L78 13v-.783l4.536-2.26zm1.958 5.5c.085 0 .085-.083.085-.083l.168-4.29V11c.083 0 .083 0 .083.084L85 15.71s0 .17-.084.17L78 20v-1.177l6.494-3.365zM83 9c1.273 0 1.818-.842 2-2-1 0-1.818.63-2 2"/><path d="M83 8c1.273 0 1.818-.842 2-2-1 .105-1.818.63-2 2m0 1c-1.24 0-1.81-.9-2-2 1.048.1 1.905.7 2 2"/><path d="M83 10c-1.238-.1-1.81-.9-2-2 1.048.1 1.904.6 2 2m4 1c-.19 1.2-.762 2-2 2 .096-1.3.952-1.9 2-2"/><path d="M87 10c-1.047.1-1.904.7-2 2 1.24 0 1.81-.8 2-2m-21 5c1 .1 1.818.6 2 2-1.272-.1-1.818-.9-2-2"/><path d="M66 16c.19 1.2.762 2 2 2-.095-1.3-.952-1.9-2-2m0 2c.19 1.16.762 2 2 2-.095-1.368-.952-1.894-2-2m0 2c.183 1.2.728 2 2 2-.182-1.3-.908-1.9-2-2"/><path d="M68 23c-1.238 0-1.81-.842-2-2 1.048.105 1.904.632 2 2m3-6c-1.273 0-1.818-.842-2-2 1.09.105 1.817.63 2 2m-1 2c-1.048.1-1.905.7-2 2 1.238 0 1.81-.8 2-2m-1 4c1.24-.1 1.81-.9 2-2-1.047.1-1.904.6-2 2"/><path d="M72 22c-.19 1.16-.762 2-2 2 .096-1.368.952-1.894 2-2"/><path d="M73 22c-.19 1.16-.762 2-2 2 .095-1.368.952-1.894 2-2m2 1c-.182 1.16-.728 2-2 2 .182-1.368 1-1.894 2-2"/><path d="M76 24c-.182 1.1-.818 1.9-2 2 .182-1.4.91-1.9 2-2"/><path d="M75 27c1.24-.1 1.81-.9 2-2-1.047.1-1.904.6-2 2m-4-11c1.272 0 1.818-.84 2-2-1.09.106-1.817.63-2 2m4-1c-.19 1.1-.762 1.9-2 2 .095-1.4.952-1.9 2-2"/><path d="M76 16c-.19 1.1-.762 1.9-2 2 .096-1.4.952-1.9 2-2"/><path d="M77 16c-.182 1.1-.728 2-2 2 .182-1.3 1-1.9 2-2m-8 8c-.183 1.158-.82 2-2 2 .182-1.368.91-1.894 2-2"/><path d="M68 27c.182-1.3.91-1.9 2-2-.182 1.2-.82 2-2 2m2 0c.182-1.3.91-1.9 2-2-.182 1.2-.818 2-2 2"/><path d="M71 28c.182-1.4.91-1.9 2-2-.182 1.1-.818 1.9-2 2m2 2c.182-1.37.91-1.895 2-2-.182 1.158-.818 2-2 2m-1-13c-.182 1.1-.728 1.9-2 2 .182-1.4.91-1.9 2-2"/><path d="M71 20c.182-1.37 1-1.895 2-2-.182 1.158-.728 2-2 2m2 1c.096-1.37.953-1.895 2-2-.19 1.158-.76 2-2 2"/><path d="M74 21c.096-1.37.953-1.894 2-2-.19 1.16-.76 2-2 2"/><path d="M75 22c1.24 0 1.81-.842 2-2-1.047.105-1.904.63-2 2m-1-11c-.183 1.1-.82 1.9-2 2 .182-1.4.908-1.9 2-2m0 3c.096-1.37.953-1.895 2-2-.19 1.158-.76 2-2 2"/><path d="M75 15c.096-1.37.953-1.895 2-2-.19 1.158-.762 2-2 2m-1-4c-1.24 0-1.81-.842-2-2 1.047.105 1.904.63 2 2m0-2c-1.24 0-1.81-.842-2-2 1.047 0 1.904.63 2 2"/><path d="M74 8c-1.24 0-1.81-.842-2-2 1.047.105 1.904.63 2 2m0 1c1.273 0 1.818-.8 2-2-1 .1-1.818.7-2 2"/><path d="M74 10c1.238-.1 1.81-.9 2-2-1.048.1-1.904.6-2 2m-5 3c.19 1.1.762 1.9 2 2-.096-1.4-.952-1.9-2-2m0-2c.19 1.16.762 2 2 2-.095-1.368-.952-1.894-2-2"/><path d="M69 10c1.09.1 1.818.7 2 2-1.272 0-1.818-.8-2-2m-6 17c1.047.106 1.905.632 2 2-1.238 0-1.81-.84-2-2m0-5c1.048.1 1.904.7 2 2-1.238 0-1.81-.8-2-2m0 2c1 .1 1.818.6 2 2-1.272-.1-1.818-.9-2-2m20.533 4c.267 0 .467-.214.467-.5 0-.286-.2-.5-.467-.5s-.533.214-.533.5c0 .286.266.5.533.5"/><path d="M82.32 27.32l.48.16.24-.48.16.48.56-.16-.24.48.48.24-.48.16.24.56-.56-.24-.16.48-.24-.48-.48.24.16-.56-.48-.16.48-.24M81.5 33c.286 0 .5-.267.5-.533 0-.267-.214-.467-.5-.467-.286 0-.5.2-.5.467 0 .266.214.533.5.533"/><path d="M80.24 32.24l.56.24.16-.48.24.48.48-.24-.16.56.48.16-.48.24.16.48-.48-.16-.24.48-.16-.48-.56.16.24-.48-.48-.24.48-.16M85.5 38c.285 0 .5-.266.5-.533S85.785 37 85.5 37c-.286 0-.5.2-.5.467s.214.533.5.533"/><path d="M84.307 37.24l.462.24L85 37l.23.48.463-.24-.23.56.537.16-.538.24.23.48-.46-.16L85 39l-.23-.48-.463.16.155-.48-.462-.24.462-.16M86.5 45c.286 0 .5-.267.5-.533 0-.2-.214-.467-.5-.467-.286 0-.5.266-.5.467 0 .266.214.533.5.533"/><path d="M86.308 43.24l.46.24L87 43l.23.48.463-.24-.154.56.46.16-.46.24.153.48-.462-.16L87 45l-.23-.48-.462.16.154-.48-.462-.24.462-.16M84.962 45c.134.847-.068 1.616-.878 2-.27-1 .135-1.615.878-2M93 42c-1.143-.1-2-.7-2-2 1.333 0 1.904.9 2 2m-10-3c-1.09-.105-1.91-.632-2-2 1.272 0 1.818.842 2 2m8-11c-1.238-.1-1.81-.9-2-2 1.048.1 1.904.6 2 2m-6 5c-1.182 0-1.818-.842-2-2 1.09.105 1.818.63 2 2m3-12c-1.273 0-1.818-.8-2-2 1.09.1 1.818.7 2 2m9 14c-1.09-.1-1.91-.6-2-2 1.272.1 1.818.9 2 2m-11.04-8c.137.847-.067 1.615-.882 2-.272-1 .204-1.615.883-2m1 7c.137.847-.067 1.615-.882 2-.272-1 .204-1.615.883-2M83 43c-1.238 0-1.81-.8-2-2 1.048.1 1.904.7 2 2m9.818 6.32c.273 0 .545-.088.545-.356 0-.357-.454-.357-.636-.357H92v.714h.818zm1 1.52h-.637l-.635-1.16H92v1.16h-.546v-2.68h1.364c.182 0 .545 0 .728.18.273.088.273.356.273.624 0 .536-.183.715-.73.715l.73 1.16zm.727-1.34c0-1.072-.908-1.965-2-1.965-1.18 0-2.09.893-2.09 1.965 0 1.16.91 1.964 2.09 1.964 1.092 0 2-.803 2-1.964zM90 49.5c0-1.34 1.18-2.5 2.545-2.5C93.91 47 95 48.16 95 49.5S93.91 52 92.545 52C91.18 52 90 50.84 90 49.5zm57.998 55.224c-.712 0-.8-.642-.8-1.194.088-.642.355-1.102.71-1.376.445-.552 2.58-2.02 3.735-3.858 0 0 .623 1.103.623 1.653.178 2.204-2.934 4.59-4.268 4.774zm7.824-3.673c-.267.277-2.133 1.654-3.912 2.39.18-.277.356-.46.534-.645.533-.64.8-1.285.8-2.203-.09-1.01-.89-1.653-1.423-2.48.356-.367 1.068-1.1 1.068-1.744 0-.184-.178-.368-.356-.368-.8 0-1.155.918-1.155 1.562 0 .183.178.55.178.55-1.068 1.654-3.202 3.122-3.735 3.674-.178.184-.8.918-.8 1.653-.09.824.09 1.56 1.245 1.56.8 0 2.044-.368 3.112-1.103 2.312-.734 4.623-2.663 4.623-2.663l-.178-.183zm-34.824 3.674c-.71.093-.8-.55-.8-1.194.09-.55.355-1.01.71-1.376.446-.552 2.58-2.02 3.735-3.858 0 0 .623 1.102.623 1.653.178 2.204-2.934 4.682-4.268 4.774zm7.824-3.58c-.266.183-2.133 1.56-3.912 2.295.18-.185.356-.46.534-.645.534-.64.8-1.285.8-2.203-.088-1.01-.89-1.653-1.422-2.387.355-.46 1.066-1.194 1.066-1.745 0-.184-.178-.46-.356-.46-.8 0-1.155.918-1.155 1.562 0 .275.178.55.178.55-1.068 1.654-3.2 3.215-3.735 3.674-.177.275-.8 1.01-.8 1.653-.09.825.09 1.56 1.245 1.56.8 0 2.044-.368 3.112-1.103 2.312-.735 4.623-2.663 4.623-2.663l-.178-.09zm-80.824 2.608c-.712.083-.8-.495-.712-1.072 0-.495.356-.907.623-1.237.443-.495 2.577-1.815 3.822-3.382 0 0 .534.908.534 1.486.178 1.98-2.845 4.124-4.268 4.206zm7.914-3.216c-.357.247-2.135 1.484-4.002 2.062.178-.165.445-.33.534-.578.533-.577.89-1.072.8-1.98-.09-.906-.89-1.483-1.422-2.144.355-.33 1.066-.99 1.066-1.566 0-.166-.178-.33-.356-.33-.71 0-1.066.824-1.066 1.4 0 .166.09.496.09.496-1.07 1.485-3.113 2.805-3.647 3.3-.268.165-.8.824-.89 1.484-.09.742.09 1.32 1.245 1.32.8 0 2.044-.248 3.112-.99C53.69 102.433 56 100.7 56 100.7l-.088-.164z"/></g></svg>