<svg width="44" height="45" viewBox="0 0 44 45" xmlns="http://www.w3.org/2000/svg"><g transform="translate(-59 .892)" fill="none" fill-rule="evenodd"><circle stroke="#262626" cx="81" cy="22" r="21.5"/><path d="M87.512 29.388h-2.986V24.33c0-1.324-.467-2.226-1.495-2.226-.785 0-1.22.61-1.425 1.198-.077.21-.064.503-.064.796v5.29h-2.958s.037-8.96 0-9.775h2.96v1.535c.174-.672 1.118-1.627 2.628-1.627 1.87 0 3.342 1.407 3.342 4.433v5.435zM75.59 18.39h-.02c-.952 0-1.57-.747-1.57-1.693 0-.966.636-1.697 1.61-1.697.97 0 1.568.73 1.587 1.695 0 .947-.617 1.696-1.607 1.696zM74.34 29.39h2.634v-9.775H74.34v9.775z" fill="#262626"/></g></svg>