<svg xmlns="http://www.w3.org/2000/svg" width="164" height="44" viewBox="0 0 164 44">
  <g fill="#666">
    <polygon points="95.2 5.5 104.6 9.2 95.2 12.7 95.2 17.7 111.3 11.2 111.3 7.2 95.2 .7"/>
    <path d="M8.9 24.1C4.4 24.1 1.1 26.1.8 30.3L5.8 30.3 5.8 30.2C5.9 28.8 7.2 27.8 8.6 27.9 10.5 27.9 11.4 29 11.4 30.9L11.4 31.8 9.1 31.8C4.2 31.8.2 33.3.2 38L.2 38.2C.2 42 3 43.7 6.4 43.7 8.5 43.8 10.4 42.8 11.6 41.2L11.6 43.4 16.7 43.4 16.7 30.8C16.6 26 13.3 24.1 8.9 24.1zM7.8 40C6 40 5.2 39.1 5.2 37.8L5.2 37.6C5.2 35.9 6.5 35.2 9.1 35.2L11.2 35.2 11.2 37C11.3 39 9.6 40 7.8 40zM28.7 39.8C26.2 39.8 24.9 38.1 24.9 34.3L24.9 33.7C24.9 30 26.4 28.2 28.7 28.2 30.5 28.2 31.5 29.4 31.8 31.2L36.8 31.2C36.4 26.3 32.8 24.1 28.6 24.1 23.6 24.1 19.6 27.5 19.6 33.9L19.6 34.1C19.6 40.5 23.4 43.7 28.6 43.7 33.7 43.7 36.6 40.6 37 36.4L32.2 36.4C31.8 38.5 30.5 39.8 28.7 39.8zM48.2 39.8C45.7 39.8 44.4 38.1 44.4 34.3L44.4 33.7C44.4 30 45.9 28.2 48.2 28.2 50 28.2 51 29.4 51.3 31.2L56.3 31.2C55.9 26.3 52.3 24.1 48.1 24.1 43.1 24.1 39.1 27.5 39.1 33.9L39.1 34.1C39.1 40.5 42.9 43.7 48.1 43.7 53.2 43.7 56.1 40.6 56.4 36.4L51.7 36.4C51.4 38.5 50 39.8 48.2 39.8zM67.9 39.9C65.6 39.9 64.2 38.6 64 35.2L76.2 35.2 76.2 33C76.2 26.8 72.3 24.1 67.6 24.1 62.5 24.1 58.6 27.6 58.6 33.9L58.6 34.3C58.6 40.6 62.3 43.8 67.7 43.8 72.6 43.8 75.6 41.1 76.1 37.5L71.2 37.5C71 39 69.5 40.1 67.9 39.9zM67.6 27.7C69.7 27.7 71 28.9 71.1 31.7L64.1 31.7C64.5 28.7 66 27.8 67.6 27.7zM90.4 24.1C88 24 85.8 25.2 84.7 27.3L84.7 24.5 79.5 24.5 79.5 43.3 84.7 43.3 84.7 31.8 84.7 31.3C84.8 29.6 86.3 28.2 88 28.3 89.9 28.3 90.8 29.3 90.8 31.5L90.8 43.3 96.1 43.3 96.1 30.7C96.1 26.1 93.8 24.1 90.4 24.1zM105.9 37.3L105.9 28.4 109.5 28.4 109.5 24.5 105.9 24.5 105.9 18.8 100.7 21 100.7 24.5 98.4 24.5 98.4 28.4 100.6 28.4 100.6 37.9C100.6 41.7 102.5 43.6 106.6 43.6 107.6 43.6 108.6 43.5 109.6 43.2L109.6 39.1C109 39.3 108.4 39.4 107.8 39.4 106.6 39.4 105.9 38.7 105.9 37.3zM124 36.2L124 36.7C123.9 38.4 122.4 39.8 120.7 39.7 118.8 39.7 118 38.7 118 36.5L118 24.5 112.7 24.5 112.7 37.2C112.7 41.6 115.2 43.7 118.6 43.7 120.9 43.8 123 42.6 124.1 40.5L124.1 43.3 129.4 43.3 129.4 24.5 124.1 24.5 124 36.2zM138.4 27.9L138.4 24.4 133.2 24.4 133.2 43.2 138.4 43.2 138.4 33.5C138.4 30.4 140.5 29.3 144.1 29.3L144.1 24.1C141.5 24.1 139.2 25.6 138.4 27.9zM163.3 32.9C163.3 26.7 159.4 24.1 154.7 24.1 149.6 24.1 145.7 27.6 145.7 33.9L145.7 34.3C145.7 40.6 149.4 43.8 154.8 43.8 159.7 43.8 162.6 41.1 163.2 37.5L158.3 37.5C157.9 39.1 156.4 40.1 154.8 40 152.5 40 151.1 38.7 150.9 35.3L163.1 35.3 163.1 32.9 163.3 32.9zM151.1 31.7C151.5 28.6 153 27.7 154.7 27.7 156.8 27.7 158.1 28.9 158.2 31.7L151.1 31.7z"/>
  </g>
</svg>
