<svg xmlns="http://www.w3.org/2000/svg" width="157" height="105"><g fill="#ffffff" fill-rule="evenodd"><path d="M25.297 88.524c-1.493 0-6.676 6.645-7.467 7.607 2.9-.613 7.906-5.246 7.906-7.344 0-.175-.175-.263-.439-.263zM12.121 99.628c.528-.961 1.142-1.837 1.757-2.711l-1.67.263C10.101 100.502 6.676 104 2.46 104 .966 104 0 103.3 0 102.338c0-.61.438-1.136.966-1.136.527 0 .966.263.966.874 0 .612-.439.875-.79.875-.176 0-.352 0-.352.175 0 .436.966.612 1.669.612 3.778 0 6.236-4.022 8.082-6.383-2.021.436-3.778 1.312-5.008 2.448l-.176-.087c.88-1.05 3.514-2.449 5.36-2.623 1.491-2.186 4.742-5.946 7.377-7.607V89.4c-1.141.698-2.02 1.136-3.074 1.136-1.757 0-2.371-1.748-4.568-1.748-2.196 0-4.656 2.01-4.656 4.196 0 1.312 1.055 1.924 1.933 1.924 1.845 0 4.392-2.099 4.831-3.76h.176c-.44 2.01-2.46 4.022-4.743 4.022-1.494 0-2.46-.787-2.46-2.36C5.533 90.447 9.135 88 11.33 88c1.932 0 3.074 1.923 4.83 1.923 1.143 0 2.284-.874 3.25-1.574l.089.263c-3.075 2.185-5.095 5.245-7.115 8.305l1.669-.262c.878-1.223 2.02-2.535 2.547-2.972l.088.088c-.79.698-1.581 1.836-2.196 2.884l1.668-.262c1.318-1.748 6.852-8.131 9.136-8.131.44 0 .703.262.703.612 0 2.71-5.622 7.083-8.345 7.519-.966 1.311-3.513 4.459-3.513 6.12 0 .875.79 1.225 1.493 1.225 3.25 0 6.5-3.935 6.5-5.509 0-.7-.352-1.136-.966-1.136-1.406 0-3.075 1.66-3.865 2.623h-.264c.967-1.137 2.547-2.885 4.129-2.885.878 0 1.229.611 1.229 1.486 0 2.623-4.129 5.683-6.5 5.683-1.669 0-2.284-.874-2.284-2.273 0-1.662 1.494-3.76 2.372-5.072l-1.581.262c-.527.7-1.142 1.662-1.58 2.711h-.704zm17.086-1.953c0-.169-.18-.422-.54-.422-.991 0-2.793 2.025-5.226 4.639-.54.59-.63.927-.63 1.264 0 .254.18.59.81.59 1.532 0 3.695-1.602 5.225-3.542a2.21 2.21 0 0 1-.27-1.095c0-.59.27-1.181.631-1.434zM32 100.12c-.36.253-1.081.675-1.712.675-.54 0-.9-.168-1.171-.422-2.162 2.53-3.964 3.627-5.765 3.627-.631 0-1.352-.507-1.352-1.265C22 100.71 26.144 97 28.577 97c.45 0 .811.169.9.506.091-.084.18-.084.271-.084.36 0 .45.253.45.59 0 .76-.54 1.771-.99 2.192.36.254.72.338 1.08.338.361 0 1.081-.252 1.622-.675l.09.253z"/><path d="M38.621 93H40l-2.759 2.877h1.38l-.173.254h-1.38l-5.344 5.669c-.948 1.016-1.38 1.438-1.38 1.692 0 .17.26.254.518.254.604 0 1.897-.592 5.431-3.639l.173.17C33.448 102.9 31.724 104 30.776 104c-.518 0-.776-.338-.776-.846 0-.592.345-1.354 1.551-2.708l4.052-4.315h-1.379l.173-.254h1.465L38.621 93z"/><path d="M40.333 97.26c-.833 0-1.917 1.037-4.083 3.543 2.25 0 4.5-1.988 4.5-3.11 0-.26-.167-.433-.417-.433zM42 100.37c-1.917 1.729-4.417 3.63-6.667 3.63-.666 0-1.333-.259-1.333-1.037C34 100.63 38.083 97 40.333 97c.5 0 .916.433.916.95 0 1.989-3.666 3.112-5.166 3.112-1.25 1.383-1.416 1.901-1.416 2.16 0 .433.417.52.833.52 1.834 0 4-1.557 6.5-3.63v.259zm13.304-11.102c-.87 0-3.913 2.95-8.521 8.939h.086c4.174-3.04 8.87-6.167 8.87-8.402 0-.358-.174-.537-.435-.537zm-6.173 12.246c-3.305 3.039-4.957 3.486-5.913 3.486-.87 0-1.218-.537-1.218-1.34C42 100.977 52.956 89 55.217 89c.435 0 .783.268.783.805 0 2.592-6.348 6.792-9.652 9.028 0 0-3.826 4.827-3.826 5.363 0 .357.261.537.521.537 1.218 0 2.87-.716 5.392-2.95l.696-.269zm16.42-4.254c-.925 0-1.68.432-5.207 4.234-.84.951-.84 1.382-.84 1.642 0 .345.252.605.84.605 1.93 0 5.962-4.58 5.962-5.703a.76.76 0 0 0-.756-.778zm3.526 0c-1.344 1.296-3.275 3.543-4.787 5.185-.336.431-.504.69-.504.864 0 .346.252.432.504.432 1.26 0 4.45-2.593 5.458-3.716l.252.173c-1.092 1.124-4.198 3.802-5.794 3.802-.587 0-.923-.432-.923-.864 0-.345.083-.605.252-.864h-.084c-1.176 1.123-2.267 1.728-3.107 1.728-.84 0-1.344-.519-1.344-1.382C59 99.938 63.619 97 65.298 97c.672 0 1.26.347 1.26.865 0 .173 0 .26-.085.519h.085l1.09-1.124h1.429zm3.795-.085h1.277l-1.872 2.013.084.087C73.383 98.313 75 97 75.936 97c.766 0 1.276.525 1.276 1.313 0 1.749-3.574 4.374-3.574 5.162 0 .175.085.263.34.263.681 0 2.043-1.05 5.022-3.764v.263c-2.298 2.188-4.17 3.763-5.021 3.763-.511 0-.851-.262-.851-.963 0-1.661 3.574-4.288 3.574-5.163 0-.35-.255-.611-.68-.611-1.277 0-4.682 2.974-7.575 6.387H67l5.872-6.475z"/><path d="M84.89 97.415c-1.074 0-4.385 2.65-5.638 4.276-.626.855-.716 1.111-.716 1.368 0 .427.359.684.895.684 1.79 0 6.264-4.619 6.264-5.644 0-.428-.358-.684-.806-.684zM93.39 91H95l-11.274 11.204c-.715.684-.894 1.026-.894 1.197 0 .256.179.342.626.342 1.252 0 2.862-1.026 5.905-3.678l.09.172C86.23 103.06 84.888 104 83.278 104c-.358 0-.985-.17-.985-.77 0-.342 0-.599.18-.856-.985.94-2.148 1.626-3.132 1.626-1.074 0-1.342-.685-1.342-1.369 0-2.31 4.116-5.473 6.532-5.473.805 0 1.43.257 1.43.855 0 .257-.088.428-.178.684L93.39 91zm16.443 4.432c-.178-.7-.98-.963-1.692-.963-.444 0-.713.088-.713.35 0 .263.447.7 1.247.7.446 0 .891 0 1.158-.087zm2.762-6.558c-1.425.875-2.94 2.099-5.344 5.42l.089.088c.178-.174.535-.174.89-.174.535 0 1.514.261 1.96 1.136 1.78-.437 3.741-2.36 3.741-4.11 0-1.224-.624-1.922-1.336-2.36zm-6.503 1.4c0 2.972-2.938 6.47-5.967 6.47-1.246 0-1.96-.874-1.96-2.011 0-3.323 5.701-6.733 10.956-6.733 1.425 0 2.761.262 3.474.612a6.248 6.248 0 0 1 1.514-.524l.089.174c-.445.175-.891.35-1.247.437 1.158.613 2.049 1.575 2.049 2.886 0 2.273-2.76 3.672-4.72 4.022.178.35.266.612.266.961 0 1.487-3.384 3.847-3.384 5.859 0 .962.89 1.311 1.691 1.311 1.96 0 5.523-3.235 5.523-5.16 0-.61-.534-1.048-1.158-1.048-.89 0-1.959 1.049-2.494 1.662l-.266-.087c.623-.7 1.69-1.837 2.76-1.837.713 0 1.426.436 1.426 1.399 0 2.273-3.118 5.333-5.79 5.333-1.426 0-2.494-.961-2.494-2.448 0-2.273 3.473-4.284 3.473-5.945a4.22 4.22 0 0 1-1.246.174c-.802 0-1.425-.524-1.425-1.136h-.09c-2.67 3.672-6.056 9.355-11.4 9.355-1.603 0-2.672-.7-2.672-1.749 0-.699.623-1.137 1.069-1.137.623 0 1.068.438 1.068 1.05 0 .787-1.157.7-1.157.875 0 .35.8.7 1.78.7 5.79 0 10.154-12.766 16.48-14.952-.892-.438-2.317-.525-2.94-.525-6.057 0-10.868 3.847-10.868 6.295 0 1.05.535 1.924 1.693 1.924 2.05 0 5.7-3.497 5.7-6.207h.267zm14.817 6.986c-.91 0-2.09 1.037-4.454 3.543 2.455 0 4.91-1.988 4.91-3.11 0-.26-.182-.433-.456-.433zm2.091 3.11c-2.091 1.729-5.181 3.63-7.545 3.63-.728 0-1.455-.259-1.455-1.037 0-2.333 4.454-5.963 6.909-5.963.546 0 1 .433 1 .95 0 1.989-4 3.112-5.636 3.112-1.364 1.383-1.546 1.901-1.546 2.16 0 .433.456.52.91.52 2 0 4.727-1.557 7.363-3.63v.259zm12.232-2.695c-.09-.169-.268-.422-.535-.422-.982 0-2.768 2.025-5.18 4.639-.534.59-.713.927-.713 1.264 0 .254.268.59.892.59 1.519 0 3.66-1.602 5.18-3.542a2.227 2.227 0 0 1-.27-1.095c0-.59.27-1.181.626-1.434zM138 100.12c-.446.253-1.07.675-1.785.675-.535 0-.804-.168-1.161-.422-2.143 2.53-3.929 3.627-5.625 3.627-.714 0-1.429-.507-1.429-1.265 0-2.025 4.197-5.735 6.519-5.735.445 0 .803.169.981.506.09-.084.18-.084.268-.084.269 0 .447.253.447.59 0 .76-.626 1.771-.983 2.192.268.254.626.338.983.338.446 0 1.16-.252 1.607-.675l.178.253z"/><path d="M139.612 97.184h1.468l-2.764 3.223c.691-.552 1.555-.92 2.677-1.29.172-1.012 1.295-2.117 1.813-2.117.345 0 .518.092.518.46 0 .83-1.38 1.658-2.072 1.843 0 .644.259 1.197.777 1.197.432 0 3.712-1.659 3.885-1.843l.086.184c-.173.185-3.626 1.935-3.971 1.935-.604 0-1.036-.553-1.036-1.382-1.813.46-3.108 1.475-4.316 2.948L135.382 104H134l5.612-6.816z"/><path d="M150.546 93H152l-2.736 2.877h1.282l-.17.254h-1.368l-5.299 5.669c-.854 1.016-1.282 1.438-1.282 1.692 0 .17.257.254.428.254.684 0 2.905-.423 6.41-3.469l-.086.17c-2.735 2.707-5.385 3.553-6.41 3.553-.512 0-.769-.338-.769-.846 0-.592.427-1.354 1.624-2.708l4.017-4.315h-1.453l.256-.254h1.368L150.546 93zM2.672 62.695H0V62h14.828L15 67.478h-.69c-.43-1.74-.775-3.652-2.586-4.435-.603-.26-1.637-.348-2.758-.348H6.12v7.74c2.5 0 3.879-.435 4.052-3.305h.69v7.566h-.69c-.259-3.044-1.207-3.653-4.052-3.565v8.173h2.586V80H0v-.696h2.672V62.695zm22.259 7.827c0-.783-.091-1.392-.362-2-.36-1.218-1.264-2.087-3.07-2.087-1.895 0-2.798.87-3.159 2.087-.18.608-.27 1.217-.27 2v4.348c0 .782 0 1.565.18 2.26.451 1.392 1.264 2.349 3.25 2.349 1.987 0 2.799-.957 3.16-2.348.18-.696.27-1.48.27-2.26v-4.349zM15 72.609C15 69.305 17.979 66 21.5 66c3.43 0 6.5 3.305 6.5 6.609C28 76.26 25.653 80 21.5 80c-4.153 0-6.5-3.739-6.5-7.391zM44 66v.531h-2.012v8.596c0 2.038-.437 3.013-1.226 3.81-.875.709-2.1 1.063-3.937 1.063-1.4 0-2.712-.442-3.587-1.151-.875-.62-1.225-1.95-1.225-4.253V66.53H30V66h6.563v.531H34.55v7.444c0 2.835-.263 5.317 3.412 5.317 2.363 0 3.326-1.507 3.326-3.722v-9.039h-1.925V66H44zm5.507 6.152h1.646c1.82 0 2.514-.89 2.514-2.764 0-2.23-.606-2.853-2.427-2.853h-1.733v5.617zm0 7.047H51.5v.534H45V79.2h1.994V66.535H45V66h6.674c2.166 0 4.766.267 4.766 3.121 0 2.319-2.34 3.121-4.247 3.389 3.12.534 3.814 2.228 3.814 5.617 0 .714.086 1.517 1.993 1.16v.446a5.308 5.308 0 0 1-1.646.267c-2.08 0-3.121-1.07-3.121-3.121 0-1.695-.26-3.031-.78-3.477-.606-.446-1.213-.714-1.82-.714h-1.126v6.51zm16.92.537H66v-5.454h.768c.512 2.64 2.046 5.014 4.86 5.014 2.047 0 3.923-1.584 3.923-3.783 0-2.55-2.217-3.078-4.179-3.782-.512-.176-1.023-.352-1.62-.527-2.387-.792-3.666-2.64-3.666-5.279 0-2.815 2.047-4.925 4.86-4.925 1.534 0 2.643.352 3.837 1.319l1.023-1.056h.427v5.102h-.853c-.256-2.55-1.876-4.75-4.52-4.75-1.705 0-3.325 1.32-3.325 3.167 0 2.111 1.45 2.287 3.07 2.727.682.176 1.194.44 1.62.528.512.176 1.194.352 1.791.615C76.233 69.796 77 71.555 77 74.019 77 77.449 74.868 80 71.458 80c-1.28 0-2.9-.528-3.752-1.408l-1.279 1.144zm18.355-13.23v5.572c1.984 0 3.067-.254 3.158-2.364h.54v5.402h-.54c-.18-2.109-.903-2.616-3.158-2.532v5.91h2.887c2.707 0 3.338-1.436 3.79-3.63H92L91.819 79H80v-.506h2.075V66.506H80V66h11.549l.09 3.545h-.541c-.452-1.857-1.263-2.616-2.346-2.87-.542-.169-1.083-.169-1.805-.169h-2.165zm11.787 8.857h3.823l-1.784-5.796-2.04 5.796zM93 80v-.535h1.614L99.288 66h.68l4.417 13.465H106V80h-6.202v-.535h2.039l-1.19-3.568H96.4l-1.19 3.568h1.955V80H93zm15.334-.174H108v-4h.5c.417 1.913 1.5 3.653 3.583 3.653 1.5 0 2.834-1.217 2.834-2.784 0-1.913-1.584-2.26-3-2.782-.416-.173-.834-.26-1.167-.435-1.833-.522-2.667-1.913-2.667-3.826 0-2.086 1.5-3.652 3.5-3.652 1.084 0 1.917.261 2.75.957l.75-.783h.334V70h-.583c-.25-1.912-1.418-3.565-3.333-3.565-1.251 0-2.417.957-2.417 2.348 0 1.478 1.082 1.652 2.25 2 .5.174.833.26 1.166.434.417.087.916.262 1.334.436 1.583.781 2.166 2.087 2.166 3.912 0 2.522-1.583 4.435-4.083 4.435-.917 0-2.084-.435-2.75-1.043l-.833.87zm19.814-9.304c0-.783-.085-1.392-.252-2-.42-1.218-1.176-2.087-2.853-2.087-1.763 0-2.603.87-2.938 2.087-.168.608-.252 1.217-.252 2v4.348c0 .782 0 1.565.169 2.26.335 1.392 1.174 2.349 3.02 2.349s2.602-.957 2.938-2.348c.168-.696.168-1.48.168-2.26v-4.349zM119 72.609c0-3.304 2.77-6.609 6.043-6.609 3.189 0 5.957 3.305 5.957 6.609 0 3.652-2.182 7.391-5.957 7.391-3.861 0-6.043-3.739-6.043-7.391zM144.949 80h-.624l-8.65-13.019v12.217h1.962v.534H133v-.534h1.962V66.535H133V66h5.26l6.065 9.007v-8.472h-1.962V66H147v.535h-2.051zM149.333 79.826H149v-4h.583c.417 1.913 1.5 3.653 3.5 3.653 1.5 0 2.918-1.217 2.918-2.784 0-1.913-1.667-2.26-3.084-2.782-.334-.173-.75-.26-1.166-.435-1.751-.522-2.668-1.913-2.668-3.826 0-2.086 1.5-3.652 3.5-3.652 1.167 0 1.917.261 2.834.957l.75-.783h.333V70h-.667c-.166-1.912-1.333-3.565-3.25-3.565-1.25 0-2.416.957-2.416 2.348 0 1.478 1 1.652 2.166 2 .501.174.917.26 1.25.434.333.087.834.262 1.25.436 1.585.781 2.167 2.087 2.167 3.912 0 2.522-1.583 4.435-4 4.435-.916 0-2.083-.435-2.75-1.043l-.917.87zM91.5 37c.286 0 .5-.266.5-.467 0-.266-.214-.533-.5-.533-.286 0-.5.267-.5.533 0 .2.214.467.5.467"/><path d="M91.32 35.32l.48.16.24-.48.16.48.559-.16-.239.481.48.239-.48.161.239.56-.559-.241-.16.48-.24-.48-.48.241.16-.56-.48-.161.48-.239zM76 9c1.047.1 1.905.6 2 2-1.238-.1-1.81-.9-2-2"/><path d="M76 8c1 .106 1.818.632 2 2-1.272 0-1.818-.842-2-2m0-2c1.047.1 1.81.6 2 2-1.238-.1-1.81-.9-2-2m0-2c1.047.106 1.905.632 2 2-1.238 0-1.81-.841-2-2m0-2c1 .1 1.818.7 2 2-1.272-.1-1.818-.9-2-2m0-2c1.048.106 1.81.632 2 2-1.238 0-1.809-.841-2-2"/><path d="M76 52h5v-.174l-1.61-.785L78.543.087c0-.087 0-.087-.086-.087v.087l-.846 50.954-1.611.785V52zm14-36c-.19 1.2-.761 2-2 2 .097-1.3.952-1.9 2-2m0 2c-.19 1.159-.761 2-2 2 .096-1.368.952-1.894 2-2m-6-1c-1.238 0-1.81-.842-2-2 1.048.105 1.904.631 2 2"/><path d="M81 22c-1.272 0-1.817-.842-2-2 1.09.105 1.818.631 2 2m13 5c-1 .106-1.818.632-2 2 1.273 0 1.818-.841 2-2m-2 7c1.09.106 1.91.632 2 2-1.272 0-1.818-.841-2-2m2-3c-1.142-.1-2-.6-2-2 1.333.1 1.904.9 2 2m-31.843 5.632c-.178-.176-.178-.351-.178-.351l-.356-10.017c0-.176-.09-.264-.09-.264-.089 0-.089.088-.089.264L61 36.896s0 .263.178.35L78 47v-2.372l-15.843-7.996z"/><path d="M93.822 36.632c.268-.176.268-.351.268-.351l.355-10.017c0-.176 0-.264.088-.264 0 0 .09.088.09.264l.355 10.632s.088.263-.088.35L78 47v-2.372l15.822-7.996zM65.924 29.63c-.18-.087-.18-.173-.18-.173l-.27-8.285c0-.085 0-.172-.09-.172 0 0-.091.087-.091.172l-.27 8.717s-.09.172.09.259L79 38v-1.898L65.924 29.63z"/><path d="M91.012 29.63c.18-.087.18-.173.18-.173l.358-8.285V21c.09 0 .09.087.09.172L92 29.89s0 .172-.09.259L78 38v-1.898l13.012-6.472zm-22.328-7.173c-.17-.086-.17-.172-.17-.172l-.172-6.199-.085-.086-.086.086L68 22.801s0 .173.086.259L78 29v-1.635l-9.316-4.908zm18.638 0c.085-.086.085-.172.085-.172l.254-6.199V16c.085 0 .085.086.085.086L88 22.801s0 .173-.084.259L78 29v-1.635l9.322-4.908zM71.59 15.458c-.084 0-.084-.084-.084-.084l-.169-4.29c0-.084-.085-.084-.085-.084v.084L71 15.711s0 .168.085.168L78 20v-1.177l-6.41-3.365zm1.873-5.502V9.87l-.185-2.782c0-.087 0-.087-.093-.087v.087L73 10.217s0 .088.093.088L78 13v-.783l-4.537-2.26zm9.073 0c.093 0 .093-.087.093-.087l.186-2.782V7v.087l.185 3.13v.088L78 13v-.783l4.536-2.26zm1.958 5.502c.085 0 .085-.084.085-.084l.169-4.29V11c.083 0 .083 0 .083.084L85 15.711s0 .168-.084.168L78 20v-1.177l6.494-3.365zM83 9c1.273 0 1.818-.842 2-2-1 0-1.818.631-2 2"/><path d="M83 8c1.273 0 1.818-.842 2-2-1 .105-1.818.631-2 2m0 1c-1.239 0-1.81-.9-2-2 1.048.1 1.905.7 2 2"/><path d="M83 10c-1.238-.1-1.81-.9-2-2 1.048.1 1.904.6 2 2m4 1c-.19 1.2-.762 2-2 2 .096-1.3.952-1.9 2-2"/><path d="M87 10c-1.047.1-1.904.7-2 2 1.239 0 1.81-.8 2-2m-21 5c1 .1 1.818.6 2 2-1.272-.1-1.818-.9-2-2"/><path d="M66 16c.19 1.2.762 2 2 2-.095-1.3-.952-1.9-2-2m0 2c.19 1.159.762 2 2 2-.095-1.368-.952-1.894-2-2m0 2c.183 1.2.728 2 2 2-.182-1.3-.908-1.9-2-2"/><path d="M68 23c-1.238 0-1.809-.842-2-2 1.048.105 1.904.632 2 2m3-6c-1.273 0-1.818-.842-2-2 1.09.105 1.817.631 2 2m-1 2c-1.048.1-1.905.7-2 2 1.238 0 1.81-.8 2-2m-1 4c1.239-.1 1.81-.9 2-2-1.047.1-1.904.6-2 2"/><path d="M72 22c-.191 1.159-.762 2-2 2 .096-1.368.952-1.894 2-2"/><path d="M73 22c-.19 1.159-.762 2-2 2 .095-1.368.952-1.894 2-2m2 1c-.182 1.159-.728 2-2 2 .182-1.368 1-1.894 2-2"/><path d="M76 24c-.182 1.1-.818 1.9-2 2 .182-1.4.91-1.9 2-2"/><path d="M75 27c1.239-.1 1.81-.9 2-2-1.047.1-1.904.6-2 2m-4-11c1.272 0 1.818-.841 2-2-1.09.106-1.817.631-2 2m4-1c-.191 1.1-.762 1.9-2 2 .095-1.4.952-1.9 2-2"/><path d="M76 16c-.191 1.1-.762 1.9-2 2 .096-1.4.952-1.9 2-2"/><path d="M77 16c-.182 1.1-.728 2-2 2 .182-1.3 1-1.9 2-2m-8 8c-.183 1.158-.819 2-2 2 .182-1.368.91-1.894 2-2"/><path d="M68 27c.182-1.3.91-1.9 2-2-.182 1.2-.819 2-2 2m2 0c.182-1.3.91-1.9 2-2-.182 1.2-.818 2-2 2"/><path d="M71 28c.182-1.4.91-1.9 2-2-.182 1.1-.818 1.9-2 2m2 2c.182-1.369.91-1.895 2-2-.182 1.158-.818 2-2 2m-1-13c-.182 1.1-.728 1.9-2 2 .182-1.4.91-1.9 2-2"/><path d="M71 20c.182-1.369 1-1.895 2-2-.182 1.158-.728 2-2 2m2 1c.096-1.369.953-1.895 2-2-.19 1.158-.761 2-2 2"/><path d="M74 21c.096-1.369.953-1.894 2-2-.19 1.159-.761 2-2 2"/><path d="M75 22c1.239 0 1.81-.842 2-2-1.047.105-1.904.631-2 2m-1-11c-.183 1.1-.819 1.9-2 2 .182-1.4.908-1.9 2-2m0 3c.096-1.369.953-1.895 2-2-.19 1.158-.761 2-2 2"/><path d="M75 15c.096-1.369.953-1.895 2-2-.19 1.158-.762 2-2 2m-1-4c-1.239 0-1.81-.842-2-2 1.047.105 1.904.631 2 2m0-2c-1.239 0-1.81-.842-2-2 1.047 0 1.904.631 2 2"/><path d="M74 8c-1.239 0-1.81-.842-2-2 1.047.105 1.904.631 2 2m0 1c1.273 0 1.818-.8 2-2-1 .1-1.818.7-2 2"/><path d="M74 10c1.238-.1 1.81-.9 2-2-1.048.1-1.904.6-2 2m-5 3c.19 1.1.762 1.9 2 2-.096-1.4-.952-1.9-2-2m0-2c.19 1.159.762 2 2 2-.095-1.368-.952-1.894-2-2"/><path d="M69 10c1.09.1 1.818.7 2 2-1.272 0-1.818-.8-2-2m-6 17c1.047.106 1.905.632 2 2-1.238 0-1.81-.841-2-2m0-5c1.048.1 1.904.7 2 2-1.238 0-1.81-.8-2-2m0 2c1 .1 1.818.6 2 2-1.272-.1-1.818-.9-2-2m20.533 4c.267 0 .467-.214.467-.5 0-.286-.2-.5-.467-.5s-.533.214-.533.5c0 .286.266.5.533.5"/><path d="M82.32 27.32l.48.16.241-.48.159.48.56-.16-.24.481.48.239-.48.16.24.561-.56-.241-.159.48-.241-.48-.48.241.16-.561-.48-.16.48-.239zM81.5 33c.286 0 .5-.267.5-.533 0-.267-.214-.467-.5-.467-.286 0-.5.2-.5.467 0 .266.214.533.5.533"/><path d="M80.24 32.24l.561.24.16-.48.239.48.48-.24-.16.56.48.161-.48.239.16.48-.48-.16-.239.48-.16-.48-.561.16.24-.48-.48-.239.48-.161zM85.5 38c.285 0 .5-.266.5-.533S85.785 37 85.5 37c-.286 0-.5.2-.5.467s.214.533.5.533"/><path d="M84.307 37.24l.462.24L85 37l.231.48.462-.24-.231.56.538.161-.538.239.231.48-.462-.16L85 39l-.231-.48-.462.16.155-.48-.462-.239.462-.161zM86.5 45c.286 0 .5-.267.5-.533 0-.2-.214-.467-.5-.467-.286 0-.5.266-.5.467 0 .266.214.533.5.533"/><path d="M86.308 43.24l.461.24L87 43l.231.48.462-.24-.154.56.461.16-.461.24.154.48-.462-.16L87 45l-.231-.48-.461.16.154-.48-.462-.24.462-.16zM84.962 45c.134.847-.068 1.616-.878 2-.27-1 .135-1.615.878-2M93 42c-1.143-.1-2-.7-2-2 1.333 0 1.904.9 2 2m-10-3c-1.09-.105-1.91-.632-2-2 1.272 0 1.818.842 2 2m8-11c-1.238-.1-1.809-.9-2-2 1.048.1 1.904.6 2 2m-6 5c-1.182 0-1.818-.842-2-2 1.091.105 1.818.631 2 2m3-12c-1.273 0-1.818-.8-2-2 1.09.1 1.818.7 2 2m9 14c-1.09-.1-1.91-.6-2-2 1.272.1 1.818.9 2 2m-11.039-8c.136.847-.068 1.615-.883 2-.272-1 .204-1.615.883-2m1 7c.136.847-.068 1.615-.883 2-.272-1 .204-1.615.883-2M83 43c-1.238 0-1.81-.8-2-2 1.048.1 1.904.7 2 2m9.818 6.321c.273 0 .545-.09.545-.357 0-.357-.454-.357-.636-.357h-.728v.714h.82zm1 1.518h-.637l-.636-1.16H92v1.16h-.545v-2.678h1.364c.182 0 .545 0 .728.178.273.09.273.357.273.625 0 .536-.182.715-.728.715l.728 1.16zm.727-1.339c0-1.072-.908-1.965-2-1.965-1.181 0-2.09.893-2.09 1.965 0 1.16.909 1.964 2.09 1.964 1.092 0 2-.803 2-1.964zM90 49.5c0-1.339 1.181-2.5 2.545-2.5C93.91 47 95 48.161 95 49.5S93.91 52 92.545 52C91.181 52 90 50.839 90 49.5zm57.998 55.224c-.712 0-.8-.642-.8-1.194.088-.642.355-1.102.71-1.376.445-.552 2.58-2.021 3.735-3.858 0 0 .623 1.103.623 1.653.178 2.205-2.934 4.592-4.268 4.775zm7.824-3.673c-.267.276-2.133 1.653-3.912 2.388.179-.276.356-.46.534-.644.533-.641.8-1.285.8-2.203-.09-1.01-.89-1.653-1.423-2.48.355-.367 1.067-1.101 1.067-1.744 0-.184-.178-.368-.356-.368-.8 0-1.155.918-1.155 1.562 0 .183.178.55.178.55-1.068 1.654-3.202 3.122-3.735 3.674-.178.184-.8.918-.8 1.653-.089.825.089 1.561 1.245 1.561.8 0 2.044-.368 3.112-1.103 2.312-.734 4.623-2.663 4.623-2.663l-.178-.183zm-34.824 3.673c-.71.093-.8-.551-.8-1.194.09-.551.355-1.01.71-1.376.446-.552 2.58-2.021 3.735-3.858 0 0 .623 1.102.623 1.653.178 2.205-2.934 4.683-4.268 4.775zm7.824-3.58c-.266.183-2.133 1.56-3.912 2.295.179-.184.356-.46.534-.644.534-.641.8-1.285.8-2.203-.088-1.01-.89-1.653-1.422-2.387.355-.46 1.066-1.194 1.066-1.745 0-.184-.178-.46-.356-.46-.799 0-1.155.918-1.155 1.562 0 .275.178.55.178.55-1.068 1.654-3.2 3.215-3.735 3.674-.177.275-.8 1.01-.8 1.653-.089.826.089 1.561 1.245 1.561.8 0 2.044-.368 3.112-1.103 2.312-.735 4.623-2.663 4.623-2.663l-.178-.09zm-80.824 2.608c-.712.083-.8-.495-.712-1.072 0-.495.356-.907.623-1.237.444-.495 2.578-1.815 3.823-3.382 0 0 .534.907.534 1.485.178 1.98-2.845 4.124-4.268 4.206zm7.914-3.216c-.357.247-2.135 1.484-4.002 2.062.178-.165.445-.33.534-.578.533-.577.89-1.072.8-1.98-.09-.906-.89-1.483-1.422-2.144.355-.33 1.066-.99 1.066-1.566 0-.166-.178-.33-.356-.33-.71 0-1.066.824-1.066 1.401 0 .165.089.495.089.495-1.068 1.485-3.112 2.805-3.646 3.3-.267.165-.8.824-.89 1.484-.088.742.09 1.32 1.246 1.32.8 0 2.044-.248 3.112-.99C53.69 102.433 56 100.7 56 100.7l-.088-.164z"/></g></svg>