<svg xmlns="http://www.w3.org/2000/svg" width="67" height="60" viewBox="0 0 67 60">
  <path fill="#1D2737" fill-rule="evenodd" d="M306,149.6 L313.4,157 C306.2,164.6 302.2,171.2 302.2,177.8 C302.2,188.8 311.4,188.4 311.4,197.6 C311.4,204 307.2,208.4 300.4,208.4 C290,208.4 285,199 285,188.6 C285,173.8 291.6,162 306,149.6 Z M268,149.6 L275.4,157 C268.2,164.6 264.2,171.2 264.2,177.8 C264.2,188.8 273.4,188.4 273.4,197.6 C273.4,204 269.2,208.4 262.4,208.4 C252,208.4 247,199 247,188.6 C247,173.8 253.6,162 268,149.6 Z" opacity=".1" transform="rotate(180 156.7 104.5)"/>
</svg>
