<svg data-name="Layer 1" xmlns="http://www.w3.org/2000/svg" viewBox="0 0 835.7375 737.4"><path d="M828.925 343.2l-183.4-317.7a51.022 51.022 0 0 0-44.2-25.5h-366.8a51.022 51.022 0 0 0-44.2 25.5L6.825 343.2a51.237 51.237 0 0 0 0 51.1l183.4 317.6a51.022 51.022 0 0 0 44.2 25.5h366.8a51.022 51.022 0 0 0 44.2-25.5l183.4-317.6a50.995 50.995 0 0 0 .1-51.1zm-411-278.1a303.12 303.12 0 0 1 245.1 124.4l-521.6 304.9a301.76 301.76 0 0 1-27.2-125.7c0-167.7 136-303.6 303.7-303.6zm0 607.2a303.035 303.035 0 0 1-245.5-125l521.7-305a302.822 302.822 0 0 1 27.5 126.3c-.1 167.8-136.1 303.7-303.7 303.7z" fill="#d0021b" /></svg>