<svg width="44" height="45" viewBox="0 0 44 45" xmlns="http://www.w3.org/2000/svg"><g transform="translate(0 .892)" fill="none" fill-rule="evenodd"><circle stroke="#262626" cx="22" cy="22" r="21.5"/><path d="M30.215 16.703c-.597.29-1.238.485-1.91.572.686-.45 1.213-1.16 1.46-2.01-.64.417-1.353.72-2.11.882C27.047 15.44 26.183 15 25.227 15c-1.838 0-3.328 1.627-3.328 3.632 0 .285.03.562.086.828-2.765-.152-5.216-1.598-6.857-3.795-.287.536-.452 1.16-.452 1.827 0 1.26.588 2.37 1.48 3.023-.544-.02-1.058-.183-1.506-.455 0 1.805 1.147 3.273 2.668 3.608-.28.083-.573.127-.876.127-.215 0-.423-.023-.626-.066.423 1.443 1.652 2.493 3.108 2.522-1.14.973-2.573 1.555-4.132 1.555-.268 0-.533-.018-.794-.05 1.473 1.03 3.222 1.63 5.1 1.63 6.118 0 9.465-5.533 9.465-10.333 0-.158-.003-.315-.01-.47.65-.512 1.214-1.152 1.66-1.88l37.316 58.42" fill="#262626"/></g></svg>