<svg width="44" height="45" viewBox="0 0 44 45" xmlns="http://www.w3.org/2000/svg"><g transform="translate(-177 .892)" fill="none" fill-rule="evenodd"><circle stroke="#262626" cx="199" cy="22" r="21.5"/><path d="M201.594 22.855l-4.463 2.98c-.467.314-.853.06-.853-.563l-.007-5.95c0-.624.384-.88.854-.568l4.468 2.966c.47.31.47.823.002 1.135m5.512-4.064c0-1.473-1.05-2.667-2.342-2.667-1.754-.086-3.543-.123-5.37-.123h-.573c-1.825 0-3.618.037-5.37.123-1.294 0-2.34 1.194-2.34 2.668-.078 1.168-.112 2.336-.11 3.503-.002 1.168.032 2.333.11 3.504 0 1.47 1.046 2.665 2.34 2.665 1.845.093 3.733.132 5.657.127 1.924.004 3.81-.035 5.657-.128 1.292 0 2.342-1.194 2.342-2.665.078-1.17.112-2.336.11-3.504.002-1.167-.032-2.335-.11-3.502" fill="#262626"/></g></svg>